g fbx_ef_Ring6
v 5.739159 0 3.0515652
v 3.9161558 2.0796762 1.0335748
v 5.5908494 2.9690228 1.47557
v 4.020041 0 2.1374938
v 4.349666 -2.9690228 3.8098962
v 2.3009224 0 1.2234222
v 2.2414625 1.1903296 0.5915799
v 1.125 0.5974317 0.29691657
v 1.1548433 0 0.6140411
v 1.7438518 -1.1903296 1.5274494
v 0.875247 -0.5974317 0.7666336
v 3.0467587 -2.0796762 2.6686728
v 1.7946832 -5.142498 3.5473685
v 0.7195178 -2.061711 1.4221978
v 0.36112922 -1.034782 0.71380746
v 1.2571006 -3.6021044 2.4847832
v -1.2411834 -5.9380455 2.3343263
v -0.49761063 -2.380659 0.93586946
v -0.24975301 -1.1948634 0.4697171
v -0.86939704 -4.1593523 1.635098
v -3.944476 -5.142498 0.49580336
v -1.5814046 -2.061711 0.19877559
v -0.7937141 -1.034782 0.099766344
v -2.7629404 -3.6021044 0.34728932
v -5.5908494 -2.9690228 -1.47557
v -2.2414625 -1.1903296 -0.5915799
v -1.125 -0.5974317 -0.29691657
v -3.9161558 -2.0796762 -1.0335748
v -5.739159 0 -3.0515652
v -2.3009224 0 -1.2234222
v -1.1548433 0 -0.6140411
v -4.020041 0 -2.1374938
v -1.7438518 1.1903296 -1.5274494
v -0.875247 0.5974317 -0.7666336
v -3.0467587 2.0796762 -2.6686728
v -4.349666 2.9690228 -3.8098962
v -1.7946832 5.142498 -3.5473685
v -0.7195178 2.061711 -1.4221978
v -0.36112922 1.034782 -0.71380746
v -1.2571006 3.6021044 -2.4847832
v 1.2411834 5.9380455 -2.3343263
v 0.49761063 2.380659 -0.93586946
v 0.24975301 1.1948634 -0.4697171
v 0.86939704 4.1593523 -1.635098
v 3.944476 5.142498 -0.49580336
v 1.5814046 2.061711 -0.19877559
v 0.7937141 1.034782 -0.099766344
v 2.7629404 3.6021044 -0.34728932
v 5.5908494 2.9690228 1.47557
v 3.9161558 2.0796762 1.0335748
v 2.2414625 1.1903296 0.5915799
v 1.125 0.5974317 0.29691657
v 5.739159 0 -3.0515652
v 3.0467587 2.0796762 -2.6686728
v 4.349666 2.9690228 -3.8098962
v 4.020041 0 -2.1374938
v 5.5908494 -2.9690228 -1.47557
v 2.3009224 0 -1.2234222
v 1.7438518 1.1903296 -1.5274494
v 0.875247 0.5974317 -0.7666336
v 1.1548433 0 -0.6140411
v 2.2414625 -1.1903296 -0.5915799
v 1.125 -0.5974317 -0.29691657
v 3.9161558 -2.0796762 -1.0335748
v 3.944476 -5.142498 0.49580336
v 1.5814046 -2.061711 0.19877559
v 0.7937141 -1.034782 0.099766344
v 2.7629404 -3.6021044 0.34728932
v 1.2411834 -5.9380455 2.3343263
v 0.49761063 -2.380659 0.93586946
v 0.24975301 -1.1948634 0.4697171
v 0.86939704 -4.1593523 1.635098
v -1.7946832 -5.142498 3.5473685
v -0.7195178 -2.061711 1.4221978
v -0.36112922 -1.034782 0.71380746
v -1.2571006 -3.6021044 2.4847832
v -4.349666 -2.9690228 3.8098962
v -1.7438518 -1.1903296 1.5274494
v -0.875247 -0.5974317 0.7666336
v -3.0467587 -2.0796762 2.6686728
v -5.739159 0 3.0515652
v -2.3009224 0 1.2234222
v -1.1548433 0 0.6140411
v -4.020041 0 2.1374938
v -2.2414625 1.1903296 0.5915799
v -1.125 0.5974317 0.29691657
v -3.9161558 2.0796762 1.0335748
v -5.5908494 2.9690228 1.47557
v -3.944476 5.142498 -0.49580336
v -1.5814046 2.061711 -0.19877559
v -0.7937141 1.034782 -0.099766344
v -2.7629404 3.6021044 -0.34728932
v -1.2411834 5.9380455 -2.3343263
v -0.49761063 2.380659 -0.93586946
v -0.24975301 1.1948634 -0.4697171
v -0.86939704 4.1593523 -1.635098
v 1.7946832 5.142498 -3.5473685
v 0.7195178 2.061711 -1.4221978
v 0.36112922 1.034782 -0.71380746
v 1.2571006 3.6021044 -2.4847832
v 4.349666 2.9690228 -3.8098962
v 3.0467587 2.0796762 -2.6686728
v 1.7438518 1.1903296 -1.5274494
v 0.875247 0.5974317 -0.7666336
vt 0.91666675 2.9802322E-08
vt 1 0.375
vt 1 2.9802322E-08
vt 0.91666675 0.375
vt 0.8333335 2.9802322E-08
vt 0.91666675 0.74999994
vt 1 0.74999994
vt 1 1
vt 0.91666675 1
vt 0.8333335 0.74999994
vt 0.8333335 1
vt 0.8333335 0.375
vt 0.7500002 2.9802322E-08
vt 0.7500002 0.74999994
vt 0.7500002 1
vt 0.7500002 0.375
vt 0.6666669 2.9802322E-08
vt 0.6666669 0.74999994
vt 0.6666669 1
vt 0.6666669 0.375
vt 0.5833336 2.9802322E-08
vt 0.5833336 0.74999994
vt 0.5833336 1
vt 0.5833336 0.375
vt 0.50000036 2.9802322E-08
vt 0.50000036 0.74999994
vt 0.50000036 1
vt 0.50000036 0.375
vt 0.41666695 2.9802322E-08
vt 0.41666695 0.74999994
vt 0.41666695 1
vt 0.41666684 0.375
vt 0.33333355 0.74999994
vt 0.33333355 1
vt 0.33333355 0.375
vt 0.33333355 2.9802322E-08
vt 0.25000018 2.9802322E-08
vt 0.25000018 0.74999994
vt 0.25000018 1
vt 0.25000006 0.375
vt 0.16666678 2.9802322E-08
vt 0.16666678 0.74999994
vt 0.16666678 1
vt 0.16666678 0.375
vt 0.0833334 2.9802322E-08
vt 0.08333352 0.74999994
vt 0.08333352 1
vt 0.08333352 0.375
vt 0 2.9802322E-08
vt 0 0.375
vt 0 0.74999994
vt 0 1
vt 0.41666675 0.5
vt 0.5 0.124999985
vt 0.5 0.5
vt 0.41666675 0.125
vt 0.3333335 0.5
vt 0.41666675 -0.24999994
vt 0.5 -0.24999994
vt 0.5 -0.5
vt 0.41666675 -0.5
vt 0.3333335 -0.24999994
vt 0.3333335 -0.5
vt 0.3333335 0.125
vt 0.25000018 0.5
vt 0.25000018 -0.24999994
vt 0.25000018 -0.5
vt 0.25000018 0.125
vt 0.16666698 0.5
vt 0.16666692 -0.24999994
vt 0.16666687 -0.5
vt 0.16666692 0.125
vt 0.083333656 0.5
vt 0.08333358 -0.24999991
vt 0.08333357 -0.5
vt 0.08333361 0.12500003
vt 4.0133926E-07 0.5
vt 3.3577214E-07 -0.24999991
vt 3.1391647E-07 -0.5
vt 3.6855567E-07 0.12500003
vt -0.083333 0.5
vt -0.083333075 -0.24999991
vt -0.08333309 -0.5
vt -0.083333164 0.12500003
vt -0.16666645 -0.24999988
vt -0.16666651 -0.5
vt -0.16666645 0.12500006
vt -0.16666639 0.5
vt -0.24999976 0.5
vt -0.24999982 -0.24999988
vt -0.24999988 -0.49999994
vt -0.24999994 0.12500006
vt -0.33333316 0.5
vt -0.33333328 -0.24999988
vt -0.33333328 -0.49999994
vt -0.33333322 0.12500006
vt -0.41666654 0.5
vt -0.41666654 -0.24999988
vt -0.41666654 -0.49999994
vt -0.41666648 0.12500006
vt -0.5 0.5
vt -0.5 0.12500006
vt -0.5 -0.24999988
vt -0.5 -0.49999994
vn -0.4288837 0.40673652 0.80661273
vn -0.42888358 0.40673673 0.80661273
vn -0.42888355 0.40673667 0.80661273
vn -0.42888358 0.40673658 0.80661273
vn -0.42888364 0.40673673 0.80661273
vn -0.42888358 0.40673667 0.80661273
vn -0.42888358 0.4067366 0.80661273
vn -0.42888364 0.40673676 0.80661273
vn -0.42888367 0.40673673 0.8066127
vn -0.42888355 0.40673667 0.80661273
vn -0.42888367 0.40673673 0.8066127
vn -0.42888358 0.40673667 0.80661273
vn -0.42888367 0.40673655 0.80661285
vn -0.42888358 0.4067366 0.80661273
vn -0.4288837 0.4067366 0.80661273
vn -0.42888364 0.40673658 0.80661273
vn -0.4288837 0.40673667 0.80661273
vn -0.42888364 0.40673667 0.80661273
vn -0.42888358 0.40673652 0.80661273
vn -0.4288837 0.40673673 0.80661273
vn -0.4288837 0.40673667 0.80661273
vn -0.42888358 0.40673673 0.80661273
vn -0.42888358 0.4067366 0.80661273
vn -0.42888364 0.40673667 0.80661273
vn -0.42888355 0.40673667 0.80661273
vn -0.42888364 0.4067366 0.80661273
vn -0.42888364 0.40673658 0.80661273
vn -0.42888358 0.40673673 0.80661273
vn -0.42888367 0.40673655 0.80661285
vn -0.42888358 0.40673667 0.80661273
vn -0.42888367 0.40673673 0.8066127
vn -0.4288836 0.40673664 0.80661285
vn -0.42888355 0.40673664 0.80661285
vn -0.42888364 0.40673658 0.80661273
vn -0.42888358 0.40673667 0.80661273
vn -0.42888364 0.40673673 0.80661273
vn -0.42888367 0.40673655 0.80661285
vn -0.42888358 0.4067366 0.80661273
vn -0.4288837 0.4067366 0.80661273
vn -0.42888364 0.40673658 0.80661273
vn -0.4288837 0.40673667 0.80661273
vn -0.42888364 0.40673667 0.80661273
vn -0.42888358 0.40673652 0.80661273
vn -0.4288837 0.40673673 0.80661273
vn -0.4288837 0.40673667 0.80661273
vn -0.42888358 0.40673673 0.80661273
vn -0.42888358 0.4067366 0.80661273
vn -0.42888364 0.40673667 0.80661273
vn -0.4288837 0.40673667 0.80661273
vn -0.4288837 0.40673667 0.80661273
vn -0.42888364 0.4067366 0.80661273
vn -0.42888364 0.40673658 0.80661273
vn 0.42888364 0.40673667 0.80661273
vn 0.42888358 0.4067366 0.80661273
vn 0.42888358 0.40673658 0.80661273
vn 0.42888358 0.4067366 0.80661273
vn 0.4288837 0.4067367 0.8066127
vn 0.42888364 0.4067366 0.80661273
vn 0.42888358 0.40673658 0.80661273
vn 0.4288837 0.40673673 0.8066127
vn 0.4288837 0.40673673 0.8066127
vn 0.42888358 0.40673658 0.80661273
vn 0.4288837 0.40673673 0.80661273
vn 0.42888373 0.40673667 0.80661273
vn 0.42888358 0.40673652 0.80661273
vn 0.4288836 0.40673664 0.80661285
vn 0.4288837 0.4067366 0.80661273
vn 0.42888364 0.4067366 0.80661273
vn 0.4288836 0.40673655 0.80661285
vn 0.42888364 0.40673673 0.80661273
vn 0.4288837 0.40673658 0.80661273
vn 0.42888364 0.40673652 0.80661273
vn 0.42888358 0.40673667 0.80661273
vn 0.4288837 0.4067366 0.80661273
vn 0.42888358 0.40673652 0.80661273
vn 0.42888358 0.40673667 0.80661273
vn 0.42888358 0.40673658 0.80661273
vn 0.42888355 0.40673667 0.80661285
vn 0.42888355 0.40673667 0.80661285
vn 0.42888358 0.4067366 0.80661273
vn 0.42888355 0.40673667 0.80661273
vn 0.42888364 0.4067366 0.80661273
vn 0.4288837 0.40673673 0.8066127
vn 0.42888358 0.40673667 0.80661273
vn 0.42888358 0.4067366 0.80661273
vn 0.42888364 0.40673658 0.80661273
vn 0.42888373 0.40673667 0.80661273
vn 0.4288837 0.4067367 0.8066127
vn 0.42888358 0.40673652 0.80661273
vn 0.4288836 0.40673664 0.80661285
vn 0.4288837 0.4067366 0.80661273
vn 0.42888364 0.4067366 0.80661273
vn 0.4288836 0.40673655 0.80661285
vn 0.42888364 0.40673673 0.80661273
vn 0.4288837 0.40673658 0.80661273
vn 0.42888364 0.40673652 0.80661273
vn 0.42888358 0.40673667 0.80661273
vn 0.4288837 0.4067366 0.80661273
vn 0.42888358 0.40673652 0.80661273
vn 0.42888358 0.40673667 0.80661273
vn 0.42888358 0.40673667 0.80661273
vn 0.42888358 0.40673667 0.80661273
vn 0.42888355 0.40673667 0.80661285
vn 0.42888355 0.40673667 0.80661285
g fbx_ef_Ring6_0
f 3/3/3 2/2/2 1/1/1
f 2/2/2 4/4/4 1/1/1
f 1/1/1 4/4/4 5/5/5
f 4/4/4 2/2/2 6/6/6
f 2/2/2 7/7/7 6/6/6
f 7/7/7 8/8/8 6/6/6
f 8/8/8 9/9/9 6/6/6
f 6/6/6 9/9/9 10/10/10
f 4/4/4 6/6/6 10/10/10
f 9/9/9 11/11/11 10/10/10
f 4/4/4 12/12/12 5/5/5
f 12/12/12 4/4/4 10/10/10
f 5/5/5 12/12/12 13/13/13
f 10/10/10 11/11/11 14/14/14
f 12/12/12 10/10/10 14/14/14
f 11/11/11 15/15/15 14/14/14
f 12/12/12 16/16/16 13/13/13
f 16/16/16 12/12/12 14/14/14
f 13/13/13 16/16/16 17/17/17
f 14/14/14 15/15/15 18/18/18
f 16/16/16 14/14/14 18/18/18
f 15/15/15 19/19/19 18/18/18
f 16/16/16 20/20/20 17/17/17
f 20/20/20 16/16/16 18/18/18
f 17/17/17 20/20/20 21/21/21
f 18/18/18 19/19/19 22/22/22
f 20/20/20 18/18/18 22/22/22
f 19/19/19 23/23/23 22/22/22
f 20/20/20 24/24/24 21/21/21
f 24/24/24 20/20/20 22/22/22
f 21/21/21 24/24/24 25/25/25
f 22/22/22 23/23/23 26/26/26
f 24/24/24 22/22/22 26/26/26
f 23/23/23 27/27/27 26/26/26
f 24/24/24 28/28/28 25/25/25
f 28/28/28 24/24/24 26/26/26
f 25/25/25 28/28/28 29/29/29
f 26/26/26 27/27/27 30/30/30
f 28/28/28 26/26/26 30/30/30
f 27/27/27 31/31/31 30/30/30
f 28/28/28 32/32/32 29/29/29
f 32/32/32 28/28/28 30/30/30
f 30/30/30 31/31/31 33/33/33
f 32/32/32 30/30/30 33/33/33
f 31/31/31 34/34/34 33/33/33
f 29/29/29 32/32/32 35/35/35
f 35/35/35 32/32/32 33/33/33
f 36/36/36 29/29/29 35/35/35
f 36/36/36 35/35/35 37/37/37
f 33/33/33 34/34/34 38/38/38
f 35/35/35 33/33/33 38/38/38
f 34/34/34 39/39/39 38/38/38
f 35/35/35 40/40/40 37/37/37
f 40/40/40 35/35/35 38/38/38
f 37/37/37 40/40/40 41/41/41
f 38/38/38 39/39/39 42/42/42
f 40/40/40 38/38/38 42/42/42
f 39/39/39 43/43/43 42/42/42
f 40/40/40 44/44/44 41/41/41
f 44/44/44 40/40/40 42/42/42
f 41/41/41 44/44/44 45/45/45
f 42/42/42 43/43/43 46/46/46
f 44/44/44 42/42/42 46/46/46
f 43/43/43 47/47/47 46/46/46
f 44/44/44 48/48/48 45/45/45
f 48/48/48 44/44/44 46/46/46
f 45/45/45 48/48/48 49/49/49
f 48/48/48 50/50/50 49/49/49
f 50/50/50 48/48/48 51/51/51
f 48/48/48 46/46/46 51/51/51
f 46/46/46 47/47/47 51/51/51
f 47/47/47 52/52/52 51/51/51
f 55/55/55 54/54/54 53/53/53
f 54/54/54 56/56/56 53/53/53
f 53/53/53 56/56/56 57/57/57
f 56/56/56 54/54/54 58/58/58
f 54/54/54 59/59/59 58/58/58
f 59/59/59 60/60/60 58/58/58
f 60/60/60 61/61/61 58/58/58
f 58/58/58 61/61/61 62/62/62
f 56/56/56 58/58/58 62/62/62
f 61/61/61 63/63/63 62/62/62
f 56/56/56 64/64/64 57/57/57
f 64/64/64 56/56/56 62/62/62
f 57/57/57 64/64/64 65/65/65
f 62/62/62 63/63/63 66/66/66
f 64/64/64 62/62/62 66/66/66
f 63/63/63 67/67/67 66/66/66
f 64/64/64 68/68/68 65/65/65
f 68/68/68 64/64/64 66/66/66
f 65/65/65 68/68/68 69/69/69
f 66/66/66 67/67/67 70/70/70
f 68/68/68 66/66/66 70/70/70
f 67/67/67 71/71/71 70/70/70
f 68/68/68 72/72/72 69/69/69
f 72/72/72 68/68/68 70/70/70
f 69/69/69 72/72/72 73/73/73
f 70/70/70 71/71/71 74/74/74
f 72/72/72 70/70/70 74/74/74
f 71/71/71 75/75/75 74/74/74
f 72/72/72 76/76/76 73/73/73
f 76/76/76 72/72/72 74/74/74
f 73/73/73 76/76/76 77/77/77
f 74/74/74 75/75/75 78/78/78
f 76/76/76 74/74/74 78/78/78
f 75/75/75 79/79/79 78/78/78
f 76/76/76 80/80/80 77/77/77
f 80/80/80 76/76/76 78/78/78
f 77/77/77 80/80/80 81/81/81
f 78/78/78 79/79/79 82/82/82
f 80/80/80 78/78/78 82/82/82
f 79/79/79 83/83/83 82/82/82
f 80/80/80 84/84/84 81/81/81
f 84/84/84 80/80/80 82/82/82
f 82/82/82 83/83/83 85/85/85
f 84/84/84 82/82/82 85/85/85
f 83/83/83 86/86/86 85/85/85
f 81/81/81 84/84/84 87/87/87
f 87/87/87 84/84/84 85/85/85
f 88/88/88 81/81/81 87/87/87
f 88/88/88 87/87/87 89/89/89
f 85/85/85 86/86/86 90/90/90
f 87/87/87 85/85/85 90/90/90
f 86/86/86 91/91/91 90/90/90
f 87/87/87 92/92/92 89/89/89
f 92/92/92 87/87/87 90/90/90
f 89/89/89 92/92/92 93/93/93
f 90/90/90 91/91/91 94/94/94
f 92/92/92 90/90/90 94/94/94
f 91/91/91 95/95/95 94/94/94
f 92/92/92 96/96/96 93/93/93
f 96/96/96 92/92/92 94/94/94
f 93/93/93 96/96/96 97/97/97
f 94/94/94 95/95/95 98/98/98
f 96/96/96 94/94/94 98/98/98
f 95/95/95 99/99/99 98/98/98
f 96/96/96 100/100/100 97/97/97
f 100/100/100 96/96/96 98/98/98
f 97/97/97 100/100/100 101/101/101
f 100/100/100 102/102/102 101/101/101
f 102/102/102 100/100/100 103/103/103
f 100/100/100 98/98/98 103/103/103
f 98/98/98 99/99/99 103/103/103
f 99/99/99 104/104/104 103/103/103
