g fbx_ef_XCircle1
v 0.0019661598 -0.0011496064 0.00093299337
v 0.032215267 -0.018849581 0.015411705
v 0.0021411981 -0.00067165075 0.0010106154
v 0.03508538 -0.011012789 0.016684473
v 0.07598305 -0.04445979 0.03636074
v 0.0022227354 -0.00016434677 0.0010437546
v 0.082752705 -0.025975458 0.03936279
v 0.14924788 -0.087329865 0.0714283
v 0.036422193 -0.0026946962 0.017227799
v 0.002207175 0.00035015028 0.0010309471
v 0.036167204 0.005741164 0.017017871
v 0.0020952243 0.0008493494 0.00097276643
v 0.16254508 -0.051022112 0.077325106
v 0.26051903 -0.15243912 0.12468743
v 0.08590573 -0.0063558817 0.040644318
v 0.03433159 0.013926119 0.016063899
v 0.0018917713 0.0013113953 0.0008717512
v 0.28373003 -0.08906183 0.13498044
v 0.4137709 -0.24211264 0.19804049
v 0.45063615 -0.1414533 0.21438861
v 0.46780658 -0.03461194 0.22136712
v 0.16873848 -0.012484491 0.07984227
v 0.08530438 0.01354146 0.040149182
v 0.030995607 0.021502435 0.014407571
v 0.001605697 0.0017161556 0.0007323127
v 0.29454112 -0.021792382 0.1393745
v 0.29247928 0.046429276 0.13767695
v 0.46453166 0.07374191 0.21867085
v 0.44095397 0.17887354 0.20641756
v 0.16755724 0.026598692 0.0788697
v 0.08097476 0.032847047 0.037899077
v 0.15905285 0.064519525 0.07444993
v 0.02630499 0.028138995 0.012121267
v 0.0012495117 0.0020458847 0.00056054816
v 0.07310629 0.050716937 0.033992343
v 0.27763438 0.11262226 0.12996191
v 0.020464763 0.033545703 0.009304911
v 0.00083878357 0.0022862405 0.0003639646
v 0.25065613 0.17389345 0.116567165
v 0.3981049 0.2761867 0.18514293
v 0.33785677 0.36142993 0.15577662
v 0.14359725 0.09962046 0.066776216
v 0.062042713 0.06637037 0.028599724
v 0.12186563 0.13036752 0.056183774
v 0.013730198 0.037486374 0.006081611
v 0.00039145397 0.002426656 0.00015114993
v 0.048267603 0.07912302 0.02195689
v 0.21272206 0.22756362 0.09807732
v 0.0063955784 0.039788693 0.002592206
v -7.291825E-05 0.0024610143 -6.8590976E-05
v 0.16549146 0.27128887 0.07530111
v 0.26284218 0.43087697 0.119602025
v 0.17634034 0.4814918 0.07820034
v 0.09480798 0.15541685 0.043135643
v 0.032383025 0.08841765 0.014354199
v 0.06360674 0.17367387 0.028202116
v -0.0012184847 0.040352017 -0.0010107756
v -0.0005340334 0.0023878086 -0.0002856534
v 0.015083134 0.09384799 0.0061238706
v 0.111027956 0.3031571 0.049233794
v -0.008779243 0.039151788 -0.004569888
v -0.00097175315 0.0022102445 -0.00049055554
v 0.051712036 0.32177615 0.021014452
v 0.08213115 0.5110638 0.033380985
v -0.015667245 0.5182998 -0.012897491
v 0.029625624 0.18434048 0.0120357275
v -0.0028758682 0.095176816 -0.002374351
v -0.0056502447 0.18695045 -0.0046567917
v -0.015956268 0.03624043 -0.007929534
v -0.0013669413 0.0019361097 -0.0006743409
v -0.020709157 0.09234589 -0.010769069
v -0.009863943 0.3263321 -0.008123279
v -0.022435874 0.031745225 -0.010942936
v -0.0017022993 0.0015773196 -0.00082896464
v -0.07100904 0.31662607 -0.036906242
v -0.11278117 0.5028837 -0.05861211
v -0.20496607 0.46548867 -0.101765156
v -0.040679187 0.18138969 -0.021146059
v -0.037637323 0.08547896 -0.018693388
v -0.07393026 0.16790152 -0.036711335
v -0.027934879 0.025862575 -0.0134783685
v -0.0019632243 0.0011496102 -0.00094769336
v -0.05292052 0.07487625 -0.025800943
v -0.12905037 0.29308128 -0.064076185
v -0.032212943 0.018849611 -0.015424997
v -0.0021382626 0.0006716553 -0.0010253154
v -0.18145108 0.25672746 -0.08844566
v -0.28819323 0.4077499 -0.1404705
v -0.35882497 0.33219075 -0.17303681
v -0.10395014 0.14707518 -0.050672412
v -0.06589079 0.061001062 -0.031781137
v -0.12942696 0.11982095 -0.062418938
v -0.035083085 0.011012822 -0.01669781
v -0.0022198 0.00016435003 -0.0010584556
v -0.07598132 0.04445985 -0.03637266
v -0.22592306 0.20915401 -0.10895038
v -0.0364199 0.0026947297 -0.01724112
v -0.0022042394 -0.0003501475 -0.001045648
v -0.26051998 0.15243924 -0.124693155
v -0.41377425 0.24211287 -0.19804049
v -0.45063996 0.14145371 -0.21438885
v -0.14924717 0.08732998 -0.071437836
v -0.082751036 0.025975525 -0.03937471
v -0.16254449 0.051022246 -0.07733464
v -0.03616491 -0.005741149 -0.017031193
v -0.0020922888 -0.00084934663 -0.0009874669
v -0.08590412 0.0063559413 -0.04065621
v -0.28373146 0.089062124 -0.1349864
v -0.034329295 -0.013926104 -0.01607722
v -0.0018888358 -0.0013113916 -0.0008864517
v -0.2945423 0.02179259 -0.1393801
v -0.4678104 0.034612298 -0.22136736
v -0.464535 -0.073741674 -0.21867108
v -0.16873801 0.01248464 -0.079851806
v -0.08530271 -0.01354143 -0.040161103
v -0.16755664 -0.026598632 -0.07887924
v -0.030993313 -0.021502405 -0.014420889
v -0.0016027614 -0.0017161518 -0.00074701314
v -0.08097315 -0.032846987 -0.037910998
v -0.29248047 -0.046429396 -0.13768256
v -0.026302695 -0.028138965 -0.0121345855
v -0.0012465818 -0.0020459034 -0.0005752514
v -0.27763486 -0.11262238 -0.12996727
v -0.44095778 -0.17887306 -0.20641768
v -0.39810872 -0.2761867 -0.18514305
v -0.15905225 -0.064519405 -0.07445946
v -0.07310462 -0.050716877 -0.034004264
v -0.14359665 -0.09962034 -0.06678569
v -0.020462468 -0.033545703 -0.009318233
v -0.000835849 -0.0022862367 -0.0003786655
v -0.062041044 -0.06637031 -0.028611645
v -0.25065684 -0.17389297 -0.11657262
v -0.013727888 -0.037486345 -0.0060949177
v -0.0003885189 -0.0024266522 -0.00016585086
v -0.2127235 -0.22756338 -0.098083064
v -0.33786035 -0.36142945 -0.15577666
v -0.262846 -0.4308765 -0.119602144
v -0.121865034 -0.13036752 -0.05619329
v -0.048265934 -0.07912302 -0.021968827
v -0.09480739 -0.15541685 -0.04314515
v -0.0063932836 -0.039788663 -0.0026055127
v 7.585937E-05 -0.0024609882 5.3893775E-05
v -0.032381326 -0.08841765 -0.01436612
v -0.16549253 -0.27128863 -0.07530677
v 0.0012207981 -0.040351987 0.0009974688
v 0.00053696847 -0.002387805 0.00027095154
v -0.11102915 -0.3031571 -0.049239397
v -0.17634392 -0.4814918 -0.07820046
v -0.08213484 -0.5110638 -0.033380985
v -0.0636062 -0.17367387 -0.028211594
v -0.015081465 -0.09384799 -0.0061357915
v -0.029625028 -0.18434024 -0.012045205
v 0.00878156 -0.039151788 0.0045565665
v 0.00097468775 -0.0022102408 0.00047585554
v 0.0028775632 -0.0951767 0.00236243
v -0.05171317 -0.3217764 -0.021020174
v 0.015958592 -0.03624043 0.007916242
v 0.0013698768 -0.001936106 0.0006596409
v 0.009862751 -0.32633233 0.008117676
v 0.015663847 -0.51829934 0.012897491
v 0.11277783 -0.5028832 0.05861211
v 0.0056508705 -0.18695045 0.004647374
v 0.02071087 -0.092345834 0.010757148
v 0.040679812 -0.18138981 0.021136642
v 0.022438198 -0.031745225 0.010929644
v 0.0017052554 -0.0015773233 0.00081427395
v 0.03763905 -0.0854789 0.018681467
v 0.07100779 -0.3166256 0.03690052
v 0.027937204 -0.02586256 0.013465077
v 0.0019661598 -0.0011496064 0.00093299337
v 0.032215267 -0.018849581 0.015411705
v 0.12904942 -0.29308176 0.0640707
v 0.20496273 -0.46548867 0.101765156
v 0.2881899 -0.4077499 0.14047074
v 0.07393092 -0.1679014 0.036701918
v 0.05292225 -0.07487625 0.025789082
v 0.06589258 -0.061001003 0.031769276
v 0.07598305 -0.04445979 0.03636074
v 0.14924788 -0.087329865 0.0714283
v 0.10395086 -0.14707518 0.050662994
v 0.18145084 -0.2567277 0.08844042
v 0.12942767 -0.11982083 0.06240952
v 0.22592235 -0.20915401 0.10894489
v 0.35882163 -0.33219028 0.17303681
v 0.26051903 -0.15243912 0.12468743
v 0.4137709 -0.24211264 0.19804049
v -0.001966428 -0.0011496069 0.00093299337
v -0.032215536 -0.018849581 0.015411705
v -0.0017055199 -0.0015773233 0.0008142758
v -0.027937531 -0.025862545 0.013465047
v -0.0013701394 -0.001936106 0.0006596409
v -0.065892756 -0.061001062 0.031769276
v -0.075983346 -0.04445979 0.03636074
v -0.14924812 -0.087329865 0.0714283
v -0.022438467 -0.031745225 0.010929644
v -0.0009749541 -0.0022102408 0.00047585554
v -0.052922547 -0.07487625 0.025789082
v -0.015958875 -0.03624043 0.007916242
v -0.0005372348 -0.002387805 0.0002709534
v -0.03763929 -0.0854789 0.018681467
v -0.10395086 -0.14707518 0.050662994
v -0.12942803 -0.11982083 0.06240952
v -0.008781821 -0.039151788 0.0045565665
v -7.6127006E-05 -0.0024609882 5.3892843E-05
v -0.22592211 -0.20915401 0.10894489
v -0.2605195 -0.15243912 0.12468743
v -0.41377234 -0.24211252 0.19804025
v -0.35882115 -0.33219028 0.17303681
v -0.28819013 -0.4077499 0.14047074
v -0.18145132 -0.2567277 0.08844042
v -0.12904978 -0.29308176 0.0640707
v -0.20496297 -0.46548867 0.101765156
v -0.112778306 -0.5028832 0.05861211
v -0.07393116 -0.1679014 0.036701918
v -0.07100797 -0.3166256 0.03690052
v -0.04068011 -0.18138981 0.021136642
v -0.00986293 -0.32633233 0.008117676
v -0.015664294 -0.51829934 0.012897491
v 0.082134604 -0.5110638 -0.033380985
v -0.020711094 -0.092345774 0.010757148
v -0.0028778464 -0.0951767 0.00236243
v -0.005651191 -0.18695045 0.004647374
v 0.05171287 -0.3217764 -0.021020174
v 0.11102891 -0.3031571 -0.049239397
v 0.17634344 -0.4814918 -0.07820046
v 0.26284552 -0.4308765 -0.1196022
v 0.02962476 -0.18434024 -0.012045205
v -0.0012210608 -0.040351987 0.0009974688
v 0.00038825208 -0.0024266522 -0.00016585086
v 0.015081197 -0.09384799 -0.0061357915
v 0.0063930154 -0.039788663 -0.0026055127
v 0.0008355817 -0.0022862386 -0.0003786655
v 0.032381058 -0.08841765 -0.01436609
v 0.013727635 -0.037486345 -0.0060949177
v 0.0012463136 -0.0020459034 -0.0005752514
v 0.063605845 -0.17367387 -0.028211594
v 0.0204622 -0.033545703 -0.009318233
v 0.0016024932 -0.0017161518 -0.00074701326
v 0.1654923 -0.27128863 -0.07530677
v 0.09480715 -0.15541685 -0.04314515
v 0.048265696 -0.07912302 -0.021968827
v 0.21272326 -0.22756338 -0.09808305
v 0.33785987 -0.36142945 -0.15577666
v 0.39810872 -0.2761867 -0.18514311
v 0.026302427 -0.028138965 -0.012134585
v 0.0018885713 -0.0013113916 -0.0008864512
v 0.062040806 -0.06637031 -0.028611641
v 0.121864796 -0.13036752 -0.056193285
v 0.2506566 -0.17389297 -0.11657262
v 0.030992985 -0.021502405 -0.014420897
v 0.0020920224 -0.00084934663 -0.0009874669
v 0.14359641 -0.09962034 -0.06678569
v 0.2776351 -0.11262226 -0.12996721
v 0.44095778 -0.1788733 -0.20641768
v 0.464535 -0.073741674 -0.21867085
v 0.07310426 -0.050716877 -0.03400428
v 0.034328997 -0.013926119 -0.016077228
v 0.0022039674 -0.00035014655 -0.001045648
v 0.08097291 -0.032846987 -0.037910998
v 0.1590519 -0.064519405 -0.07445946
v 0.29247975 -0.046429396 -0.13768256
v 0.03616467 -0.005741149 -0.017031193
v 0.0022195317 0.00016435003 -0.0010584556
v 0.08530241 -0.01354143 -0.040161103
v 0.1675564 -0.026598632 -0.07887918
v 0.29454207 0.02179259 -0.1393801
v 0.4678104 0.034612298 -0.22136736
v 0.45063996 0.14145368 -0.21438861
v 0.0364196 0.0026947297 -0.01724112
v 0.0021379963 0.0006716552 -0.0010253154
v 0.08590382 0.006355956 -0.04065621
v 0.16873765 0.01248464 -0.079851806
v 0.28373098 0.089062124 -0.1349864
v 0.035082817 0.011012826 -0.01669781
v 0.0019629542 0.0011496106 -0.0009476952
v 0.08275074 0.025975525 -0.03937477
v 0.16254425 0.051022246 -0.07733464
v 0.26051974 0.15243924 -0.124693155
v 0.41377473 0.24211287 -0.19804025
v 0.35882545 0.3321905 -0.17303658
v 0.032212645 0.018849611 -0.015425026
v 0.0017020311 0.0015773196 -0.00082896464
v 0.07598108 0.04445985 -0.03637266
v 0.14924693 0.08732998 -0.071437836
v 0.22592282 0.20915389 -0.10895014
v 0.027934581 0.025862575 -0.0134783685
v 0.0013666749 0.0019361097 -0.0006743409
v 0.06589055 0.061001062 -0.031781137
v 0.1294266 0.11982095 -0.062418938
v 0.18145108 0.25672746 -0.08844566
v 0.2881925 0.4077499 -0.1404705
v 0.20496607 0.46548867 -0.101765156
v 0.022435606 0.031745225 -0.010942936
v 0.00097148493 0.0022102445 -0.00049055554
v 0.052920282 0.07487625 -0.025800943
v 0.103949785 0.14707518 -0.050672412
v 0.12905002 0.29308128 -0.064076185
v 0.015955985 0.03624043 -0.007929534
v 0.0005337666 0.0023878086 -0.0002856534
v 0.037637055 0.08547896 -0.018693388
v 0.07392985 0.16790152 -0.036711335
v 0.0710088 0.31662607 -0.036906242
v 0.11278093 0.5028837 -0.05861211
v 0.015666887 0.5182998 -0.012897491
v 0.008778982 0.039151788 -0.0045698583
v 7.2650844E-05 0.0024610143 -6.8590976E-05
v 0.020708874 0.09234589 -0.010769069
v 0.04067886 0.18138969 -0.021146059
v 0.00986369 0.3263321 -0.008123279
v 0.001218209 0.040352017 -0.0010107756
v -0.0003917208 0.002426656 0.00015114993
v 0.0028755963 0.095176816 -0.002374351
v 0.005649999 0.18695045 -0.0046567917
v -0.051712334 0.32177615 0.021014452
v -0.082131326 0.5110638 0.033380985
v -0.17634058 0.4814918 0.07820034
v -0.0063958466 0.039788693 0.002592206
v -0.00083905086 0.0022862405 0.0003639646
v -0.015083402 0.09384799 0.0061238706
v -0.029625893 0.18434048 0.0120357275
v -0.11102831 0.3031571 0.049233794
v -0.013730466 0.037486374 0.006081611
v -0.0012497772 0.0020458847 0.0005605486
v -0.032383263 0.08841765 0.014354199
v -0.06360704 0.17367387 0.028202116
v -0.1654917 0.27128887 0.07530111
v -0.26284242 0.43087697 0.119601965
v -0.33785677 0.36142993 0.15577663
v -0.020465031 0.033545703 0.009304911
v -0.0016059633 0.0017161556 0.00073231285
v -0.04826784 0.07912302 0.02195689
v -0.09480822 0.15541685 0.043135643
v -0.2127223 0.22756362 0.09807733
v -0.026305258 0.028138995 0.012121268
v -0.0018920358 0.0013113953 0.00087175146
v -0.06204301 0.06637037 0.028599717
v -0.12186587 0.13036752 0.05618377
v -0.25065637 0.17389345 0.116567165
v -0.39810538 0.2761867 0.18514293
v -0.44095492 0.17887354 0.20641744
v -0.030995846 0.021502435 0.014407579
v -0.0020954926 0.0008493494 0.00097276643
v -0.07310665 0.050716996 0.033992328
v -0.14359748 0.09962046 0.066776216
v -0.27763414 0.11262238 0.12996203
v -0.03433186 0.0139261335 0.016063899
v -0.0022074394 0.00035015028 0.001030948
v -0.080975056 0.032847047 0.037899047
v -0.15905285 0.064519525 0.074449986
v -0.29248 0.046429276 0.13767695
v -0.46453118 0.07374191 0.21867108
v -0.46780658 -0.03461194 0.22136712
v -0.036167532 0.005741164 0.017017871
v -0.0022230018 -0.00016434677 0.0010437546
v -0.08530462 0.01354146 0.040149182
v -0.16755748 0.026598692 0.0788697
v -0.29454136 -0.021792382 0.1393745
v -0.03642243 -0.0026946962 0.017227799
v -0.0021414664 -0.00067165075 0.0010106154
v -0.08590597 -0.0063558817 0.040644318
v -0.16873872 -0.012484491 0.07984227
v -0.28373027 -0.08906183 0.13498044
v -0.45063567 -0.14145339 0.21438861
v -0.41377234 -0.24211252 0.19804025
v -0.2605195 -0.15243912 0.12468743
v -0.1625452 -0.051022112 0.077325106
v -0.14924812 -0.087329865 0.0714283
v -0.08275294 -0.025975458 0.03936279
v -0.075983346 -0.04445979 0.03636074
v -0.03508565 -0.011012789 0.016684473
v -0.032215536 -0.018849581 0.015411705
v -0.001966428 -0.0011496069 0.00093299337
vt 1 1
vt 1 0.90464365
vt 0.9666667 1
vt 0.9666667 0.90464365
vt 1 0.77633107
vt 0.93333334 1
vt 0.9666667 0.77633107
vt 1 0.5808286
vt 0.93333334 0.90464365
vt 0.9 1
vt 0.9 0.90464365
vt 0.8666667 1
vt 0.9666667 0.5808286
vt 1 0.31742617
vt 0.93333334 0.77633107
vt 0.8666667 0.90464365
vt 0.8333334 1
vt 0.9666667 0.31742617
vt 1 0
vt 0.9666667 0
vt 0.93333334 0
vt 0.93333334 0.5808286
vt 0.9 0.77633107
vt 0.8333334 0.90464365
vt 0.8 1
vt 0.93333334 0.31742617
vt 0.9 0.31742617
vt 0.9 0
vt 0.8666667 0
vt 0.9 0.5808286
vt 0.8666667 0.77633107
vt 0.8666667 0.5808286
vt 0.8 0.90464365
vt 0.76666665 1
vt 0.8333334 0.77633107
vt 0.8666667 0.31742617
vt 0.76666665 0.90464365
vt 0.73333335 1
vt 0.8333334 0.31742617
vt 0.8333334 0
vt 0.8 0
vt 0.8333334 0.5808286
vt 0.8 0.77633107
vt 0.8 0.5808286
vt 0.73333335 0.90464365
vt 0.7 1
vt 0.76666665 0.77633107
vt 0.8 0.31742617
vt 0.7 0.90464365
vt 0.6666667 1
vt 0.76666665 0.31742617
vt 0.76666665 0
vt 0.73333335 0
vt 0.76666665 0.5808286
vt 0.73333335 0.77633107
vt 0.73333335 0.5808286
vt 0.6666667 0.90464365
vt 0.6333333 1
vt 0.7 0.77633107
vt 0.73333335 0.31742617
vt 0.6333333 0.90464365
vt 0.6 1
vt 0.7 0.31742617
vt 0.7 0
vt 0.6666667 0
vt 0.7 0.5808286
vt 0.6666667 0.77633107
vt 0.6666667 0.5808286
vt 0.6 0.90464365
vt 0.56666666 1
vt 0.6333333 0.77633107
vt 0.6666667 0.31742617
vt 0.56666666 0.90464365
vt 0.53333336 1
vt 0.6333333 0.31742617
vt 0.6333333 0
vt 0.6 0
vt 0.6333333 0.5808286
vt 0.6 0.77633107
vt 0.6 0.5808286
vt 0.53333336 0.90464365
vt 0.5 1
vt 0.56666666 0.77633107
vt 0.6 0.31742617
vt 0.5 0.90464365
vt 0.46666667 1
vt 0.56666666 0.31742617
vt 0.56666666 0
vt 0.53333336 0
vt 0.56666666 0.5808286
vt 0.53333336 0.77633107
vt 0.53333336 0.5808286
vt 0.46666667 0.90464365
vt 0.43333334 1
vt 0.5 0.77633107
vt 0.53333336 0.31742617
vt 0.43333334 0.90464365
vt 0.4 1
vt 0.5 0.31742617
vt 0.5 0
vt 0.46666667 0
vt 0.5 0.5808286
vt 0.46666667 0.77633107
vt 0.46666667 0.5808286
vt 0.4 0.90464365
vt 0.36666667 1
vt 0.43333334 0.77633107
vt 0.46666667 0.31742617
vt 0.36666667 0.90464365
vt 0.3333333 1
vt 0.43333334 0.31742617
vt 0.43333334 0
vt 0.4 0
vt 0.43333334 0.5808286
vt 0.4 0.77633107
vt 0.4 0.5808286
vt 0.3333333 0.90464365
vt 0.3 1
vt 0.36666667 0.77633107
vt 0.4 0.31742617
vt 0.3 0.90464365
vt 0.26666665 1
vt 0.36666667 0.31742617
vt 0.36666667 0
vt 0.3333333 0
vt 0.36666667 0.5808286
vt 0.3333333 0.77633107
vt 0.3333333 0.5808286
vt 0.26666665 0.90464365
vt 0.23333332 1
vt 0.3 0.77633107
vt 0.3333333 0.31742617
vt 0.23333332 0.90464365
vt 0.19999999 1
vt 0.3 0.31742617
vt 0.3 0
vt 0.26666665 0
vt 0.3 0.5808286
vt 0.26666665 0.77633107
vt 0.26666665 0.5808286
vt 0.19999999 0.90464365
vt 0.16666666 1
vt 0.23333332 0.77633107
vt 0.26666665 0.31742617
vt 0.16666666 0.90464365
vt 0.13333333 1
vt 0.23333332 0.31742617
vt 0.23333332 0
vt 0.19999999 0
vt 0.23333332 0.5808286
vt 0.19999999 0.77633107
vt 0.19999999 0.5808286
vt 0.13333333 0.90464365
vt 0.099999994 1
vt 0.16666666 0.77633107
vt 0.19999999 0.31742617
vt 0.099999994 0.90464365
vt 0.06666666 1
vt 0.16666666 0.31742617
vt 0.16666666 0
vt 0.13333333 0
vt 0.16666666 0.5808286
vt 0.13333333 0.77633107
vt 0.13333333 0.5808286
vt 0.06666666 0.90464365
vt 0.03333333 1
vt 0.099999994 0.77633107
vt 0.13333333 0.31742617
vt 0.03333333 0.90464365
vt 0 1
vt 0 0.90464365
vt 0.099999994 0.31742617
vt 0.099999994 0
vt 0.06666666 0
vt 0.099999994 0.5808286
vt 0.06666666 0.77633107
vt 0.03333333 0.77633107
vt 0 0.77633107
vt 0 0.5808286
vt 0.06666666 0.5808286
vt 0.06666666 0.31742617
vt 0.03333333 0.5808286
vt 0.03333333 0.31742617
vt 0.03333333 0
vt 0 0.31742617
vt 0 0
vt 0.5 0.5
vt 0.5 0.40464365
vt 0.4666667 0.5
vt 0.4666667 0.40464365
vt 0.4333334 0.5
vt 0.4666667 0.27633107
vt 0.5 0.27633107
vt 0.5 0.08082861
vt 0.4333334 0.40464365
vt 0.39999998 0.5
vt 0.4333334 0.27633107
vt 0.39999998 0.40464365
vt 0.36666667 0.5
vt 0.39999998 0.27633107
vt 0.4333334 0.08082861
vt 0.4666667 0.08082861
vt 0.36666667 0.40464365
vt 0.33333337 0.5
vt 0.4666667 -0.18257383
vt 0.5 -0.18257383
vt 0.5 -0.5
vt 0.4666667 -0.5
vt 0.4333334 -0.5
vt 0.4333334 -0.18257383
vt 0.39999998 -0.18257383
vt 0.39999998 -0.5
vt 0.36666667 -0.5
vt 0.39999998 0.08082861
vt 0.36666667 -0.18257383
vt 0.36666667 0.08082861
vt 0.33333337 -0.18257383
vt 0.33333337 -0.5
vt 0.29999995 -0.5
vt 0.36666667 0.27633107
vt 0.33333337 0.27633107
vt 0.33333337 0.08082861
vt 0.29999995 -0.18257383
vt 0.26666665 -0.18257383
vt 0.26666665 -0.5
vt 0.23333335 -0.5
vt 0.29999995 0.08082861
vt 0.33333337 0.40464365
vt 0.29999995 0.5
vt 0.29999995 0.27633107
vt 0.29999995 0.40464365
vt 0.26666665 0.5
vt 0.26666665 0.27633107
vt 0.26666665 0.40464365
vt 0.23333335 0.5
vt 0.26666665 0.08082861
vt 0.23333335 0.40464365
vt 0.19999999 0.5
vt 0.23333335 -0.18257383
vt 0.23333335 0.08082861
vt 0.23333335 0.27633107
vt 0.19999999 -0.18257383
vt 0.19999999 -0.5
vt 0.16666669 -0.5
vt 0.19999999 0.40464365
vt 0.16666669 0.5
vt 0.19999999 0.27633107
vt 0.19999999 0.08082861
vt 0.16666669 -0.18257383
vt 0.16666669 0.40464365
vt 0.13333333 0.5
vt 0.16666669 0.08082861
vt 0.13333333 -0.18257383
vt 0.13333333 -0.5
vt 0.100000024 -0.5
vt 0.16666669 0.27633107
vt 0.13333333 0.40464365
vt 0.100000024 0.5
vt 0.13333333 0.27633107
vt 0.13333333 0.08082861
vt 0.100000024 -0.18257383
vt 0.100000024 0.40464365
vt 0.0666666 0.5
vt 0.100000024 0.27633107
vt 0.100000024 0.08082861
vt 0.0666666 -0.18257383
vt 0.0666666 -0.5
vt 0.0333333 -0.5
vt 0.0666666 0.40464365
vt 0.0333333 0.5
vt 0.0666666 0.27633107
vt 0.0666666 0.08082861
vt 0.0333333 -0.18257383
vt 0.0333333 0.40464365
vt 0 0.5
vt 0.0333333 0.27633107
vt 0.0333333 0.08082861
vt 0 -0.18257383
vt 0 -0.5
vt -0.03333342 -0.5
vt 0 0.40464365
vt -0.03333342 0.5
vt 0 0.27633107
vt 0 0.08082861
vt -0.03333342 -0.18257383
vt -0.03333342 0.40464365
vt -0.06666672 0.5
vt -0.03333342 0.27633107
vt -0.03333342 0.08082861
vt -0.06666672 -0.18257383
vt -0.06666672 -0.5
vt -0.100000024 -0.5
vt -0.06666672 0.40464365
vt -0.100000024 0.5
vt -0.06666672 0.27633107
vt -0.06666672 0.08082861
vt -0.100000024 -0.18257383
vt -0.100000024 0.40464365
vt -0.13333333 0.5
vt -0.100000024 0.27633107
vt -0.100000024 0.08082861
vt -0.13333333 -0.18257383
vt -0.13333333 -0.5
vt -0.16666675 -0.5
vt -0.13333333 0.40464365
vt -0.16666675 0.5
vt -0.13333333 0.27633107
vt -0.13333333 0.08082861
vt -0.16666675 -0.18257383
vt -0.16666675 0.40464365
vt -0.20000005 0.5
vt -0.16666675 0.27633107
vt -0.16666675 0.08082861
vt -0.20000005 -0.18257383
vt -0.20000005 -0.5
vt -0.23333335 -0.5
vt -0.20000005 0.40464365
vt -0.23333335 0.5
vt -0.20000005 0.27633107
vt -0.20000005 0.08082861
vt -0.23333335 -0.18257383
vt -0.23333335 0.40464365
vt -0.26666665 0.5
vt -0.23333335 0.27633107
vt -0.23333335 0.08082861
vt -0.26666665 -0.18257383
vt -0.26666665 -0.5
vt -0.29999995 -0.5
vt -0.26666665 0.40464365
vt -0.29999995 0.5
vt -0.26666665 0.27633107
vt -0.26666665 0.08082861
vt -0.29999995 -0.18257383
vt -0.29999995 0.40464365
vt -0.33333337 0.5
vt -0.29999995 0.27633107
vt -0.29999995 0.08082861
vt -0.33333337 -0.18257383
vt -0.33333337 -0.5
vt -0.36666667 -0.5
vt -0.33333337 0.40464365
vt -0.36666667 0.5
vt -0.33333337 0.27633107
vt -0.33333337 0.08082861
vt -0.36666667 -0.18257383
vt -0.36666667 0.40464365
vt -0.39999998 0.5
vt -0.36666667 0.27633107
vt -0.36666667 0.08082861
vt -0.39999998 -0.18257383
vt -0.39999998 -0.5
vt -0.4333334 -0.5
vt -0.39999998 0.40464365
vt -0.4333334 0.5
vt -0.39999998 0.27633107
vt -0.39999998 0.08082861
vt -0.4333334 -0.18257383
vt -0.4333334 0.40464365
vt -0.4666667 0.5
vt -0.4333334 0.27633107
vt -0.4333334 0.08082861
vt -0.4666667 -0.18257383
vt -0.4666667 -0.5
vt -0.5 -0.5
vt -0.5 -0.18257383
vt -0.4666667 0.08082861
vt -0.5 0.08082861
vt -0.4666667 0.27633107
vt -0.5 0.27633107
vt -0.4666667 0.40464365
vt -0.5 0.40464365
vt -0.5 0.5
vn 0.42714545 -0.009599763 -0.904132
vn 0.42714274 -0.009596406 -0.90413326
vn 0.4271474 -0.009594651 -0.9041311
vn 0.4271438 -0.009593429 -0.9041328
vn 0.4271415 -0.009595033 -0.9041339
vn 0.42714795 -0.009591255 -0.90413094
vn 0.42714238 -0.009592668 -0.90413356
vn 0.42714176 -0.009595987 -0.90413374
vn 0.42714432 -0.009590034 -0.90413254
vn 0.42714787 -0.009586258 -0.90413094
vn 0.4271444 -0.009586639 -0.90413254
vn 0.42714724 -0.009581909 -0.9041313
vn 0.42714274 -0.009592857 -0.90413326
vn 0.4271423 -0.009595873 -0.90413356
vn 0.42714277 -0.009589959 -0.9041334
vn 0.42714357 -0.0095831305 -0.9041331
vn 0.42714563 -0.009578628 -0.90413207
vn 0.4271433 -0.009592973 -0.9041331
vn 0.42714247 -0.009596328 -0.90413344
vn 0.42714348 -0.009593164 -0.90413296
vn 0.4271441 -0.009589691 -0.90413266
vn 0.4271434 -0.00958973 -0.9041331
vn 0.4271427 -0.009586792 -0.90413344
vn 0.42714223 -0.009580078 -0.90413374
vn 0.42714345 -0.0095751565 -0.90413314
vn 0.427144 -0.009589768 -0.9041328
vn 0.4271438 -0.009586526 -0.90413284
vn 0.42714405 -0.0095864115 -0.9041328
vn 0.42714325 -0.009583321 -0.90413314
vn 0.42714328 -0.0095867915 -0.90413314
vn 0.42714193 -0.009583702 -0.90413374
vn 0.42714268 -0.009583779 -0.90413344
vn 0.42714038 -0.009577522 -0.9041345
vn 0.42714134 -0.009573136 -0.9041342
vn 0.42714083 -0.009580993 -0.90413433
vn 0.42714307 -0.009583321 -0.90413326
vn 0.4271382 -0.009575423 -0.9041356
vn 0.42713752 -0.009570618 -0.904136
vn 0.42714185 -0.009580461 -0.9041339
vn 0.42714196 -0.00958023 -0.90413386
vn 0.42714015 -0.009577599 -0.9041347
vn 0.42714152 -0.009581032 -0.90413404
vn 0.42713916 -0.009578743 -0.9041351
vn 0.42713955 -0.009578323 -0.9041349
vn 0.4271354 -0.009573785 -0.90413696
vn 0.4271333 -0.009568939 -0.904138
vn 0.42713714 -0.009576797 -0.90413606
vn 0.42714006 -0.00957798 -0.9041348
vn 0.42713255 -0.009572984 -0.9041383
vn 0.42713037 -0.009568673 -0.9041395
vn 0.42713776 -0.009575883 -0.9041359
vn 0.42713785 -0.0095755 -0.9041359
vn 0.42713523 -0.009573976 -0.9041371
vn 0.42713743 -0.009576338 -0.904136
vn 0.4271348 -0.0095755 -0.90413725
vn 0.42713505 -0.009574852 -0.90413713
vn 0.42712942 -0.00957264 -0.90413976
vn 0.42712697 -0.0095689 -0.90414095
vn 0.4271321 -0.009574661 -0.9041385
vn 0.4271352 -0.009574395 -0.9041371
vn 0.42712644 -0.009573097 -0.90414125
vn 0.427123 -0.009570389 -0.9041429
vn 0.42713243 -0.009573326 -0.90413845
vn 0.4271325 -0.009573249 -0.9041383
vn 0.42712963 -0.009572982 -0.9041397
vn 0.42713228 -0.009574052 -0.9041385
vn 0.42712978 -0.009574355 -0.9041396
vn 0.42712942 -0.009573746 -0.90413976
vn 0.42712358 -0.009574356 -0.9041426
vn 0.42711875 -0.009572677 -0.9041448
vn 0.42712706 -0.009574816 -0.90414095
vn 0.42712927 -0.009573096 -0.9041399
vn 0.42712092 -0.009575996 -0.90414375
vn 0.42711672 -0.009574777 -0.90414584
vn 0.4271265 -0.009573632 -0.9041411
vn 0.42712656 -0.009573363 -0.9041411
vn 0.4271237 -0.009574546 -0.9041425
vn 0.42712653 -0.009574203 -0.9041411
vn 0.42712393 -0.009576037 -0.90414244
vn 0.42712408 -0.009575348 -0.9041423
vn 0.42711875 -0.009578476 -0.90414476
vn 0.42711478 -0.00957779 -0.90414673
vn 0.42712173 -0.009577369 -0.9041434
vn 0.4271236 -0.009574927 -0.9041425
vn 0.42711705 -0.009581339 -0.90414566
vn 0.42711318 -0.0095812995 -0.9041474
vn 0.42712113 -0.009576569 -0.9041437
vn 0.42712128 -0.009576301 -0.9041437
vn 0.4271189 -0.009578628 -0.90414464
vn 0.42712158 -0.009577027 -0.9041435
vn 0.4271198 -0.009579545 -0.9041443
vn 0.4271195 -0.009579048 -0.90414447
vn 0.42711592 -0.009584237 -0.90414613
vn 0.42711198 -0.009586296 -0.90414786
vn 0.42711842 -0.009581948 -0.90414494
vn 0.4271192 -0.009578706 -0.90414464
vn 0.42711538 -0.009587708 -0.9041463
vn 0.42711166 -0.0095906835 -0.90414804
vn 0.42711756 -0.009581414 -0.90414536
vn 0.42711717 -0.009581185 -0.90414554
vn 0.42711616 -0.009584391 -0.904146
vn 0.427118 -0.009581643 -0.90414506
vn 0.42711747 -0.009584731 -0.90414536
vn 0.42711684 -0.00958477 -0.90414566
vn 0.42711538 -0.009591142 -0.9041463
vn 0.4271118 -0.009593926 -0.90414786
vn 0.42711684 -0.009587745 -0.90414554
vn 0.42711648 -0.009584427 -0.90414584
vn 0.427116 -0.0095939655 -0.904146
vn 0.427114 -0.009598505 -0.9041469
vn 0.42711592 -0.009587517 -0.904146
vn 0.42711547 -0.009587782 -0.9041462
vn 0.4271157 -0.009591065 -0.90414613
vn 0.42711642 -0.009587669 -0.90414584
vn 0.42711705 -0.009590531 -0.90414554
vn 0.42711654 -0.0095906835 -0.9041457
vn 0.42711738 -0.009596864 -0.90414524
vn 0.427116 -0.0096018985 -0.9041459
vn 0.42711768 -0.009593658 -0.9041451
vn 0.42711592 -0.009590913 -0.904146
vn 0.4271193 -0.009599838 -0.9041443
vn 0.4271186 -0.009604492 -0.90414464
vn 0.42711657 -0.009594155 -0.90414566
vn 0.4271165 -0.009594269 -0.9041457
vn 0.4271177 -0.0095970165 -0.90414506
vn 0.42711723 -0.009593965 -0.90414536
vn 0.4271188 -0.009596292 -0.90414464
vn 0.42711836 -0.009596673 -0.9041448
vn 0.42712173 -0.00960209 -0.9041432
vn 0.42712185 -0.009606782 -0.904143
vn 0.4271204 -0.009598733 -0.90414375
vn 0.42711794 -0.009596902 -0.90414506
vn 0.42712423 -0.0096035395 -0.9041419
vn 0.4271254 -0.009608156 -0.90414137
vn 0.4271197 -0.009599496 -0.90414417
vn 0.4271196 -0.009599838 -0.90414417
vn 0.4271219 -0.0096018985 -0.9041431
vn 0.42712015 -0.00959919 -0.904144
vn 0.42712244 -0.009600601 -0.9041428
vn 0.42712227 -0.009601136 -0.9041429
vn 0.4271272 -0.009604494 -0.9041406
vn 0.4271293 -0.0096088415 -0.9041395
vn 0.42712483 -0.009602052 -0.9041416
vn 0.42712197 -0.009601593 -0.904143
vn 0.42713022 -0.009604797 -0.9041391
vn 0.4271339 -0.009608422 -0.9041374
vn 0.4271246 -0.009603196 -0.90414184
vn 0.42712447 -0.009603387 -0.90414184
vn 0.42712733 -0.009604186 -0.9041405
vn 0.42712462 -0.00960247 -0.9041417
vn 0.42712757 -0.00960289 -0.90414035
vn 0.42712748 -0.009603387 -0.9041405
vn 0.42713335 -0.0096043 -0.9041376
vn 0.42713764 -0.009607162 -0.9041356
vn 0.42713034 -0.009603082 -0.9041391
vn 0.42712736 -0.009604034 -0.9041405
vn 0.42713597 -0.009603233 -0.90413636
vn 0.4271405 -0.0096049495 -0.9041342
vn 0.42713028 -0.009604265 -0.9041391
vn 0.42713028 -0.00960434 -0.9041391
vn 0.42713323 -0.009603997 -0.90413773
vn 0.4271304 -0.009603691 -0.9041391
vn 0.42713276 -0.0096025085 -0.9041379
vn 0.42713305 -0.00960331 -0.90413773
vn 0.42713836 -0.009601555 -0.9041353
vn 0.42714322 -0.009602928 -0.90413296
vn 0.42713553 -0.009601479 -0.90413666
vn 0.42713314 -0.009603844 -0.90413773
vn 0.4271409 -0.009599152 -0.90413415
vn 0.42714545 -0.009599763 -0.904132
vn 0.42714274 -0.009596406 -0.90413326
vn 0.42713606 -0.009602699 -0.90413636
vn 0.4271363 -0.009602967 -0.9041363
vn 0.42713863 -0.009601173 -0.9041351
vn 0.42713562 -0.009602241 -0.90413654
vn 0.42713788 -0.009599952 -0.90413547
vn 0.42713976 -0.009597855 -0.9041347
vn 0.4271415 -0.009595033 -0.9041339
vn 0.42714176 -0.009595987 -0.90413374
vn 0.4271383 -0.009600488 -0.9041354
vn 0.42713857 -0.009600945 -0.9041352
vn 0.42714024 -0.009598351 -0.9041345
vn 0.42714062 -0.009598617 -0.9041342
vn 0.42714077 -0.009598961 -0.9041342
vn 0.4271423 -0.009595873 -0.90413356
vn 0.42714247 -0.009596328 -0.90413344
vn -0.42714557 -0.009598121 -0.9041319
vn -0.42714262 -0.009596138 -0.9041334
vn -0.42714453 -0.009599838 -0.90413237
vn -0.42714068 -0.00959938 -0.9041342
vn -0.42714065 -0.009604569 -0.90413415
vn -0.42713964 -0.00959919 -0.9041347
vn -0.42714137 -0.009595834 -0.9041339
vn -0.42714205 -0.009595375 -0.90413356
vn -0.42713794 -0.009602242 -0.90413547
vn -0.4271391 -0.009605332 -0.9041349
vn -0.42713857 -0.009600717 -0.9041352
vn -0.42713577 -0.009603386 -0.9041365
vn -0.4271346 -0.009608385 -0.9041371
vn -0.42713556 -0.009601784 -0.90413654
vn -0.42713693 -0.0096006775 -0.904136
vn -0.42713964 -0.009598617 -0.9041347
vn -0.42713273 -0.009604683 -0.9041379
vn -0.42713213 -0.00960888 -0.90413815
vn -0.42714107 -0.009599151 -0.90413404
vn -0.42714 -0.00959629 -0.9041345
vn -0.42714205 -0.009595756 -0.90413356
vn -0.42714 -0.009601708 -0.9041345
vn -0.4271401 -0.009600793 -0.9041345
vn -0.42713958 -0.009600296 -0.9041347
vn -0.42713526 -0.0096031185 -0.9041368
vn -0.42713693 -0.009603387 -0.904136
vn -0.4271338 -0.009603462 -0.90413743
vn -0.4271369 -0.009601478 -0.904136
vn -0.4271325 -0.009603614 -0.904138
vn -0.42713335 -0.009603462 -0.9041376
vn -0.42713058 -0.009604112 -0.904139
vn -0.42712978 -0.009603539 -0.9041393
vn -0.42712733 -0.009603805 -0.9041405
vn -0.42713314 -0.009602241 -0.90413773
vn -0.42713064 -0.009602738 -0.9041389
vn -0.4271304 -0.009603845 -0.9041391
vn -0.42712778 -0.009604264 -0.9041403
vn -0.42712462 -0.009603119 -0.9041417
vn -0.4271249 -0.009603232 -0.9041416
vn -0.427122 -0.009601518 -0.904143
vn -0.42712724 -0.009603463 -0.9041406
vn -0.42713034 -0.009604759 -0.904139
vn -0.42712748 -0.009608725 -0.90414035
vn -0.4271273 -0.009602738 -0.9041405
vn -0.42712703 -0.00960453 -0.90414065
vn -0.42712423 -0.009608079 -0.9041419
vn -0.42712498 -0.009601898 -0.9041416
vn -0.42712438 -0.0096037295 -0.90414184
vn -0.42712083 -0.009606248 -0.9041436
vn -0.42712498 -0.009602776 -0.9041416
vn -0.4271219 -0.009602205 -0.9041431
vn -0.42711708 -0.009603004 -0.90414536
vn -0.4271219 -0.009601365 -0.9041431
vn -0.42712188 -0.009600831 -0.9041431
vn -0.4271226 -0.009600411 -0.9041428
vn -0.4271197 -0.009599418 -0.90414417
vn -0.42711958 -0.009599151 -0.90414417
vn -0.42711756 -0.009595565 -0.9041451
vn -0.42712012 -0.009600981 -0.90414387
vn -0.42711616 -0.009601897 -0.9041457
vn -0.42712077 -0.009599419 -0.9041437
vn -0.4271198 -0.00959896 -0.90414405
vn -0.42711717 -0.009595414 -0.9041454
vn -0.42711797 -0.009597779 -0.90414494
vn -0.427114 -0.009597969 -0.9041469
vn -0.42711794 -0.009597054 -0.90414506
vn -0.42711586 -0.009595528 -0.904146
vn -0.42711675 -0.009593278 -0.90414566
vn -0.42711568 -0.009591561 -0.90414613
vn -0.42711845 -0.009596215 -0.90414476
vn -0.42711586 -0.009592782 -0.904146
vn -0.42711172 -0.009590606 -0.904148
vn -0.42711723 -0.009593353 -0.90414536
vn -0.42711717 -0.009595032 -0.90414536
vn -0.42711535 -0.009592858 -0.9041463
vn -0.42711535 -0.009589614 -0.9041463
vn -0.42711174 -0.009587822 -0.904148
vn -0.42711684 -0.009591826 -0.90414554
vn -0.42711678 -0.00958931 -0.90414566
vn -0.42711505 -0.0095867915 -0.90414643
vn -0.4271153 -0.009586679 -0.90414643
vn -0.4271149 -0.009582786 -0.9041465
vn -0.4271154 -0.009588546 -0.9041463
vn -0.42711222 -0.009584847 -0.90414786
vn -0.42711693 -0.009587707 -0.90414554
vn -0.4271163 -0.009588051 -0.90414584
vn -0.42711517 -0.009584884 -0.90414643
vn -0.42711583 -0.009584275 -0.90414613
vn -0.4271133 -0.009580842 -0.9041474
vn -0.42711774 -0.009583398 -0.90414524
vn -0.42711723 -0.0095843505 -0.9041454
vn -0.42711705 -0.00957985 -0.90414566
vn -0.42711517 -0.009579888 -0.90414643
vn -0.4271168 -0.009579659 -0.9041457
vn -0.42711657 -0.009581757 -0.90414584
vn -0.42711556 -0.009576799 -0.90414643
vn -0.4271182 -0.00958187 -0.90414506
vn -0.4271181 -0.009581833 -0.90414506
vn -0.42711902 -0.00957714 -0.90414464
vn -0.42711917 -0.009578323 -0.90414464
vn -0.42711896 -0.009573366 -0.90414476
vn -0.4271194 -0.009580193 -0.9041446
vn -0.42711854 -0.009579545 -0.90414494
vn -0.42711982 -0.009577102 -0.9041443
vn -0.42712104 -0.009578132 -0.9041437
vn -0.4271244 -0.0095743565 -0.9041422
vn -0.42712134 -0.009575616 -0.9041437
vn -0.42712143 -0.009571267 -0.9041436
vn -0.42712218 -0.009577752 -0.9041432
vn -0.42712113 -0.009577293 -0.9041437
vn -0.42712292 -0.009574395 -0.9041429
vn -0.4271237 -0.009574242 -0.9041425
vn -0.42712575 -0.009568903 -0.90414155
vn -0.42712423 -0.009576302 -0.9041422
vn -0.4271248 -0.009575195 -0.904142
vn -0.42712662 -0.009573212 -0.9041411
vn -0.42712578 -0.00957344 -0.90414155
vn -0.4271294 -0.009572983 -0.9041399
vn -0.42712682 -0.009573022 -0.90414107
vn -0.42712724 -0.0095689 -0.90414083
vn -0.42712706 -0.009574967 -0.90414095
vn -0.4271272 -0.009574089 -0.90414083
vn -0.4271294 -0.009573365 -0.9041399
vn -0.4271292 -0.009572677 -0.9041399
vn -0.4271317 -0.009568557 -0.9041388
vn -0.42712978 -0.009574317 -0.9041396
vn -0.42712975 -0.0095737465 -0.9041396
vn -0.4271321 -0.009573287 -0.9041386
vn -0.42713213 -0.009572792 -0.9041385
vn -0.42713472 -0.009574051 -0.90413725
vn -0.42713252 -0.009572754 -0.9041383
vn -0.4271358 -0.009569511 -0.9041368
vn -0.42713228 -0.009574586 -0.9041385
vn -0.42713198 -0.009574014 -0.9041386
vn -0.4271353 -0.009574663 -0.9041371
vn -0.42713502 -0.009573593 -0.90413713
vn -0.42713994 -0.009571725 -0.9041349
vn -0.42713466 -0.009575387 -0.9041374
vn -0.42713502 -0.0095749665 -0.90413713
vn -0.4271382 -0.009576225 -0.9041356
vn -0.42713833 -0.009576264 -0.9041356
vn -0.42714065 -0.00957779 -0.9041345
vn -0.42713815 -0.009575655 -0.9041357
vn -0.42714292 -0.009574661 -0.90413344
vn -0.4271365 -0.009576338 -0.90413636
vn -0.42713746 -0.009576149 -0.904136
vn -0.42714003 -0.009577447 -0.9041348
vn -0.42714033 -0.0095784385 -0.90413463
vn -0.42714533 -0.009577485 -0.9041323
vn -0.427138 -0.00957737 -0.90413576
vn -0.4271398 -0.009578324 -0.9041349
vn -0.42714173 -0.0095814895 -0.9041339
vn -0.4271418 -0.009578476 -0.9041339
vn -0.42714417 -0.009584502 -0.9041328
vn -0.42714217 -0.009581223 -0.90413374
vn -0.42714658 -0.009580269 -0.9041317
vn -0.42714122 -0.00958168 -0.90413415
vn -0.4271426 -0.009582292 -0.90413356
vn -0.4271414 -0.009582825 -0.90413404
vn -0.4271432 -0.009581451 -0.90413314
vn -0.42714706 -0.009583169 -0.9041313
vn -0.42714307 -0.009585421 -0.90413326
vn -0.42714277 -0.009582214 -0.90413344
vn -0.4271436 -0.009585838 -0.90413296
vn -0.42714748 -0.00958748 -0.90413123
vn -0.427146 -0.00958992 -0.90413177
vn -0.4271442 -0.0095866015 -0.90413266
vn -0.42714775 -0.009590302 -0.90413094
vn -0.42714292 -0.009586678 -0.9041334
vn -0.42714256 -0.009585992 -0.90413356
vn -0.42714393 -0.009591408 -0.9041328
vn -0.42714462 -0.009591257 -0.9041325
vn -0.42714772 -0.009592056 -0.90413094
vn -0.42714277 -0.00958973 -0.9041334
vn -0.42714313 -0.009590378 -0.90413314
vn -0.42714366 -0.009592017 -0.90413284
vn -0.42714667 -0.00959053 -0.9041315
vn -0.42714205 -0.009595756 -0.90413356
vn -0.42714 -0.00959629 -0.9041345
vn -0.42714286 -0.009592781 -0.90413326
vn -0.42714205 -0.009595375 -0.90413356
vn -0.42714292 -0.009591714 -0.90413326
vn -0.42714137 -0.009595834 -0.9041339
vn -0.427144 -0.009592399 -0.90413266
vn -0.42714262 -0.009596138 -0.9041334
vn -0.42714557 -0.009598121 -0.9041319
g fbx_ef_XCircle1_0
f 3/3/3 2/2/2 1/1/1
f 2/2/2 3/3/3 4/4/4
f 5/5/5 2/2/2 4/4/4
f 6/6/6 4/4/4 3/3/3
f 5/5/5 4/4/4 7/7/7
f 8/8/8 5/5/5 7/7/7
f 4/4/4 6/6/6 9/9/9
f 7/7/7 4/4/4 9/9/9
f 10/10/10 9/9/9 6/6/6
f 9/9/9 10/10/10 11/11/11
f 12/12/12 11/11/11 10/10/10
f 8/8/8 7/7/7 13/13/13
f 14/14/14 8/8/8 13/13/13
f 7/7/7 9/9/9 15/15/15
f 15/15/15 9/9/9 11/11/11
f 11/11/11 12/12/12 16/16/16
f 17/17/17 16/16/16 12/12/12
f 14/14/14 13/13/13 18/18/18
f 19/19/19 14/14/14 18/18/18
f 19/19/19 18/18/18 20/20/20
f 20/20/20 18/18/18 21/21/21
f 13/13/13 7/7/7 22/22/22
f 7/7/7 15/15/15 22/22/22
f 18/18/18 13/13/13 22/22/22
f 15/15/15 11/11/11 23/23/23
f 23/23/23 11/11/11 16/16/16
f 22/22/22 15/15/15 23/23/23
f 16/16/16 17/17/17 24/24/24
f 25/25/25 24/24/24 17/17/17
f 18/18/18 26/26/26 21/21/21
f 18/18/18 22/22/22 26/26/26
f 21/21/21 26/26/26 27/27/27
f 21/21/21 27/27/27 28/28/28
f 28/28/28 27/27/27 29/29/29
f 26/26/26 22/22/22 30/30/30
f 22/22/22 23/23/23 30/30/30
f 26/26/26 30/30/30 27/27/27
f 23/23/23 16/16/16 31/31/31
f 31/31/31 16/16/16 24/24/24
f 30/30/30 23/23/23 32/32/32
f 27/27/27 30/30/30 32/32/32
f 23/23/23 31/31/31 32/32/32
f 24/24/24 25/25/25 33/33/33
f 34/34/34 33/33/33 25/25/25
f 31/31/31 24/24/24 35/35/35
f 32/32/32 31/31/31 35/35/35
f 35/35/35 24/24/24 33/33/33
f 27/27/27 36/36/36 29/29/29
f 27/27/27 32/32/32 36/36/36
f 33/33/33 34/34/34 37/37/37
f 38/38/38 37/37/37 34/34/34
f 29/29/29 36/36/36 39/39/39
f 29/29/29 39/39/39 40/40/40
f 40/40/40 39/39/39 41/41/41
f 36/36/36 32/32/32 42/42/42
f 32/32/32 35/35/35 42/42/42
f 36/36/36 42/42/42 39/39/39
f 35/35/35 33/33/33 43/43/43
f 43/43/43 33/33/33 37/37/37
f 42/42/42 35/35/35 44/44/44
f 39/39/39 42/42/42 44/44/44
f 35/35/35 43/43/43 44/44/44
f 37/37/37 38/38/38 45/45/45
f 46/46/46 45/45/45 38/38/38
f 43/43/43 37/37/37 47/47/47
f 44/44/44 43/43/43 47/47/47
f 47/47/47 37/37/37 45/45/45
f 39/39/39 48/48/48 41/41/41
f 39/39/39 44/44/44 48/48/48
f 45/45/45 46/46/46 49/49/49
f 50/50/50 49/49/49 46/46/46
f 41/41/41 48/48/48 51/51/51
f 41/41/41 51/51/51 52/52/52
f 52/52/52 51/51/51 53/53/53
f 48/48/48 44/44/44 54/54/54
f 44/44/44 47/47/47 54/54/54
f 48/48/48 54/54/54 51/51/51
f 47/47/47 45/45/45 55/55/55
f 55/55/55 45/45/45 49/49/49
f 54/54/54 47/47/47 56/56/56
f 51/51/51 54/54/54 56/56/56
f 47/47/47 55/55/55 56/56/56
f 49/49/49 50/50/50 57/57/57
f 58/58/58 57/57/57 50/50/50
f 55/55/55 49/49/49 59/59/59
f 56/56/56 55/55/55 59/59/59
f 59/59/59 49/49/49 57/57/57
f 51/51/51 60/60/60 53/53/53
f 51/51/51 56/56/56 60/60/60
f 57/57/57 58/58/58 61/61/61
f 62/62/62 61/61/61 58/58/58
f 53/53/53 60/60/60 63/63/63
f 53/53/53 63/63/63 64/64/64
f 64/64/64 63/63/63 65/65/65
f 60/60/60 56/56/56 66/66/66
f 56/56/56 59/59/59 66/66/66
f 60/60/60 66/66/66 63/63/63
f 59/59/59 57/57/57 67/67/67
f 67/67/67 57/57/57 61/61/61
f 66/66/66 59/59/59 68/68/68
f 63/63/63 66/66/66 68/68/68
f 59/59/59 67/67/67 68/68/68
f 61/61/61 62/62/62 69/69/69
f 70/70/70 69/69/69 62/62/62
f 67/67/67 61/61/61 71/71/71
f 68/68/68 67/67/67 71/71/71
f 71/71/71 61/61/61 69/69/69
f 63/63/63 72/72/72 65/65/65
f 63/63/63 68/68/68 72/72/72
f 69/69/69 70/70/70 73/73/73
f 74/74/74 73/73/73 70/70/70
f 65/65/65 72/72/72 75/75/75
f 65/65/65 75/75/75 76/76/76
f 76/76/76 75/75/75 77/77/77
f 72/72/72 68/68/68 78/78/78
f 68/68/68 71/71/71 78/78/78
f 72/72/72 78/78/78 75/75/75
f 71/71/71 69/69/69 79/79/79
f 79/79/79 69/69/69 73/73/73
f 78/78/78 71/71/71 80/80/80
f 75/75/75 78/78/78 80/80/80
f 71/71/71 79/79/79 80/80/80
f 73/73/73 74/74/74 81/81/81
f 82/82/82 81/81/81 74/74/74
f 79/79/79 73/73/73 83/83/83
f 80/80/80 79/79/79 83/83/83
f 83/83/83 73/73/73 81/81/81
f 75/75/75 84/84/84 77/77/77
f 75/75/75 80/80/80 84/84/84
f 81/81/81 82/82/82 85/85/85
f 86/86/86 85/85/85 82/82/82
f 77/77/77 84/84/84 87/87/87
f 77/77/77 87/87/87 88/88/88
f 88/88/88 87/87/87 89/89/89
f 84/84/84 80/80/80 90/90/90
f 80/80/80 83/83/83 90/90/90
f 84/84/84 90/90/90 87/87/87
f 83/83/83 81/81/81 91/91/91
f 91/91/91 81/81/81 85/85/85
f 90/90/90 83/83/83 92/92/92
f 87/87/87 90/90/90 92/92/92
f 83/83/83 91/91/91 92/92/92
f 85/85/85 86/86/86 93/93/93
f 94/94/94 93/93/93 86/86/86
f 91/91/91 85/85/85 95/95/95
f 92/92/92 91/91/91 95/95/95
f 95/95/95 85/85/85 93/93/93
f 87/87/87 96/96/96 89/89/89
f 87/87/87 92/92/92 96/96/96
f 93/93/93 94/94/94 97/97/97
f 98/98/98 97/97/97 94/94/94
f 89/89/89 96/96/96 99/99/99
f 89/89/89 99/99/99 100/100/100
f 100/100/100 99/99/99 101/101/101
f 96/96/96 92/92/92 102/102/102
f 92/92/92 95/95/95 102/102/102
f 96/96/96 102/102/102 99/99/99
f 95/95/95 93/93/93 103/103/103
f 103/103/103 93/93/93 97/97/97
f 102/102/102 95/95/95 104/104/104
f 99/99/99 102/102/102 104/104/104
f 95/95/95 103/103/103 104/104/104
f 97/97/97 98/98/98 105/105/105
f 106/106/106 105/105/105 98/98/98
f 103/103/103 97/97/97 107/107/107
f 104/104/104 103/103/103 107/107/107
f 107/107/107 97/97/97 105/105/105
f 99/99/99 108/108/108 101/101/101
f 99/99/99 104/104/104 108/108/108
f 105/105/105 106/106/106 109/109/109
f 110/110/110 109/109/109 106/106/106
f 101/101/101 108/108/108 111/111/111
f 101/101/101 111/111/111 112/112/112
f 112/112/112 111/111/111 113/113/113
f 108/108/108 104/104/104 114/114/114
f 104/104/104 107/107/107 114/114/114
f 108/108/108 114/114/114 111/111/111
f 107/107/107 105/105/105 115/115/115
f 115/115/115 105/105/105 109/109/109
f 114/114/114 107/107/107 116/116/116
f 111/111/111 114/114/114 116/116/116
f 107/107/107 115/115/115 116/116/116
f 109/109/109 110/110/110 117/117/117
f 118/118/118 117/117/117 110/110/110
f 115/115/115 109/109/109 119/119/119
f 116/116/116 115/115/115 119/119/119
f 119/119/119 109/109/109 117/117/117
f 111/111/111 120/120/120 113/113/113
f 111/111/111 116/116/116 120/120/120
f 117/117/117 118/118/118 121/121/121
f 122/122/122 121/121/121 118/118/118
f 113/113/113 120/120/120 123/123/123
f 113/113/113 123/123/123 124/124/124
f 124/124/124 123/123/123 125/125/125
f 120/120/120 116/116/116 126/126/126
f 116/116/116 119/119/119 126/126/126
f 120/120/120 126/126/126 123/123/123
f 119/119/119 117/117/117 127/127/127
f 127/127/127 117/117/117 121/121/121
f 126/126/126 119/119/119 128/128/128
f 123/123/123 126/126/126 128/128/128
f 119/119/119 127/127/127 128/128/128
f 121/121/121 122/122/122 129/129/129
f 130/130/130 129/129/129 122/122/122
f 127/127/127 121/121/121 131/131/131
f 131/131/131 128/128/128 127/127/127
f 131/131/131 121/121/121 129/129/129
f 123/123/123 132/132/132 125/125/125
f 123/123/123 128/128/128 132/132/132
f 129/129/129 130/130/130 133/133/133
f 134/134/134 133/133/133 130/130/130
f 125/125/125 132/132/132 135/135/135
f 125/125/125 135/135/135 136/136/136
f 136/136/136 135/135/135 137/137/137
f 132/132/132 128/128/128 138/138/138
f 131/131/131 138/138/138 128/128/128
f 132/132/132 138/138/138 135/135/135
f 131/131/131 129/129/129 139/139/139
f 139/139/139 129/129/129 133/133/133
f 131/131/131 140/140/140 138/138/138
f 135/135/135 138/138/138 140/140/140
f 131/131/131 139/139/139 140/140/140
f 133/133/133 134/134/134 141/141/141
f 142/142/142 141/141/141 134/134/134
f 139/139/139 133/133/133 143/143/143
f 143/143/143 140/140/140 139/139/139
f 143/143/143 133/133/133 141/141/141
f 135/135/135 144/144/144 137/137/137
f 135/135/135 140/140/140 144/144/144
f 141/141/141 142/142/142 145/145/145
f 146/146/146 145/145/145 142/142/142
f 137/137/137 144/144/144 147/147/147
f 137/137/137 147/147/147 148/148/148
f 148/148/148 147/147/147 149/149/149
f 144/144/144 140/140/140 150/150/150
f 143/143/143 150/150/150 140/140/140
f 144/144/144 150/150/150 147/147/147
f 143/143/143 141/141/141 151/151/151
f 151/151/151 141/141/141 145/145/145
f 150/150/150 143/143/143 152/152/152
f 147/147/147 150/150/150 152/152/152
f 143/143/143 151/151/151 152/152/152
f 145/145/145 146/146/146 153/153/153
f 154/154/154 153/153/153 146/146/146
f 151/151/151 145/145/145 155/155/155
f 155/155/155 152/152/152 151/151/151
f 155/155/155 145/145/145 153/153/153
f 147/147/147 156/156/156 149/149/149
f 147/147/147 152/152/152 156/156/156
f 153/153/153 154/154/154 157/157/157
f 158/158/158 157/157/157 154/154/154
f 149/149/149 156/156/156 159/159/159
f 149/149/149 159/159/159 160/160/160
f 160/160/160 159/159/159 161/161/161
f 156/156/156 152/152/152 162/162/162
f 155/155/155 162/162/162 152/152/152
f 156/156/156 162/162/162 159/159/159
f 155/155/155 153/153/153 163/163/163
f 163/163/163 153/153/153 157/157/157
f 162/162/162 155/155/155 164/164/164
f 159/159/159 162/162/162 164/164/164
f 155/155/155 163/163/163 164/164/164
f 157/157/157 158/158/158 165/165/165
f 166/166/166 165/165/165 158/158/158
f 163/163/163 157/157/157 167/167/167
f 167/167/167 164/164/164 163/163/163
f 167/167/167 157/157/157 165/165/165
f 159/159/159 168/168/168 161/161/161
f 159/159/159 164/164/164 168/168/168
f 165/165/165 166/166/166 169/169/169
f 170/170/170 169/169/169 166/166/166
f 169/169/169 170/170/170 171/171/171
f 161/161/161 168/168/168 172/172/172
f 161/161/161 172/172/172 173/173/173
f 173/173/173 172/172/172 174/174/174
f 168/168/168 164/164/164 175/175/175
f 167/167/167 175/175/175 164/164/164
f 168/168/168 175/175/175 172/172/172
f 167/167/167 165/165/165 176/176/176
f 176/176/176 165/165/165 169/169/169
f 177/177/177 169/169/169 171/171/171
f 176/176/176 169/169/169 177/177/177
f 177/177/177 171/171/171 178/178/178
f 177/177/177 178/178/178 179/179/179
f 167/167/167 180/180/180 175/175/175
f 167/167/167 176/176/176 180/180/180
f 172/172/172 175/175/175 180/180/180
f 177/177/177 180/180/180 176/176/176
f 172/172/172 181/181/181 174/174/174
f 172/172/172 180/180/180 181/181/181
f 177/177/177 182/182/182 180/180/180
f 182/182/182 177/177/177 179/179/179
f 181/181/181 180/180/180 182/182/182
f 174/174/174 181/181/181 183/183/183
f 181/181/181 182/182/182 183/183/183
f 183/183/183 182/182/182 179/179/179
f 174/174/174 183/183/183 184/184/184
f 183/183/183 179/179/179 185/185/185
f 184/184/184 183/183/183 186/186/186
f 183/183/183 185/185/185 186/186/186
f 189/189/189 188/188/188 187/187/187
f 189/189/189 190/190/190 188/188/188
f 191/191/191 190/190/190 189/189/189
f 188/188/188 190/190/190 192/192/192
f 188/188/188 192/192/192 193/193/193
f 193/193/193 192/192/192 194/194/194
f 191/191/191 195/195/195 190/190/190
f 196/196/196 195/195/195 191/191/191
f 190/190/190 197/197/197 192/192/192
f 190/190/190 195/195/195 197/197/197
f 196/196/196 198/198/198 195/195/195
f 199/199/199 198/198/198 196/196/196
f 195/195/195 200/200/200 197/197/197
f 195/195/195 198/198/198 200/200/200
f 201/201/201 192/192/192 197/197/197
f 197/197/197 200/200/200 201/201/201
f 192/192/192 202/202/202 194/194/194
f 202/202/202 192/192/192 201/201/201
f 199/199/199 203/203/203 198/198/198
f 204/204/204 203/203/203 199/199/199
f 194/194/194 202/202/202 205/205/205
f 194/194/194 205/205/205 206/206/206
f 206/206/206 205/205/205 207/207/207
f 205/205/205 208/208/208 207/207/207
f 205/205/205 209/209/209 208/208/208
f 202/202/202 210/210/210 205/205/205
f 205/205/205 210/210/210 209/209/209
f 202/202/202 201/201/201 210/210/210
f 210/210/210 211/211/211 209/209/209
f 201/201/201 211/211/211 210/210/210
f 211/211/211 212/212/212 209/209/209
f 211/211/211 213/213/213 212/212/212
f 201/201/201 214/214/214 211/211/211
f 201/201/201 200/200/200 214/214/214
f 211/211/211 215/215/215 213/213/213
f 214/214/214 215/215/215 211/211/211
f 214/214/214 200/200/200 216/216/216
f 214/214/214 216/216/216 215/215/215
f 215/215/215 217/217/217 213/213/213
f 216/216/216 217/217/217 215/215/215
f 217/217/217 218/218/218 213/213/213
f 217/217/217 219/219/219 218/218/218
f 216/216/216 200/200/200 220/220/220
f 198/198/198 220/220/220 200/200/200
f 198/198/198 203/203/203 220/220/220
f 220/220/220 221/221/221 216/216/216
f 203/203/203 221/221/221 220/220/220
f 216/216/216 222/222/222 217/217/217
f 221/221/221 222/222/222 216/216/216
f 217/217/217 223/223/223 219/219/219
f 222/222/222 223/223/223 217/217/217
f 223/223/223 224/224/224 219/219/219
f 224/224/224 225/225/225 219/219/219
f 224/224/224 226/226/226 225/225/225
f 222/222/222 227/227/227 223/223/223
f 222/222/222 221/221/221 227/227/227
f 227/227/227 224/224/224 223/223/223
f 203/203/203 228/228/228 221/221/221
f 204/204/204 228/228/228 203/203/203
f 229/229/229 228/228/228 204/204/204
f 228/228/228 230/230/230 221/221/221
f 227/227/227 221/221/221 230/230/230
f 229/229/229 231/231/231 228/228/228
f 228/228/228 231/231/231 230/230/230
f 232/232/232 231/231/231 229/229/229
f 230/230/230 233/233/233 227/227/227
f 231/231/231 233/233/233 230/230/230
f 232/232/232 234/234/234 231/231/231
f 231/231/231 234/234/234 233/233/233
f 235/235/235 234/234/234 232/232/232
f 227/227/227 236/236/236 224/224/224
f 233/233/233 236/236/236 227/227/227
f 235/235/235 237/237/237 234/234/234
f 238/238/238 237/237/237 235/235/235
f 236/236/236 239/239/239 224/224/224
f 224/224/224 239/239/239 226/226/226
f 236/236/236 233/233/233 240/240/240
f 236/236/236 240/240/240 239/239/239
f 234/234/234 241/241/241 233/233/233
f 234/234/234 237/237/237 241/241/241
f 240/240/240 233/233/233 241/241/241
f 239/239/239 242/242/242 226/226/226
f 240/240/240 242/242/242 239/239/239
f 242/242/242 243/243/243 226/226/226
f 242/242/242 244/244/244 243/243/243
f 238/238/238 245/245/245 237/237/237
f 246/246/246 245/245/245 238/238/238
f 237/237/237 247/247/247 241/241/241
f 240/240/240 241/241/241 247/247/247
f 237/237/237 245/245/245 247/247/247
f 240/240/240 248/248/248 242/242/242
f 240/240/240 247/247/247 248/248/248
f 242/242/242 249/249/249 244/244/244
f 248/248/248 249/249/249 242/242/242
f 246/246/246 250/250/250 245/245/245
f 251/251/251 250/250/250 246/246/246
f 252/252/252 248/248/248 247/247/247
f 248/248/248 252/252/252 249/249/249
f 249/249/249 253/253/253 244/244/244
f 252/252/252 253/253/253 249/249/249
f 253/253/253 254/254/254 244/244/244
f 253/253/253 255/255/255 254/254/254
f 245/245/245 256/256/256 247/247/247
f 245/245/245 250/250/250 256/256/256
f 252/252/252 247/247/247 256/256/256
f 251/251/251 257/257/257 250/250/250
f 258/258/258 257/257/257 251/251/251
f 250/250/250 259/259/259 256/256/256
f 256/256/256 259/259/259 252/252/252
f 250/250/250 257/257/257 259/259/259
f 252/252/252 260/260/260 253/253/253
f 259/259/259 260/260/260 252/252/252
f 253/253/253 261/261/261 255/255/255
f 260/260/260 261/261/261 253/253/253
f 258/258/258 262/262/262 257/257/257
f 263/263/263 262/262/262 258/258/258
f 257/257/257 264/264/264 259/259/259
f 257/257/257 262/262/262 264/264/264
f 259/259/259 265/265/265 260/260/260
f 260/260/260 265/265/265 261/261/261
f 264/264/264 265/265/265 259/259/259
f 261/261/261 266/266/266 255/255/255
f 265/265/265 266/266/266 261/261/261
f 266/266/266 267/267/267 255/255/255
f 266/266/266 268/268/268 267/267/267
f 263/263/263 269/269/269 262/262/262
f 270/270/270 269/269/269 263/263/263
f 262/262/262 271/271/271 264/264/264
f 264/264/264 271/271/271 265/265/265
f 262/262/262 269/269/269 271/271/271
f 265/265/265 272/272/272 266/266/266
f 271/271/271 272/272/272 265/265/265
f 266/266/266 273/273/273 268/268/268
f 272/272/272 273/273/273 266/266/266
f 270/270/270 274/274/274 269/269/269
f 275/275/275 274/274/274 270/270/270
f 269/269/269 276/276/276 271/271/271
f 269/269/269 274/274/274 276/276/276
f 271/271/271 277/277/277 272/272/272
f 272/272/272 277/277/277 273/273/273
f 276/276/276 277/277/277 271/271/271
f 273/273/273 278/278/278 268/268/268
f 277/277/277 278/278/278 273/273/273
f 278/278/278 279/279/279 268/268/268
f 278/278/278 280/280/280 279/279/279
f 275/275/275 281/281/281 274/274/274
f 282/282/282 281/281/281 275/275/275
f 274/274/274 283/283/283 276/276/276
f 276/276/276 283/283/283 277/277/277
f 274/274/274 281/281/281 283/283/283
f 277/277/277 284/284/284 278/278/278
f 283/283/283 284/284/284 277/277/277
f 278/278/278 285/285/285 280/280/280
f 284/284/284 285/285/285 278/278/278
f 282/282/282 286/286/286 281/281/281
f 287/287/287 286/286/286 282/282/282
f 281/281/281 288/288/288 283/283/283
f 281/281/281 286/286/286 288/288/288
f 283/283/283 289/289/289 284/284/284
f 284/284/284 289/289/289 285/285/285
f 288/288/288 289/289/289 283/283/283
f 285/285/285 290/290/290 280/280/280
f 289/289/289 290/290/290 285/285/285
f 290/290/290 291/291/291 280/280/280
f 290/290/290 292/292/292 291/291/291
f 287/287/287 293/293/293 286/286/286
f 294/294/294 293/293/293 287/287/287
f 286/286/286 295/295/295 288/288/288
f 288/288/288 295/295/295 289/289/289
f 286/286/286 293/293/293 295/295/295
f 289/289/289 296/296/296 290/290/290
f 295/295/295 296/296/296 289/289/289
f 290/290/290 297/297/297 292/292/292
f 296/296/296 297/297/297 290/290/290
f 294/294/294 298/298/298 293/293/293
f 299/299/299 298/298/298 294/294/294
f 293/293/293 300/300/300 295/295/295
f 293/293/293 298/298/298 300/300/300
f 295/295/295 301/301/301 296/296/296
f 296/296/296 301/301/301 297/297/297
f 300/300/300 301/301/301 295/295/295
f 297/297/297 302/302/302 292/292/292
f 301/301/301 302/302/302 297/297/297
f 302/302/302 303/303/303 292/292/292
f 302/302/302 304/304/304 303/303/303
f 299/299/299 305/305/305 298/298/298
f 306/306/306 305/305/305 299/299/299
f 298/298/298 307/307/307 300/300/300
f 300/300/300 307/307/307 301/301/301
f 298/298/298 305/305/305 307/307/307
f 301/301/301 308/308/308 302/302/302
f 307/307/307 308/308/308 301/301/301
f 302/302/302 309/309/309 304/304/304
f 308/308/308 309/309/309 302/302/302
f 306/306/306 310/310/310 305/305/305
f 311/311/311 310/310/310 306/306/306
f 305/305/305 312/312/312 307/307/307
f 305/305/305 310/310/310 312/312/312
f 307/307/307 313/313/313 308/308/308
f 308/308/308 313/313/313 309/309/309
f 312/312/312 313/313/313 307/307/307
f 309/309/309 314/314/314 304/304/304
f 313/313/313 314/314/314 309/309/309
f 314/314/314 315/315/315 304/304/304
f 314/314/314 316/316/316 315/315/315
f 311/311/311 317/317/317 310/310/310
f 318/318/318 317/317/317 311/311/311
f 310/310/310 319/319/319 312/312/312
f 312/312/312 319/319/319 313/313/313
f 310/310/310 317/317/317 319/319/319
f 313/313/313 320/320/320 314/314/314
f 319/319/319 320/320/320 313/313/313
f 314/314/314 321/321/321 316/316/316
f 320/320/320 321/321/321 314/314/314
f 318/318/318 322/322/322 317/317/317
f 323/323/323 322/322/322 318/318/318
f 317/317/317 324/324/324 319/319/319
f 317/317/317 322/322/322 324/324/324
f 319/319/319 325/325/325 320/320/320
f 320/320/320 325/325/325 321/321/321
f 324/324/324 325/325/325 319/319/319
f 321/321/321 326/326/326 316/316/316
f 325/325/325 326/326/326 321/321/321
f 326/326/326 327/327/327 316/316/316
f 326/326/326 328/328/328 327/327/327
f 323/323/323 329/329/329 322/322/322
f 330/330/330 329/329/329 323/323/323
f 322/322/322 331/331/331 324/324/324
f 324/324/324 331/331/331 325/325/325
f 322/322/322 329/329/329 331/331/331
f 325/325/325 332/332/332 326/326/326
f 331/331/331 332/332/332 325/325/325
f 326/326/326 333/333/333 328/328/328
f 332/332/332 333/333/333 326/326/326
f 330/330/330 334/334/334 329/329/329
f 335/335/335 334/334/334 330/330/330
f 329/329/329 336/336/336 331/331/331
f 329/329/329 334/334/334 336/336/336
f 331/331/331 337/337/337 332/332/332
f 332/332/332 337/337/337 333/333/333
f 336/336/336 337/337/337 331/331/331
f 333/333/333 338/338/338 328/328/328
f 337/337/337 338/338/338 333/333/333
f 338/338/338 339/339/339 328/328/328
f 338/338/338 340/340/340 339/339/339
f 335/335/335 341/341/341 334/334/334
f 342/342/342 341/341/341 335/335/335
f 334/334/334 343/343/343 336/336/336
f 336/336/336 343/343/343 337/337/337
f 334/334/334 341/341/341 343/343/343
f 337/337/337 344/344/344 338/338/338
f 343/343/343 344/344/344 337/337/337
f 338/338/338 345/345/345 340/340/340
f 344/344/344 345/345/345 338/338/338
f 342/342/342 346/346/346 341/341/341
f 347/347/347 346/346/346 342/342/342
f 341/341/341 348/348/348 343/343/343
f 341/341/341 346/346/346 348/348/348
f 343/343/343 349/349/349 344/344/344
f 344/344/344 349/349/349 345/345/345
f 348/348/348 349/349/349 343/343/343
f 345/345/345 350/350/350 340/340/340
f 349/349/349 350/350/350 345/345/345
f 350/350/350 351/351/351 340/340/340
f 350/350/350 352/352/352 351/351/351
f 347/347/347 353/353/353 346/346/346
f 354/354/354 353/353/353 347/347/347
f 346/346/346 355/355/355 348/348/348
f 348/348/348 355/355/355 349/349/349
f 346/346/346 353/353/353 355/355/355
f 349/349/349 356/356/356 350/350/350
f 355/355/355 356/356/356 349/349/349
f 350/350/350 357/357/357 352/352/352
f 356/356/356 357/357/357 350/350/350
f 354/354/354 358/358/358 353/353/353
f 359/359/359 358/358/358 354/354/354
f 353/353/353 360/360/360 355/355/355
f 353/353/353 358/358/358 360/360/360
f 355/355/355 361/361/361 356/356/356
f 356/356/356 361/361/361 357/357/357
f 360/360/360 361/361/361 355/355/355
f 357/357/357 362/362/362 352/352/352
f 361/361/361 362/362/362 357/357/357
f 362/362/362 363/363/363 352/352/352
f 362/362/362 364/364/364 363/363/363
f 362/362/362 365/365/365 364/364/364
f 366/366/366 365/365/365 362/362/362
f 361/361/361 366/366/366 362/362/362
f 366/366/366 367/367/367 365/365/365
f 360/360/360 368/368/368 361/361/361
f 368/368/368 366/366/366 361/361/361
f 368/368/368 367/367/367 366/366/366
f 358/358/358 368/368/368 360/360/360
f 369/369/369 367/367/367 368/368/368
f 358/358/358 370/370/370 368/368/368
f 370/370/370 369/369/369 368/368/368
f 359/359/359 370/370/370 358/358/358
f 370/370/370 371/371/371 369/369/369
f 372/372/372 370/370/370 359/359/359
f 372/372/372 371/371/371 370/370/370
