g fbx_ef_DamageCut1
v 0.4330125 -0.24999957 4.31151E-08
v 0.48296267 -0.12940933 -5.393721E-09
v 0.41825792 -0.24148159 -0.3105817
v 0.4665061 -0.12499936 -0.31058276
v 0.4999997 2.4051417E-07 -9.059735E-08
v 0.37499982 -0.21650557 -0.6000011
v 0.48296264 1.722359E-07 -0.31058282
v 0.48296258 0.12940975 -1.4003851E-07
v 0.41825795 -0.112071574 -0.60000014
v 0.46650606 0.1250002 -0.3105831
v 0.4330124 0.2500005 -2.2431016E-07
v 0.29756343 -0.17179856 -0.82463306
v 0.24295941 -0.24295947 -0.82463294
v 0.4330125 2.1478428E-07 -0.6000003
v 0.4182579 0.24148098 -0.310584
v 0.35355312 0.35355425 -2.7101828E-07
v 0.3318889 -0.088929035 -0.82463235
v 0.41825792 0.11207196 -0.60000074
v 0.34150612 0.34150523 -0.31058365
v 0.2499998 0.43301243 -3.5094234E-07
v 0.34359646 2.1213195E-07 -0.8246335
v 0.37499976 0.21650644 -0.5999999
v 0.24148129 0.41825694 -0.3105835
v 0.1294094 0.48296213 -3.562219E-07
v 0.33188847 0.08892949 -0.8246347
v 0.30618602 0.3061862 -0.59999967
v 0.1249999 0.46650523 -0.31058383
v -4.2943345E-08 0.5000004 -2.8649723E-07
v 0.29756308 0.17179762 -0.82463396
v 0.2165062 0.37500045 -0.6000011
v -2.8042184E-08 0.48296183 -0.31058395
v -0.12940948 0.48296213 -3.562219E-07
v 0.24295938 0.24295971 -0.8246342
v 0.11207184 0.4182572 -0.6
v -0.124999955 0.46650523 -0.31058383
v -0.24999987 0.43301243 -3.5094234E-07
v 0.17179817 0.29756305 -0.8246352
v -2.8042184E-08 0.43301246 -0.5999995
v -0.24148133 0.41825694 -0.3105835
v -0.35355318 0.35355425 -2.7101828E-07
v 0.088929385 0.33188832 -0.8246326
v -0.112071894 0.4182572 -0.6
v -0.34150618 0.34150523 -0.31058365
v -0.43301246 0.2500005 -2.2431016E-07
v -7.069699E-08 0.343597 -0.8246348
v -0.21650624 0.37500045 -0.6000011
v -0.41825792 0.241481 -0.310584
v -0.48296267 0.12940976 -1.4003851E-07
v -0.08892952 0.3318883 -0.8246326
v -0.30618608 0.30618617 -0.5999998
v -0.4665061 0.12500015 -0.31058297
v -0.49999973 2.1816241E-07 -9.059734E-08
v -0.1717979 0.29756242 -0.82463354
v -0.37499982 0.21650644 -0.6
v -0.48296264 1.8713705E-07 -0.31058282
v -0.48296264 -0.12940934 -5.3937192E-09
v -0.2429595 0.2429597 -0.8246342
v -0.41825795 0.112071946 -0.60000086
v -0.46650606 -0.12499936 -0.3105826
v -0.43301246 -0.24999957 4.31151E-08
v -0.4182579 -0.2414816 -0.31058273
v -0.4330125 1.402785E-07 -0.6000006
v -0.41825795 -0.11207159 -0.6000003
v -0.37499982 -0.21650653 -0.59999883
v -0.29756323 0.17179759 -0.824634
v -0.33188856 0.08892951 -0.82463473
v -0.34359652 1.324836E-07 -0.8246338
v -0.3318889 -0.08892904 -0.8246326
v -0.29756334 -0.17179853 -0.82463324
v -0.2432096 -0.2430898 -0.8247541
v -0.15386705 0.1538666 -0.9045501
v -0.108800456 0.18844785 -0.90454704
v -0.18844786 0.10880067 -0.90454966
v -0.21018627 0.05631935 -0.9045497
v -0.056319278 0.21018606 -0.90455055
v -0.21760084 1.3569343E-07 -0.90454954
v -0.21018624 -0.056319024 -0.904549
v -3.0893045E-08 0.21760118 -0.9045497
v -0.1884478 -0.10879993 -0.9045491
v 0.05631921 0.21018608 -0.90455055
v -0.15386699 -0.15386714 -0.9045487
v 0.10880039 0.18844788 -0.90455097
v 0.15386699 0.15386663 -0.9045501
v 0.18844782 0.10880066 -0.90454954
v 0.21018624 0.056319356 -0.9045497
v 0.21760082 1.71361E-07 -0.9045493
v 0.21018626 -0.056319043 -0.9045489
v 0.18844783 -0.10879993 -0.9045491
v 0.153867 -0.15386717 -0.9045487
v 0.10880041 -0.18844754 -0.9045477
v 0.17200798 -0.2984483 -0.82466197
v 0.056319237 -0.21018657 -0.9045483
v 0.08892937 -0.33188966 -0.824632
v -0 -0.21760082 -0.9045489
v 0.11207189 -0.41825825 -0.6000011
v 3.7914397E-08 -0.34359732 -0.82463247
v -0.05631921 -0.21018656 -0.90454817
v -0 -0.43301156 -0.59999937
v 0.12584458 -0.45880353 -0.30844676
v -0.08892931 -0.33188966 -0.82463187
v -0.10880038 -0.18844754 -0.9045477
v -2.8042184E-08 -0.48296335 -0.31058255
v 0.12940948 -0.4829631 1.0350145E-07
v -2.0591603E-08 -0.49999952 1.0530216E-07
v -0.12499994 -0.4665068 -0.31058285
v -0.12940945 -0.48296311 1.0350146E-07
v -0.112071864 -0.41825822 -0.600001
v -0.17179821 -0.2975639 -0.8246319
vt 0.06229657 0.24973845
vt 0.012429953 0.37155306
vt 0.16491914 0.30919522
vt 0.1269468 0.40242288
vt -0.004208803 0.50212693
vt 0.2476173 0.35747534
vt 0.11439812 0.50230294
vt 0.013522506 0.63255686
vt 0.21932392 0.42765376
vt 0.12813038 0.60202736
vt 0.06440711 0.75394964
vt 0.31830546 0.3983922
vt 0.35079908 0.3548292
vt 0.21015859 0.50276417
vt 0.16720587 0.69479823
vt 0.14497495 0.8580343
vt 0.29819393 0.44888085
vt 0.2207464 0.5776874
vt 0.22896028 0.7742934
vt 0.24973428 0.9377192
vt 0.29183543 0.50285447
vt 0.25036538 0.6473169
vt 0.30918434 0.83509636
vt 0.3715462 0.9875762
vt 0.29966328 0.5566347
vt 0.29699636 0.7069074
vt 0.40241072 0.87306446
vt 0.50211066 1.0042086
vt 0.32114384 0.6065564
vt 0.3574612 0.75239813
vt 0.502287 0.8856106
vt 0.6325311 0.9864837
vt 0.3548131 0.6492172
vt 0.42763922 0.78068966
vt 0.6020073 0.87188053
vt 0.7539214 0.9356086
vt 0.39837658 0.6817102
vt 0.5027481 0.78985405
vt 0.6947767 0.8328094
vt 0.85801 0.8550493
vt 0.44886523 0.70182085
vt 0.5776697 0.7792671
vt 0.7742739 0.77105916
vt 0.9377036 0.75029397
vt 0.50283843 0.7081791
vt 0.6472986 0.74965
vt 0.83508104 0.690837
vt 0.98757017 0.62847936
vt 0.5566182 0.7003516
vt 0.70689005 0.70302093
vt 0.87305343 0.59760946
vt 1.0042088 0.49790543
vt 0.6065397 0.67887163
vt 0.7523827 0.64255697
vt 0.88560194 0.49772936
vt 0.98647755 0.3674755
vt 0.6492009 0.6452031
vt 0.78067607 0.5723786
vt 0.87186956 0.39800495
vt 0.9355928 0.24608266
vt 0.8327941 0.30523404
vt 0.7898414 0.49726805
vt 0.7792536 0.42234486
vt 0.7496346 0.35271543
vt 0.6816945 0.60164016
vt 0.701806 0.5511515
vt 0.70816463 0.4971778
vt 0.7003369 0.44339758
vt 0.67885613 0.3934759
vt 0.6433932 0.35195622
vt 0.597249 0.593855
vt 0.5696479 0.6158272
vt 0.6182227 0.56548774
vt 0.6311399 0.5326587
vt 0.53730047 0.62990713
vt 0.6351199 0.49760497
vt 0.62989175 0.46271563
vt 0.50241125 0.6351353
vt 0.6158115 0.4303683
vt 0.46735752 0.63115525
vt 0.59383905 0.40276742
vt 0.43452835 0.61823845
vt 0.40616083 0.59726495
vt 0.3841884 0.569664
vt 0.37010822 0.5373167
vt 0.36488003 0.5024273
vt 0.36886013 0.4673736
vt 0.38177717 0.43454456
vt 0.40275097 0.40617737
vt 0.43035206 0.38420504
vt 0.3922614 0.32095233
vt 0.4626994 0.37012517
vt 0.44338185 0.2996807
vt 0.49758875 0.3648971
vt 0.42233023 0.2207653
vt 0.49716148 0.2918533
vt 0.53264236 0.36887702
vt 0.4972518 0.21017826
vt 0.39972302 0.1278066
vt 0.5511347 0.29821146
vt 0.56547153 0.38179392
vt 0.49771294 0.114421725
vt 0.36746877 0.013548791
vt 0.49788934 -0.00417614
vt 0.59758914 0.12696803
vt 0.6284536 0.012456298
vt 0.5723607 0.21934271
vt 0.60162336 0.31832218
vn 0.86710644 -0.49505877 -0.05516542
vn 0.9642924 -0.2622399 -0.03701896
vn 0.8555658 -0.49440536 -0.15352723
vn 0.9792418 -0.17506775 -0.102160625
vn 0.99930763 -0.003726822 -0.037018992
vn 0.8341074 -0.47957835 -0.2725243
vn 0.9919036 0.0833675 -0.09579717
vn 0.96622187 0.2550388 -0.037018843
vn 0.93144464 -0.21338108 -0.2947532
vn 0.93340874 0.33726025 -0.12248935
vn 0.86728853 0.49642757 -0.037019122
vn 0.6351696 -0.24784781 -0.7315265
vn 0.6720732 -0.42260125 -0.6080508
vn 0.9549306 0.034956656 -0.29476342
vn 0.8143038 0.5673022 -0.12279031
vn 0.70924926 0.7039849 -0.037021957
vn 0.6775644 -0.07507959 -0.73162115
vn 0.9133446 0.2809234 -0.2947605
vn 0.64517564 0.7592474 -0.085391894
vn 0.5028765 0.86356497 -0.03702193
vn 0.67404234 0.10315107 -0.7314552
vn 0.8095243 0.50768995 -0.29482418
vn 0.42219126 0.9004418 -0.10468565
vn 0.2622402 0.9642923 -0.037019905
vn 0.6243861 0.2738774 -0.7315281
vn 0.650541 0.6999157 -0.29481256
vn 0.1750299 0.9792189 -0.10244445
vn 0.0037263234 0.9993075 -0.03702224
vn 0.53220606 0.425958 -0.7316533
vn 0.44775274 0.8438305 -0.2957491
vn -0.07989302 0.99332726 -0.0831744
vn -0.2550429 0.9662208 -0.03702089
vn 0.40383145 0.5493046 -0.73156315
vn 0.2137596 0.93118715 -0.29529205
vn -0.3380076 0.93394923 -0.116144806
vn -0.4964249 0.86728996 -0.037020113
vn 0.24785951 0.6351447 -0.73154414
vn -0.0349458 0.9549278 -0.29477397
vn -0.5673278 0.8143103 -0.122628786
vn -0.7039813 0.7092529 -0.03702188
vn 0.07510535 0.67755175 -0.73163027
vn -0.28069094 0.9133295 -0.29502845
vn -0.76046526 0.64156747 -0.10041788
vn -0.8635632 0.50287974 -0.037020635
vn -0.10295612 0.6740015 -0.7315203
vn -0.50770676 0.8095226 -0.2947999
vn -0.9005573 0.42252845 -0.10230503
vn -0.9642918 0.2622417 -0.037019715
vn -0.27384415 0.62433845 -0.7315811
vn -0.6999329 0.6505305 -0.29479495
vn -0.9792371 0.17506015 -0.1022189
vn -0.99930763 0.003727254 -0.037018977
vn -0.42609712 0.53223366 -0.7315521
vn -0.8438583 0.44772974 -0.29570463
vn -0.99311185 -0.08055778 -0.085083775
vn -0.9662217 -0.25504002 -0.0370193
vn -0.54927415 0.40384063 -0.731581
vn -0.931441 0.21338658 -0.2947606
vn -0.9339577 -0.3380126 -0.11606303
vn -0.86868113 -0.4941441 -0.034852244
vn -0.8638652 -0.49875063 -0.07060218
vn -0.9549326 -0.034963034 -0.29475656
vn -0.9133443 -0.28092405 -0.29476058
vn -0.86068386 -0.45592833 -0.22661099
vn -0.63519585 0.24783015 -0.7315096
vn -0.677644 0.075046554 -0.73155093
vn -0.6739791 -0.1029057 -0.7315481
vn -0.62440675 -0.27398863 -0.7314687
vn -0.74836075 -0.17252827 -0.6404608
vn -0.7032049 -0.5250977 -0.4793488
vn -0.30467495 0.30441162 -0.9025003
vn -0.21552636 0.37293446 -0.9024789
vn -0.3731354 0.21518044 -0.9024784
vn -0.41610983 0.1112808 -0.90247947
vn -0.11165109 0.41601348 -0.9024782
vn -0.43073556 -0.00020144231 -0.9024782
vn -0.4160253 -0.111612044 -0.9024775
vn -0.00019017237 0.43073657 -0.90247774
vn -0.38893643 -0.064673446 -0.91899174
vn 0.1112736 0.41612044 -0.9024755
vn -0.16831824 -0.29556045 -0.94037914
vn 0.21517362 0.37314367 -0.90247667
vn 0.30444446 0.30470812 -0.902478
vn 0.37294674 0.21550778 -0.9024784
vn 0.4160113 0.111648984 -0.90247935
vn 0.43073496 0.00019849275 -0.9024784
vn 0.4161193 -0.111266345 -0.90247685
vn 0.37313628 -0.21517974 -0.9024782
vn 0.30471224 -0.304438 -0.9024788
vn 0.2533195 -0.18610935 -0.9493116
vn 0.2963669 -0.82573694 -0.479922
vn -0.11214632 -0.38190848 -0.91737074
vn -0.06620716 -0.80075544 -0.59532136
vn 0.0002039252 -0.4307351 -0.9024784
vn 0.22110872 -0.95777583 -0.18378367
vn 0.10312775 -0.6740306 -0.73146933
vn -0.111272275 -0.4161156 -0.9024778
vn -0.016899299 -0.95312667 -0.30209905
vn 0.26298305 -0.9630483 -0.058119997
vn -0.07507151 -0.6776278 -0.73156327
vn -0.21518447 -0.3731332 -0.9024784
vn -0.061445802 -0.9930462 -0.10041732
vn 0.25401253 -0.96657914 -0.034675572
vn -0.0037278074 -0.99930775 -0.03701654
vn -0.25612718 -0.9543753 -0.15351428
vn -0.2537614 -0.9656925 -0.055164997
vn -0.24729495 -0.9298333 -0.27249813
vn -0.27216926 -0.7431297 -0.61129546
g fbx_ef_DamageCut1_0
f 3/3/3 2/2/2 1/1/1
f 3/3/3 4/4/4 2/2/2
f 4/4/4 5/5/5 2/2/2
f 6/6/6 4/4/4 3/3/3
f 4/4/4 7/7/7 5/5/5
f 7/7/7 8/8/8 5/5/5
f 6/6/6 9/9/9 4/4/4
f 9/9/9 7/7/7 4/4/4
f 7/7/7 10/10/10 8/8/8
f 10/10/10 11/11/11 8/8/8
f 12/12/12 9/9/9 6/6/6
f 13/13/13 12/12/12 6/6/6
f 9/9/9 14/14/14 7/7/7
f 14/14/14 10/10/10 7/7/7
f 10/10/10 15/15/15 11/11/11
f 15/15/15 16/16/16 11/11/11
f 12/12/12 17/17/17 9/9/9
f 17/17/17 14/14/14 9/9/9
f 14/14/14 18/18/18 10/10/10
f 18/18/18 15/15/15 10/10/10
f 15/15/15 19/19/19 16/16/16
f 19/19/19 20/20/20 16/16/16
f 17/17/17 21/21/21 14/14/14
f 21/21/21 18/18/18 14/14/14
f 18/18/18 22/22/22 15/15/15
f 22/22/22 19/19/19 15/15/15
f 19/19/19 23/23/23 20/20/20
f 23/23/23 24/24/24 20/20/20
f 21/21/21 25/25/25 18/18/18
f 25/25/25 22/22/22 18/18/18
f 22/22/22 26/26/26 19/19/19
f 26/26/26 23/23/23 19/19/19
f 23/23/23 27/27/27 24/24/24
f 27/27/27 28/28/28 24/24/24
f 25/25/25 29/29/29 22/22/22
f 29/29/29 26/26/26 22/22/22
f 26/26/26 30/30/30 23/23/23
f 30/30/30 27/27/27 23/23/23
f 27/27/27 31/31/31 28/28/28
f 31/31/31 32/32/32 28/28/28
f 29/29/29 33/33/33 26/26/26
f 33/33/33 30/30/30 26/26/26
f 30/30/30 34/34/34 27/27/27
f 34/34/34 31/31/31 27/27/27
f 31/31/31 35/35/35 32/32/32
f 35/35/35 36/36/36 32/32/32
f 33/33/33 37/37/37 30/30/30
f 37/37/37 34/34/34 30/30/30
f 34/34/34 38/38/38 31/31/31
f 38/38/38 35/35/35 31/31/31
f 35/35/35 39/39/39 36/36/36
f 39/39/39 40/40/40 36/36/36
f 37/37/37 41/41/41 34/34/34
f 41/41/41 38/38/38 34/34/34
f 38/38/38 42/42/42 35/35/35
f 42/42/42 39/39/39 35/35/35
f 39/39/39 43/43/43 40/40/40
f 43/43/43 44/44/44 40/40/40
f 41/41/41 45/45/45 38/38/38
f 45/45/45 42/42/42 38/38/38
f 42/42/42 46/46/46 39/39/39
f 46/46/46 43/43/43 39/39/39
f 43/43/43 47/47/47 44/44/44
f 47/47/47 48/48/48 44/44/44
f 45/45/45 49/49/49 42/42/42
f 49/49/49 46/46/46 42/42/42
f 46/46/46 50/50/50 43/43/43
f 50/50/50 47/47/47 43/43/43
f 47/47/47 51/51/51 48/48/48
f 51/51/51 52/52/52 48/48/48
f 49/49/49 53/53/53 46/46/46
f 53/53/53 50/50/50 46/46/46
f 50/50/50 54/54/54 47/47/47
f 54/54/54 51/51/51 47/47/47
f 51/51/51 55/55/55 52/52/52
f 55/55/55 56/56/56 52/52/52
f 53/53/53 57/57/57 50/50/50
f 57/57/57 54/54/54 50/50/50
f 54/54/54 58/58/58 51/51/51
f 58/58/58 55/55/55 51/51/51
f 55/55/55 59/59/59 56/56/56
f 59/59/59 60/60/60 56/56/56
f 59/59/59 61/61/61 60/60/60
f 62/62/62 59/59/59 55/55/55
f 58/58/58 62/62/62 55/55/55
f 63/63/63 61/61/61 59/59/59
f 62/62/62 63/63/63 59/59/59
f 63/63/63 64/64/64 61/61/61
f 65/65/65 58/58/58 54/54/54
f 57/57/57 65/65/65 54/54/54
f 66/66/66 62/62/62 58/58/58
f 65/65/65 66/66/66 58/58/58
f 67/67/67 63/63/63 62/62/62
f 66/66/66 67/67/67 62/62/62
f 68/68/68 64/64/64 63/63/63
f 67/67/67 68/68/68 63/63/63
f 68/68/68 69/69/69 64/64/64
f 69/69/69 70/70/70 64/64/64
f 71/71/71 65/65/65 57/57/57
f 72/72/72 71/71/71 57/57/57
f 71/71/71 73/73/73 65/65/65
f 73/73/73 66/66/66 65/65/65
f 72/72/72 57/57/57 53/53/53
f 73/73/73 74/74/74 66/66/66
f 74/74/74 67/67/67 66/66/66
f 75/75/75 72/72/72 53/53/53
f 74/74/74 76/76/76 67/67/67
f 76/76/76 68/68/68 67/67/67
f 75/75/75 53/53/53 49/49/49
f 76/76/76 77/77/77 68/68/68
f 77/77/77 69/69/69 68/68/68
f 78/78/78 75/75/75 49/49/49
f 77/77/77 79/79/79 69/69/69
f 78/78/78 49/49/49 45/45/45
f 79/79/79 70/70/70 69/69/69
f 80/80/80 78/78/78 45/45/45
f 79/79/79 81/81/81 70/70/70
f 80/80/80 45/45/45 41/41/41
f 82/82/82 80/80/80 41/41/41
f 82/82/82 41/41/41 37/37/37
f 83/83/83 82/82/82 37/37/37
f 83/83/83 37/37/37 33/33/33
f 84/84/84 83/83/83 33/33/33
f 84/84/84 33/33/33 29/29/29
f 85/85/85 84/84/84 29/29/29
f 85/85/85 29/29/29 25/25/25
f 86/86/86 85/85/85 25/25/25
f 86/86/86 25/25/25 21/21/21
f 87/87/87 86/86/86 21/21/21
f 87/87/87 21/21/21 17/17/17
f 88/88/88 87/87/87 17/17/17
f 88/88/88 17/17/17 12/12/12
f 89/89/89 88/88/88 12/12/12
f 89/89/89 12/12/12 13/13/13
f 90/90/90 89/89/89 13/13/13
f 90/90/90 13/13/13 91/91/91
f 92/92/92 90/90/90 91/91/91
f 92/92/92 91/91/91 93/93/93
f 94/94/94 92/92/92 93/93/93
f 93/93/93 91/91/91 95/95/95
f 94/94/94 93/93/93 96/96/96
f 96/96/96 93/93/93 95/95/95
f 97/97/97 94/94/94 96/96/96
f 96/96/96 95/95/95 98/98/98
f 98/98/98 95/95/95 99/99/99
f 97/97/97 96/96/96 100/100/100
f 100/100/100 96/96/96 98/98/98
f 101/101/101 97/97/97 100/100/100
f 98/98/98 99/99/99 102/102/102
f 102/102/102 99/99/99 103/103/103
f 102/102/102 103/103/103 104/104/104
f 105/105/105 102/102/102 104/104/104
f 105/105/105 104/104/104 106/106/106
f 107/107/107 102/102/102 105/105/105
f 107/107/107 98/98/98 102/102/102
f 100/100/100 98/98/98 107/107/107
f 108/108/108 100/100/100 107/107/107
f 101/101/101 100/100/100 108/108/108
f 81/81/81 101/101/101 108/108/108
f 81/81/81 108/108/108 70/70/70
