g fbx_ef_Ring4
v 4.0719204 1.3230472 3.9736426E-07
v 4.6971 1.5261805 5.9604645E-07
v 4.877643 0.77254295 5.9604645E-07
v 4.2284327 0.6697183 3.9736437E-07
v 3.4467404 1.1199142 1.9868214E-07
v 4.9388213 1.1175871E-07 5.9604645E-07
v 3.5792224 0.56689364 1.9868219E-07
v 2.8215601 0.91678095 3.5934268E-14
v 4.281468 2.2351742E-07 3.9736426E-07
v 4.8776417 -0.7725425 5.9604645E-07
v 2.9300122 0.46406895 3.5733223E-14
v 2.1963806 0.71364784 -1.986821E-07
v 4.228431 -0.66971767 3.9736437E-07
v 4.697098 -1.5261796 5.9604645E-07
v 3.6241148 3.1548552E-07 1.9868214E-07
v 2.280802 0.36124432 -1.986821E-07
v 1.5712007 0.51051474 -3.9736426E-07
v 4.0719185 -1.3230464 3.9736426E-07
v 4.4001837 -2.2420056 5.9604645E-07
v 3.579221 -0.56689286 1.9868219E-07
v 2.9667616 4.1443855E-07 3.5527137E-14
v 1.6315918 0.2584196 -3.9736426E-07
v 0.9460206 0.30738163 -5.9604645E-07
v 0.9823816 0.15559493 -5.9604645E-07
v 3.8145232 -1.9435967 3.9736437E-07
v 3.99559 -2.902966 5.9604645E-07
v 2.3094084 5.075708E-07 -1.986821E-07
v 1.6520551 6.193295E-07 -3.9736426E-07
v 0.99470204 7.217642E-07 -5.9604645E-07
v 3.4467382 -1.1199132 1.9868214E-07
v 2.9300113 -0.46406803 3.532105E-14
v 3.4637804 -2.5165842 3.9736426E-07
v 3.4920053 -3.4920063 5.9604645E-07
v 2.280801 -0.3612432 -1.986821E-07
v 1.6315911 -0.25841832 -3.9736426E-07
v 0.982381 -0.15559347 -5.9604645E-07
v 3.2288625 -1.6451879 1.9868219E-07
v 2.821559 -0.91678005 3.5120005E-14
v 3.0272226 -3.0272229 3.9736437E-07
v 2.9029658 -3.9955902 5.9604645E-07
v 2.1963792 -0.7136466 -1.986821E-07
v 1.5711995 -0.5105133 -3.9736426E-07
v 0.94601977 -0.30738008 -5.9604645E-07
v 2.9319708 -2.1302018 1.9868214E-07
v 2.6432018 -1.3467788 3.4929047E-14
v 2.516584 -3.4637809 3.9736426E-07
v 2.2420053 -4.400184 5.9604645E-07
v 2.0575414 -1.0483698 -1.986821E-07
v 1.4718807 -0.74996066 -3.9736426E-07
v 0.88622 -0.45155162 -5.9604645E-07
v 2.56244 -2.56244 1.9868219E-07
v 2.4001613 -1.7438196 3.4752725E-14
v 1.9435966 -3.8145232 3.9736437E-07
v 1.5261794 -4.6970983 5.9604645E-07
v 1.8683519 -1.3574373 -1.986821E-07
v 1.3365421 -0.97105503 -3.9736426E-07
v 0.80473256 -0.5846727 -5.9604645E-07
v 2.1302016 -2.9319708 1.9868214E-07
v 2.0976572 -2.097657 3.459559E-14
v 1.3230463 -4.0719185 3.9736426E-07
v 0.77254236 -4.877642 5.9604645E-07
v 1.632874 -1.632874 -1.986821E-07
v 1.1680914 -1.1680912 -3.9736426E-07
v 0.70330846 -0.7033081 -5.9604645E-07
v 1.6451875 -3.2288625 1.9868219E-07
v 1.7438195 -2.4001613 3.446125E-14
v 0.6697176 -4.2284317 3.9736437E-07
v -1.6763806E-07 -4.9388213 5.9604645E-07
v 1.3574375 -1.8683518 -1.986821E-07
v 0.97105515 -1.3365422 -3.9736426E-07
v 0.5846729 -0.8047323 -5.9604645E-07
v 1.1199131 -3.4467385 1.9868214E-07
v 1.3467788 -2.6432018 3.435332E-14
v -2.1420419E-07 -4.2814684 3.9736426E-07
v -0.7725428 -4.877642 5.9604645E-07
v 1.0483696 -2.0575414 -1.986821E-07
v 0.7499609 -1.4718806 -3.9736426E-07
v 0.4515518 -0.88621974 -5.9604645E-07
v 0.56689274 -3.5792212 1.9868219E-07
v 0.9167798 -2.821559 3.4274114E-14
v -0.669718 -4.2284317 3.9736437E-07
v -1.5261798 -4.6970983 5.9604645E-07
v 0.71364665 -2.1963792 -1.986821E-07
v 0.5105135 -1.5711994 -3.9736426E-07
v 0.30738026 -0.9460195 -5.9604645E-07
v -2.8056093E-07 -3.6241148 1.9868214E-07
v 0.46406803 -2.9300113 3.4225952E-14
v -1.3230467 -4.0719185 3.9736426E-07
v -2.2420063 -4.4001846 5.9604645E-07
v 0.36124322 -2.280801 -1.986821E-07
v 0.25841844 -1.6315911 -3.9736426E-07
v 0.15559365 -0.98238087 -5.9604645E-07
v -0.56689334 -3.5792212 1.9868219E-07
v -3.306195E-07 -2.9667616 3.420963E-14
v -1.9435973 -3.8145237 3.9736437E-07
v -2.9029663 -3.9955902 5.9604645E-07
v -3.8882717E-07 -2.3094084 -1.986821E-07
v -4.377216E-07 -1.652055 -3.9736426E-07
v -4.9126726E-07 -0.99470186 -5.9604645E-07
v -1.1199137 -3.4467387 1.9868214E-07
v -0.46406868 -2.9300115 3.4225952E-14
v -2.5165844 -3.463781 3.9736426E-07
v -3.4920065 -3.4920063 5.9604645E-07
v -0.36124402 -2.280801 -1.986821E-07
v -0.2584193 -1.6315911 -3.9736426E-07
v -0.1555946 -0.98238087 -5.9604645E-07
v -1.6451883 -3.2288628 1.9868219E-07
v -0.91678065 -2.8215592 3.4274114E-14
v -3.0272238 -3.0272236 3.9736437E-07
v -3.9955907 -2.9029663 5.9604645E-07
v -0.7136475 -2.1963792 -1.986821E-07
v -0.5105144 -1.5711994 -3.9736426E-07
v -0.3073812 -0.9460195 -5.9604645E-07
v -2.1302025 -2.931971 1.9868214E-07
v -1.3467793 -2.643202 3.435332E-14
v -3.4637814 -2.5165844 3.9736426E-07
v -4.4001846 -2.2420063 5.9604645E-07
v -1.0483707 -2.0575414 -1.986821E-07
v -0.7499618 -1.4718806 -3.9736426E-07
v -0.45155287 -0.88621974 -5.9604645E-07
v -2.562441 -2.5624402 1.9868219E-07
v -1.7438202 -2.4001615 3.446125E-14
v -3.814524 -1.9435968 3.9736437E-07
v -4.6970987 -1.5261798 5.9604645E-07
v -1.3574384 -1.8683518 -1.986821E-07
v -0.97105634 -1.336542 -3.9736426E-07
v -0.5846741 -0.8047323 -5.9604645E-07
v -2.9319715 -2.130202 1.9868214E-07
v -2.097658 -2.0976572 3.459559E-14
v -4.071919 -1.3230466 3.9736426E-07
v -4.8776426 -0.7725427 5.9604645E-07
v -1.6328754 -1.632874 -1.986821E-07
v -1.1680925 -1.1680912 -3.9736426E-07
v -0.70330966 -0.7033081 -5.9604645E-07
v -3.228864 -1.645188 1.9868219E-07
v -2.4001625 -1.7438196 3.4752725E-14
v -4.2284327 -0.6697178 3.9736437E-07
v -4.938822 -2.646978E-22 5.9604645E-07
v -1.868353 -1.3574374 -1.986821E-07
v -1.3365434 -0.9710551 -3.9736426E-07
v -0.80473375 -0.58467275 -5.9604645E-07
v -3.4467392 -1.1199133 1.9868214E-07
v -2.6432033 -1.3467789 3.4929047E-14
v -4.281469 1.3038516E-07 3.9736426E-07
v -4.8776426 0.7725427 5.9604645E-07
v -2.0575426 -1.0483699 -1.986821E-07
v -1.4718819 -0.7499607 -3.9736426E-07
v -0.8862212 -0.45155165 -5.9604645E-07
v -3.5792224 -0.566893 1.9868219E-07
v -2.82156 -0.9167801 3.5120005E-14
v -4.2284327 0.669718 3.9736437E-07
v -4.6970987 1.5261798 5.9604645E-07
v -2.1963801 -0.7136468 -1.986821E-07
v -1.5712004 -0.5105135 -3.9736426E-07
v -0.94602096 -0.30738017 -5.9604645E-07
v -3.6241157 2.339948E-07 1.9868214E-07
v -2.9300122 -0.46406808 3.532105E-14
v -4.071919 1.3230468 3.9736426E-07
v -4.400185 2.2420063 5.9604645E-07
v -2.2808025 -0.36124325 -1.986821E-07
v -1.6315923 -0.25841838 -3.9736426E-07
v -0.9823822 -0.1555935 -5.9604645E-07
v -3.5792224 0.5668934 1.9868219E-07
v -2.9667623 3.4458935E-07 3.5527137E-14
v -3.8145247 1.9435976 3.9736437E-07
v -3.995591 2.9029665 5.9604645E-07
v -2.3094096 4.48199E-07 -1.986821E-07
v -1.6520561 5.7742E-07 -3.9736426E-07
v -0.9947031 6.938245E-07 -5.9604645E-07
v -3.4467392 1.1199138 1.9868214E-07
v -2.9300122 0.46406874 3.5733223E-14
v -3.4637816 2.5165846 3.9736426E-07
v -3.4920068 3.4920068 5.9604645E-07
v -2.2808022 0.3612441 -1.986821E-07
v -1.6315923 0.25841948 -3.9736426E-07
v -0.9823822 0.15559484 -5.9604645E-07
v -3.228864 1.6451886 1.9868219E-07
v -2.8215601 0.9167807 3.5934268E-14
v -3.027224 3.027224 3.9736437E-07
v -2.9029672 3.9955912 5.9604645E-07
v -2.1963801 0.71364766 -1.986821E-07
v -1.5712004 0.5105146 -3.9736426E-07
v -0.94602096 0.3073815 -5.9604645E-07
v -2.931972 2.1302028 1.9868214E-07
v -2.6432033 1.3467798 3.6125227E-14
v -2.5165849 3.4637823 3.9736426E-07
v -2.2420068 4.4001856 5.9604645E-07
v -2.0575426 1.0483708 -1.986821E-07
v -1.4718819 0.7499621 -3.9736426E-07
v -0.8862212 0.45155317 -5.9604645E-07
v -2.562441 2.5624413 1.9868219E-07
v -2.4001625 1.7438208 3.630155E-14
v -1.9435978 3.8145251 3.9736437E-07
v -1.5261803 4.6970997 5.9604645E-07
v -1.868353 1.3574386 -1.986821E-07
v -1.3365434 0.97105646 -3.9736426E-07
v -0.80473375 0.5846744 -5.9604645E-07
v -2.1302028 2.9319723 1.9868214E-07
v -2.0976586 2.0976586 3.6458683E-14
v -1.323047 4.0719194 3.9736426E-07
v -0.7725429 4.8776436 5.9604645E-07
v -1.6328754 1.6328756 -1.986821E-07
v -1.1680926 1.1680927 -3.9736426E-07
v -0.70330966 0.7033099 -5.9604645E-07
v -1.6451887 3.2288642 1.9868219E-07
v -1.7438207 2.400163 3.6593023E-14
v -0.66971827 4.2284336 3.9736437E-07
v -0 4.9388227 5.9604645E-07
v -1.3574386 1.8683531 -1.986821E-07
v -0.97105634 1.3365436 -3.9736426E-07
v -0.5846741 0.8047341 -5.9604645E-07
v -1.1199139 3.4467406 1.9868214E-07
v -1.34678 2.6432037 3.6700955E-14
v -7.4505806E-08 4.2814703 3.9736426E-07
v 0.7725429 4.8776436 5.9604645E-07
v -1.0483708 2.057543 -1.986821E-07
v -0.7499619 1.4718822 -3.9736426E-07
v -0.451553 0.8862215 -5.9604645E-07
v -0.5668936 3.5792232 1.9868219E-07
v -0.9167808 2.8215606 3.6780163E-14
v 0.669718 4.2284336 3.9736437E-07
v 1.5261803 4.6970997 5.9604645E-07
v -0.7136477 2.1963809 -1.986821E-07
v -0.5105146 1.5712012 -3.9736426E-07
v -0.30738142 0.94602126 -5.9604645E-07
v -1.5133992E-07 3.624117 1.9868214E-07
v -0.46406877 2.9300127 3.6828325E-14
v 1.323047 4.0719204 3.9736426E-07
v 2.242007 4.400186 5.9604645E-07
v -0.36124414 2.2808032 -1.986821E-07
v -0.25841942 1.6315928 -3.9736426E-07
v -0.15559475 0.98238254 -5.9604645E-07
v 0.5668932 3.5792236 1.9868219E-07
v -2.2817403E-07 2.9667635 3.6844646E-14
v 1.9435978 3.8145256 3.9736437E-07
v 2.9029677 3.9955924 5.9604645E-07
v -3.1432137E-07 2.30941 -1.986821E-07
v -3.958121E-07 1.6520569 -3.9736426E-07
v -4.780719E-07 0.99470365 -5.9604645E-07
v 1.1199138 3.4467409 1.9868214E-07
v 0.46406835 2.9300134 3.6828325E-14
v 2.516585 3.4637828 3.9736426E-07
v 3.4920077 3.4920077 5.9604645E-07
v 0.36124352 2.280803 -1.986821E-07
v 0.25841865 1.6315928 -3.9736426E-07
v 0.15559377 0.98238254 -5.9604645E-07
v 1.6451886 3.228865 1.9868219E-07
v 0.9167804 2.8215606 3.6780163E-14
v 3.0272245 3.0272248 3.9736437E-07
v 3.9955924 2.9029677 5.9604645E-07
v 0.7136471 2.1963809 -1.986821E-07
v 0.5105138 1.5712012 -3.9736426E-07
v 0.30738047 0.94602126 -5.9604645E-07
v 2.1302028 2.9319732 1.9868214E-07
v 1.3467793 2.643204 3.6700955E-14
v 3.4637828 2.5165854 3.9736426E-07
v 4.4001865 2.242007 5.9604645E-07
v 1.0483704 2.0575433 -1.986821E-07
v 0.74996114 1.4718822 -3.9736426E-07
v 0.45155194 0.8862215 -5.9604645E-07
v 2.5624416 2.562442 1.9868219E-07
v 1.7438205 2.4001632 3.6593023E-14
v 3.8145256 1.9435979 3.9736437E-07
v 4.6971 1.5261805 5.9604645E-07
v 4.0719204 1.3230472 3.9736426E-07
v 1.3574381 1.8683534 -1.986821E-07
v 0.97105557 1.3365438 -3.9736426E-07
v 0.58467305 0.8047341 -5.9604645E-07
v 2.9319723 2.1302032 1.9868214E-07
v 3.2288647 1.6451892 1.9868219E-07
v 3.4467404 1.1199142 1.9868214E-07
v 2.0976584 2.0976589 3.6458683E-14
v 1.632875 1.632876 -1.986821E-07
v 1.1680917 1.1680928 -3.9736426E-07
v 0.70330846 0.7033099 -5.9604645E-07
v 2.400163 1.7438211 3.630155E-14
v 2.6432037 1.3467802 3.6125227E-14
v 2.8215601 0.91678095 3.5934268E-14
v 1.8683528 1.3574388 -1.986821E-07
v 1.3365427 0.9710567 -3.9736426E-07
v 0.8047328 0.5846745 -5.9604645E-07
v 2.0575426 1.0483712 -1.986821E-07
v 2.1963806 0.71364784 -1.986821E-07
v 1.4718817 0.7499622 -3.9736426E-07
v 0.8862207 0.45155323 -5.9604645E-07
v 1.5712007 0.51051474 -3.9736426E-07
v 0.9460206 0.30738163 -5.9604645E-07
vt 1 0.16666667
vt 1 2.9802322E-08
vt 0.975 2.9802322E-08
vt 0.975 0.16666667
vt 1 0.3333333
vt 0.95 2.9802322E-08
vt 0.97499996 0.3333333
vt 1 0.49999997
vt 0.9499999 0.16666667
vt 0.92499995 2.9802322E-08
vt 0.9749999 0.49999997
vt 1 0.6666666
vt 0.92499995 0.16666667
vt 0.9 2.9802322E-08
vt 0.9499999 0.3333333
vt 0.97499996 0.6666666
vt 1 0.8333333
vt 0.9 0.16666667
vt 0.875 2.9802322E-08
vt 0.92499995 0.3333333
vt 0.9499999 0.49999997
vt 0.97499996 0.8333333
vt 1 1
vt 0.975 1
vt 0.875 0.16666667
vt 0.84999996 2.9802322E-08
vt 0.9499999 0.6666666
vt 0.9499999 0.8333333
vt 0.95 1
vt 0.9 0.3333333
vt 0.92499995 0.49999997
vt 0.84999996 0.16666667
vt 0.8249999 2.9802322E-08
vt 0.92499995 0.6666666
vt 0.92499995 0.8333333
vt 0.92499995 1
vt 0.875 0.3333333
vt 0.9 0.49999997
vt 0.8249999 0.16666667
vt 0.79999995 2.9802322E-08
vt 0.9 0.6666666
vt 0.9 0.8333333
vt 0.9 1
vt 0.84999996 0.3333333
vt 0.875 0.49999997
vt 0.79999995 0.16666667
vt 0.775 2.9802322E-08
vt 0.875 0.6666666
vt 0.875 0.8333333
vt 0.875 1
vt 0.8249999 0.3333333
vt 0.8499999 0.49999997
vt 0.775 0.16666667
vt 0.75000006 2.9802322E-08
vt 0.84999996 0.6666666
vt 0.8499999 0.8333333
vt 0.84999996 1
vt 0.79999995 0.3333333
vt 0.8249999 0.49999997
vt 0.75 0.16666667
vt 0.725 2.9802322E-08
vt 0.8249999 0.6666666
vt 0.8249999 0.8333333
vt 0.8249999 1
vt 0.775 0.3333333
vt 0.79999995 0.49999997
vt 0.725 0.16666667
vt 0.70000005 2.9802322E-08
vt 0.79999995 0.6666666
vt 0.79999995 0.8333333
vt 0.79999995 1
vt 0.75 0.3333333
vt 0.775 0.49999997
vt 0.70000005 0.16666667
vt 0.6750001 2.9802322E-08
vt 0.775 0.6666666
vt 0.775 0.8333333
vt 0.775 1
vt 0.725 0.3333333
vt 0.75 0.49999997
vt 0.6750001 0.16666667
vt 0.65000004 2.9802322E-08
vt 0.75 0.6666666
vt 0.75 0.8333333
vt 0.75000006 1
vt 0.70000005 0.3333333
vt 0.725 0.49999997
vt 0.65000004 0.16666667
vt 0.625 2.9802322E-08
vt 0.725 0.6666666
vt 0.725 0.8333333
vt 0.725 1
vt 0.6750001 0.3333333
vt 0.70000005 0.49999997
vt 0.625 0.16666667
vt 0.6 2.9802322E-08
vt 0.70000005 0.6666666
vt 0.70000005 0.8333333
vt 0.70000005 1
vt 0.65000004 0.3333333
vt 0.6750001 0.49999997
vt 0.6 0.16666667
vt 0.57500005 2.9802322E-08
vt 0.6750001 0.6666666
vt 0.6750001 0.8333333
vt 0.6750001 1
vt 0.625 0.3333333
vt 0.65000004 0.49999997
vt 0.57500005 0.16666667
vt 0.55 2.9802322E-08
vt 0.65000004 0.6666666
vt 0.65000004 0.8333333
vt 0.65000004 1
vt 0.6 0.3333333
vt 0.625 0.49999997
vt 0.55 0.16666667
vt 0.525 2.9802322E-08
vt 0.625 0.6666666
vt 0.625 0.8333333
vt 0.625 1
vt 0.57500005 0.3333333
vt 0.6 0.49999997
vt 0.525 0.16666667
vt 0.5 2.9802322E-08
vt 0.6 0.6666666
vt 0.6 0.8333333
vt 0.6 1
vt 0.55 0.3333333
vt 0.57500005 0.49999997
vt 0.5 0.16666667
vt 0.475 2.9802322E-08
vt 0.57500005 0.6666666
vt 0.57500005 0.8333333
vt 0.57500005 1
vt 0.525 0.3333333
vt 0.55 0.49999997
vt 0.47500002 0.16666667
vt 0.45 2.9802322E-08
vt 0.55 0.6666666
vt 0.55 0.8333333
vt 0.55 1
vt 0.5 0.3333333
vt 0.525 0.49999997
vt 0.45 0.16666667
vt 0.42499998 2.9802322E-08
vt 0.525 0.6666666
vt 0.525 0.8333333
vt 0.525 1
vt 0.475 0.3333333
vt 0.5 0.49999997
vt 0.42499998 0.16666667
vt 0.39999998 2.9802322E-08
vt 0.5 0.6666666
vt 0.5 0.8333333
vt 0.5 1
vt 0.45 0.3333333
vt 0.47500002 0.49999997
vt 0.39999998 0.16666667
vt 0.375 2.9802322E-08
vt 0.475 0.6666666
vt 0.47500002 0.8333333
vt 0.475 1
vt 0.42499998 0.3333333
vt 0.45 0.49999997
vt 0.375 0.16666667
vt 0.35000002 2.9802322E-08
vt 0.45 0.6666666
vt 0.45 0.8333333
vt 0.45 1
vt 0.39999998 0.3333333
vt 0.42499998 0.49999997
vt 0.35000002 0.16666667
vt 0.32500002 2.9802322E-08
vt 0.42499998 0.6666666
vt 0.42499998 0.8333333
vt 0.42499998 1
vt 0.375 0.3333333
vt 0.39999998 0.49999997
vt 0.325 0.16666667
vt 0.3 2.9802322E-08
vt 0.39999998 0.6666666
vt 0.39999998 0.8333333
vt 0.39999998 1
vt 0.35000002 0.3333333
vt 0.375 0.49999997
vt 0.3 0.16666667
vt 0.275 2.9802322E-08
vt 0.375 0.6666666
vt 0.375 0.8333333
vt 0.375 1
vt 0.325 0.3333333
vt 0.35000002 0.49999997
vt 0.275 0.16666667
vt 0.25 2.9802322E-08
vt 0.35000002 0.6666666
vt 0.35000002 0.8333333
vt 0.35000002 1
vt 0.3 0.3333333
vt 0.325 0.49999997
vt 0.25 0.16666667
vt 0.22500002 2.9802322E-08
vt 0.325 0.6666666
vt 0.325 0.8333333
vt 0.32500002 1
vt 0.275 0.3333333
vt 0.3 0.49999997
vt 0.22500002 0.16666667
vt 0.20000005 2.9802322E-08
vt 0.3 0.6666666
vt 0.3 0.8333333
vt 0.3 1
vt 0.25 0.3333333
vt 0.275 0.49999997
vt 0.20000005 0.16666667
vt 0.17500004 2.9802322E-08
vt 0.275 0.6666666
vt 0.275 0.8333333
vt 0.275 1
vt 0.22500002 0.3333333
vt 0.25 0.49999997
vt 0.17500004 0.16666667
vt 0.15000004 2.9802322E-08
vt 0.25 0.6666666
vt 0.25 0.8333333
vt 0.25 1
vt 0.20000005 0.3333333
vt 0.22500002 0.49999997
vt 0.15000004 0.16666667
vt 0.12500003 2.9802322E-08
vt 0.22500002 0.6666666
vt 0.22500002 0.8333333
vt 0.22500002 1
vt 0.17500004 0.3333333
vt 0.20000005 0.49999997
vt 0.12500003 0.16666667
vt 0.100000024 2.9802322E-08
vt 0.20000005 0.6666666
vt 0.20000005 0.8333333
vt 0.20000005 1
vt 0.15000004 0.3333333
vt 0.17500004 0.49999997
vt 0.100000024 0.16666667
vt 0.07500002 2.9802322E-08
vt 0.17500004 0.6666666
vt 0.17500004 0.8333333
vt 0.17500004 1
vt 0.12500003 0.3333333
vt 0.15000004 0.49999997
vt 0.07500002 0.16666667
vt 0.050000012 2.9802322E-08
vt 0.15000004 0.6666666
vt 0.15000004 0.8333333
vt 0.15000004 1
vt 0.100000024 0.3333333
vt 0.12500003 0.49999997
vt 0.050000012 0.16666667
vt 0.025000006 2.9802322E-08
vt 0.12500003 0.6666666
vt 0.12500003 0.8333333
vt 0.12500003 1
vt 0.07500002 0.3333333
vt 0.100000024 0.49999997
vt 0.025000006 0.16666667
vt 0 2.9802322E-08
vt 0 0.16666667
vt 0.100000024 0.6666666
vt 0.100000024 0.8333333
vt 0.100000024 1
vt 0.050000012 0.3333333
vt 0.025000006 0.3333333
vt 0 0.3333333
vt 0.07500002 0.49999997
vt 0.07500002 0.6666666
vt 0.07500002 0.8333333
vt 0.07500002 1
vt 0.050000012 0.49999997
vt 0.025000006 0.49999997
vt 0 0.49999997
vt 0.050000012 0.6666666
vt 0.050000012 0.8333333
vt 0.050000012 1
vt 0.025000006 0.6666666
vt 0 0.6666666
vt 0.025000006 0.8333333
vt 0.025000006 1
vt 0 0.8333333
vt 0 1
vn -0 0 1
vn -0 0 1
vn -0 0 1
vn -0 0 1
vn -0 0 1
vn -0 0 1
vn -0 0 1
vn -0 0 1
vn -0 0 1
vn -0 0 1
vn -0 0 1
vn -0 0 1
vn -0 0 1
vn -0 0 1
vn -0 0 1
vn -0 0 1
vn -0 0 1
vn -0 0 1
vn -0 0 1
vn -0 0 1
vn -0 0 1
vn -0 0 1
vn -0 0 1
vn -0 0 1
vn -0 0 1
vn -0 0 1
vn -0 0 1
vn -0 0 1
vn -0 0 1
vn -0 0 1
vn -0 0 1
vn -0 0 1
vn -0 0 1
vn -0 0 1
vn -0 0 1
vn -0 0 1
vn -0 0 1
vn -0 0 1
vn -0 0 1
vn -0 0 1
vn -0 0 1
vn -0 0 1
vn -0 0 1
vn -0 0 1
vn -0 0 1
vn -0 0 1
vn -0 0 1
vn -0 0 1
vn -0 0 1
vn -0 0 1
vn -0 0 1
vn -0 0 1
vn -0 0 1
vn -0 0 1
vn -0 0 1
vn -0 0 1
vn -0 0 1
vn -0 0 1
vn -0 0 1
vn -0 0 1
vn -0 0 1
vn -0 0 1
vn -0 0 1
vn -0 0 1
vn -0 0 1
vn -0 0 1
vn -0 0 1
vn -0 0 1
vn -0 0 1
vn -0 0 1
vn -0 0 1
vn -0 0 1
vn -0 0 1
vn -0 0 1
vn -0 0 1
vn -0 0 1
vn -0 0 1
vn -0 0 1
vn -0 0 1
vn -0 0 1
vn -0 0 1
vn -0 0 1
vn -0 0 1
vn -0 0 1
vn -0 0 1
vn -0 0 1
vn -0 0 1
vn -0 0 1
vn -0 0 1
vn -0 0 1
vn -0 0 1
vn -0 0 1
vn -0 0 1
vn -0 0 1
vn -0 0 1
vn -0 0 1
vn -0 0 1
vn -0 0 1
vn -0 0 1
vn -0 0 1
vn -0 0 1
vn -0 0 1
vn -0 0 1
vn -0 0 1
vn -0 0 1
vn -0 0 1
vn -0 0 1
vn -0 0 1
vn -0 0 1
vn -0 0 1
vn -0 0 1
vn -0 0 1
vn -0 0 1
vn -0 0 1
vn -0 0 1
vn -0 0 1
vn -0 0 1
vn -0 0 1
vn -0 0 1
vn -0 0 1
vn -0 0 1
vn -0 0 1
vn -0 0 1
vn -0 0 1
vn -0 0 1
vn -0 0 1
vn -0 0 1
vn -0 0 1
vn -0 0 1
vn -0 0 1
vn -0 0 1
vn -0 0 1
vn -0 0 1
vn -0 0 1
vn -0 0 1
vn -0 0 1
vn -0 0 1
vn -0 0 1
vn -0 0 1
vn -0 0 1
vn -0 0 1
vn -0 0 1
vn -0 0 1
vn -0 0 1
vn -0 0 1
vn -0 0 1
vn -0 0 1
vn -0 0 1
vn -0 0 1
vn -0 0 1
vn -0 0 1
vn -0 0 1
vn -0 0 1
vn -0 0 1
vn -0 0 1
vn -0 0 1
vn -0 0 1
vn -0 0 1
vn -0 0 1
vn -0 0 1
vn -0 0 1
vn -0 0 1
vn -0 0 1
vn -0 0 1
vn -0 0 1
vn -0 0 1
vn -0 0 1
vn -0 0 1
vn -0 0 1
vn -0 0 1
vn -0 0 1
vn -0 0 1
vn -0 0 1
vn -0 0 1
vn -0 0 1
vn -0 0 1
vn -0 0 1
vn -0 0 1
vn -0 0 1
vn -0 0 1
vn -0 0 1
vn -0 0 1
vn -0 0 1
vn -0 0 1
vn -0 0 1
vn -0 0 1
vn -0 0 1
vn -0 0 1
vn -0 0 1
vn -0 0 1
vn -0 0 1
vn -0 0 1
vn -0 0 1
vn -0 0 1
vn -0 0 1
vn -0 0 1
vn -0 0 1
vn -0 0 1
vn -0 0 1
vn -0 0 1
vn -0 0 1
vn -0 0 1
vn -0 0 1
vn -0 0 1
vn -0 0 1
vn -0 0 1
vn -0 0 1
vn -0 0 1
vn -0 0 1
vn -0 0 1
vn -0 0 1
vn -0 0 1
vn -0 0 1
vn -0 0 1
vn -0 0 1
vn -0 0 1
vn -0 0 1
vn -0 0 1
vn -0 0 1
vn -0 0 1
vn -0 0 1
vn -0 0 1
vn -0 0 1
vn -0 0 1
vn -0 0 1
vn -0 0 1
vn -0 0 1
vn -0 0 1
vn -0 0 1
vn -0 0 1
vn -0 0 1
vn -0 0 1
vn -0 0 1
vn -0 0 1
vn -0 0 1
vn -0 0 1
vn -0 0 1
vn -0 0 1
vn -0 0 1
vn -0 0 1
vn -0 0 1
vn -0 0 1
vn -0 0 1
vn -0 0 1
vn -0 0 1
vn -0 0 1
vn -0 0 1
vn -0 0 1
vn -0 0 1
vn -0 0 1
vn -0 0 1
vn -0 0 1
vn -0 0 1
vn -0 0 1
vn -0 0 1
vn -0 0 1
vn -0 0 1
vn -0 0 1
vn -0 0 1
vn -0 0 1
vn -0 0 1
vn -0 0 1
vn -0 0 1
vn -0 0 1
vn -0 0 1
vn -0 0 1
vn -0 0 1
vn -0 0 1
vn -0 0 1
vn -0 0 1
vn -0 0 1
vn -0 0 1
vn -0 0 1
vn -0 0 1
vn -0 0 1
vn -0 0 1
vn -0 0 1
vn -0 0 1
vn -0 0 1
vn -0 0 1
vn -0 0 1
vn -0 0 1
vn -0 0 1
vn -0 0 1
vn -0 0 1
vn -0 0 1
vn -0 0 1
g fbx_ef_Ring4_0
f 3/3/3 2/2/2 1/1/1
f 4/4/4 3/3/3 1/1/1
f 4/4/4 1/1/1 5/5/5
f 6/6/6 3/3/3 4/4/4
f 7/7/7 4/4/4 5/5/5
f 7/7/7 5/5/5 8/8/8
f 9/9/9 6/6/6 4/4/4
f 9/9/9 4/4/4 7/7/7
f 10/10/10 6/6/6 9/9/9
f 11/11/11 7/7/7 8/8/8
f 11/11/11 8/8/8 12/12/12
f 13/13/13 10/10/10 9/9/9
f 14/14/14 10/10/10 13/13/13
f 15/15/15 9/9/9 7/7/7
f 15/15/15 7/7/7 11/11/11
f 13/13/13 9/9/9 15/15/15
f 16/16/16 11/11/11 12/12/12
f 16/16/16 12/12/12 17/17/17
f 18/18/18 14/14/14 13/13/13
f 19/19/19 14/14/14 18/18/18
f 20/20/20 13/13/13 15/15/15
f 18/18/18 13/13/13 20/20/20
f 21/21/21 15/15/15 11/11/11
f 21/21/21 11/11/11 16/16/16
f 20/20/20 15/15/15 21/21/21
f 22/22/22 16/16/16 17/17/17
f 22/22/22 17/17/17 23/23/23
f 24/24/24 22/22/22 23/23/23
f 25/25/25 19/19/19 18/18/18
f 26/26/26 19/19/19 25/25/25
f 27/27/27 21/21/21 16/16/16
f 27/27/27 16/16/16 22/22/22
f 28/28/28 22/22/22 24/24/24
f 28/28/28 27/27/27 22/22/22
f 29/29/29 28/28/28 24/24/24
f 30/30/30 18/18/18 20/20/20
f 25/25/25 18/18/18 30/30/30
f 31/31/31 20/20/20 21/21/21
f 31/31/31 21/21/21 27/27/27
f 30/30/30 20/20/20 31/31/31
f 32/32/32 26/26/26 25/25/25
f 33/33/33 26/26/26 32/32/32
f 34/34/34 27/27/27 28/28/28
f 34/34/34 31/31/31 27/27/27
f 35/35/35 28/28/28 29/29/29
f 35/35/35 34/34/34 28/28/28
f 36/36/36 35/35/35 29/29/29
f 37/37/37 25/25/25 30/30/30
f 32/32/32 25/25/25 37/37/37
f 38/38/38 30/30/30 31/31/31
f 38/38/38 31/31/31 34/34/34
f 37/37/37 30/30/30 38/38/38
f 39/39/39 33/33/33 32/32/32
f 40/40/40 33/33/33 39/39/39
f 41/41/41 34/34/34 35/35/35
f 41/41/41 38/38/38 34/34/34
f 42/42/42 35/35/35 36/36/36
f 42/42/42 41/41/41 35/35/35
f 43/43/43 42/42/42 36/36/36
f 44/44/44 32/32/32 37/37/37
f 39/39/39 32/32/32 44/44/44
f 45/45/45 37/37/37 38/38/38
f 45/45/45 38/38/38 41/41/41
f 44/44/44 37/37/37 45/45/45
f 46/46/46 40/40/40 39/39/39
f 47/47/47 40/40/40 46/46/46
f 48/48/48 41/41/41 42/42/42
f 48/48/48 45/45/45 41/41/41
f 49/49/49 42/42/42 43/43/43
f 49/49/49 48/48/48 42/42/42
f 50/50/50 49/49/49 43/43/43
f 51/51/51 39/39/39 44/44/44
f 46/46/46 39/39/39 51/51/51
f 52/52/52 44/44/44 45/45/45
f 52/52/52 45/45/45 48/48/48
f 51/51/51 44/44/44 52/52/52
f 53/53/53 47/47/47 46/46/46
f 54/54/54 47/47/47 53/53/53
f 55/55/55 48/48/48 49/49/49
f 55/55/55 52/52/52 48/48/48
f 56/56/56 49/49/49 50/50/50
f 56/56/56 55/55/55 49/49/49
f 57/57/57 56/56/56 50/50/50
f 58/58/58 46/46/46 51/51/51
f 53/53/53 46/46/46 58/58/58
f 59/59/59 51/51/51 52/52/52
f 59/59/59 52/52/52 55/55/55
f 58/58/58 51/51/51 59/59/59
f 60/60/60 54/54/54 53/53/53
f 61/61/61 54/54/54 60/60/60
f 62/62/62 55/55/55 56/56/56
f 62/62/62 59/59/59 55/55/55
f 63/63/63 56/56/56 57/57/57
f 63/63/63 62/62/62 56/56/56
f 64/64/64 63/63/63 57/57/57
f 65/65/65 53/53/53 58/58/58
f 60/60/60 53/53/53 65/65/65
f 66/66/66 58/58/58 59/59/59
f 66/66/66 59/59/59 62/62/62
f 65/65/65 58/58/58 66/66/66
f 67/67/67 61/61/61 60/60/60
f 68/68/68 61/61/61 67/67/67
f 69/69/69 62/62/62 63/63/63
f 69/69/69 66/66/66 62/62/62
f 70/70/70 63/63/63 64/64/64
f 70/70/70 69/69/69 63/63/63
f 71/71/71 70/70/70 64/64/64
f 72/72/72 60/60/60 65/65/65
f 67/67/67 60/60/60 72/72/72
f 73/73/73 65/65/65 66/66/66
f 73/73/73 66/66/66 69/69/69
f 72/72/72 65/65/65 73/73/73
f 74/74/74 68/68/68 67/67/67
f 75/75/75 68/68/68 74/74/74
f 76/76/76 69/69/69 70/70/70
f 76/76/76 73/73/73 69/69/69
f 77/77/77 70/70/70 71/71/71
f 77/77/77 76/76/76 70/70/70
f 78/78/78 77/77/77 71/71/71
f 79/79/79 67/67/67 72/72/72
f 74/74/74 67/67/67 79/79/79
f 80/80/80 72/72/72 73/73/73
f 80/80/80 73/73/73 76/76/76
f 79/79/79 72/72/72 80/80/80
f 81/81/81 75/75/75 74/74/74
f 82/82/82 75/75/75 81/81/81
f 83/83/83 76/76/76 77/77/77
f 83/83/83 80/80/80 76/76/76
f 84/84/84 77/77/77 78/78/78
f 84/84/84 83/83/83 77/77/77
f 85/85/85 84/84/84 78/78/78
f 86/86/86 74/74/74 79/79/79
f 81/81/81 74/74/74 86/86/86
f 87/87/87 79/79/79 80/80/80
f 87/87/87 80/80/80 83/83/83
f 86/86/86 79/79/79 87/87/87
f 88/88/88 82/82/82 81/81/81
f 89/89/89 82/82/82 88/88/88
f 90/90/90 83/83/83 84/84/84
f 90/90/90 87/87/87 83/83/83
f 91/91/91 84/84/84 85/85/85
f 91/91/91 90/90/90 84/84/84
f 92/92/92 91/91/91 85/85/85
f 93/93/93 81/81/81 86/86/86
f 88/88/88 81/81/81 93/93/93
f 94/94/94 86/86/86 87/87/87
f 94/94/94 87/87/87 90/90/90
f 93/93/93 86/86/86 94/94/94
f 95/95/95 89/89/89 88/88/88
f 96/96/96 89/89/89 95/95/95
f 97/97/97 90/90/90 91/91/91
f 97/97/97 94/94/94 90/90/90
f 98/98/98 91/91/91 92/92/92
f 98/98/98 97/97/97 91/91/91
f 99/99/99 98/98/98 92/92/92
f 100/100/100 88/88/88 93/93/93
f 95/95/95 88/88/88 100/100/100
f 101/101/101 93/93/93 94/94/94
f 101/101/101 94/94/94 97/97/97
f 100/100/100 93/93/93 101/101/101
f 102/102/102 96/96/96 95/95/95
f 103/103/103 96/96/96 102/102/102
f 104/104/104 97/97/97 98/98/98
f 104/104/104 101/101/101 97/97/97
f 105/105/105 98/98/98 99/99/99
f 105/105/105 104/104/104 98/98/98
f 106/106/106 105/105/105 99/99/99
f 107/107/107 95/95/95 100/100/100
f 102/102/102 95/95/95 107/107/107
f 108/108/108 100/100/100 101/101/101
f 108/108/108 101/101/101 104/104/104
f 107/107/107 100/100/100 108/108/108
f 109/109/109 103/103/103 102/102/102
f 110/110/110 103/103/103 109/109/109
f 111/111/111 104/104/104 105/105/105
f 111/111/111 108/108/108 104/104/104
f 112/112/112 105/105/105 106/106/106
f 112/112/112 111/111/111 105/105/105
f 113/113/113 112/112/112 106/106/106
f 114/114/114 102/102/102 107/107/107
f 109/109/109 102/102/102 114/114/114
f 115/115/115 107/107/107 108/108/108
f 115/115/115 108/108/108 111/111/111
f 114/114/114 107/107/107 115/115/115
f 116/116/116 110/110/110 109/109/109
f 117/117/117 110/110/110 116/116/116
f 118/118/118 111/111/111 112/112/112
f 118/118/118 115/115/115 111/111/111
f 119/119/119 112/112/112 113/113/113
f 119/119/119 118/118/118 112/112/112
f 120/120/120 119/119/119 113/113/113
f 121/121/121 109/109/109 114/114/114
f 116/116/116 109/109/109 121/121/121
f 122/122/122 114/114/114 115/115/115
f 122/122/122 115/115/115 118/118/118
f 121/121/121 114/114/114 122/122/122
f 123/123/123 117/117/117 116/116/116
f 124/124/124 117/117/117 123/123/123
f 125/125/125 118/118/118 119/119/119
f 125/125/125 122/122/122 118/118/118
f 126/126/126 119/119/119 120/120/120
f 126/126/126 125/125/125 119/119/119
f 127/127/127 126/126/126 120/120/120
f 128/128/128 116/116/116 121/121/121
f 123/123/123 116/116/116 128/128/128
f 129/129/129 121/121/121 122/122/122
f 129/129/129 122/122/122 125/125/125
f 128/128/128 121/121/121 129/129/129
f 130/130/130 124/124/124 123/123/123
f 131/131/131 124/124/124 130/130/130
f 132/132/132 125/125/125 126/126/126
f 132/132/132 129/129/129 125/125/125
f 133/133/133 126/126/126 127/127/127
f 133/133/133 132/132/132 126/126/126
f 134/134/134 133/133/133 127/127/127
f 135/135/135 123/123/123 128/128/128
f 130/130/130 123/123/123 135/135/135
f 136/136/136 128/128/128 129/129/129
f 136/136/136 129/129/129 132/132/132
f 135/135/135 128/128/128 136/136/136
f 137/137/137 131/131/131 130/130/130
f 138/138/138 131/131/131 137/137/137
f 139/139/139 132/132/132 133/133/133
f 139/139/139 136/136/136 132/132/132
f 140/140/140 133/133/133 134/134/134
f 140/140/140 139/139/139 133/133/133
f 141/141/141 140/140/140 134/134/134
f 142/142/142 130/130/130 135/135/135
f 137/137/137 130/130/130 142/142/142
f 143/143/143 135/135/135 136/136/136
f 143/143/143 136/136/136 139/139/139
f 142/142/142 135/135/135 143/143/143
f 144/144/144 138/138/138 137/137/137
f 145/145/145 138/138/138 144/144/144
f 146/146/146 139/139/139 140/140/140
f 146/146/146 143/143/143 139/139/139
f 147/147/147 140/140/140 141/141/141
f 147/147/147 146/146/146 140/140/140
f 148/148/148 147/147/147 141/141/141
f 149/149/149 137/137/137 142/142/142
f 144/144/144 137/137/137 149/149/149
f 150/150/150 142/142/142 143/143/143
f 150/150/150 143/143/143 146/146/146
f 149/149/149 142/142/142 150/150/150
f 151/151/151 145/145/145 144/144/144
f 152/152/152 145/145/145 151/151/151
f 153/153/153 146/146/146 147/147/147
f 153/153/153 150/150/150 146/146/146
f 154/154/154 147/147/147 148/148/148
f 154/154/154 153/153/153 147/147/147
f 155/155/155 154/154/154 148/148/148
f 156/156/156 144/144/144 149/149/149
f 151/151/151 144/144/144 156/156/156
f 157/157/157 149/149/149 150/150/150
f 157/157/157 150/150/150 153/153/153
f 156/156/156 149/149/149 157/157/157
f 158/158/158 152/152/152 151/151/151
f 159/159/159 152/152/152 158/158/158
f 160/160/160 153/153/153 154/154/154
f 160/160/160 157/157/157 153/153/153
f 161/161/161 154/154/154 155/155/155
f 161/161/161 160/160/160 154/154/154
f 162/162/162 161/161/161 155/155/155
f 163/163/163 151/151/151 156/156/156
f 158/158/158 151/151/151 163/163/163
f 164/164/164 156/156/156 157/157/157
f 164/164/164 157/157/157 160/160/160
f 163/163/163 156/156/156 164/164/164
f 165/165/165 159/159/159 158/158/158
f 166/166/166 159/159/159 165/165/165
f 167/167/167 160/160/160 161/161/161
f 167/167/167 164/164/164 160/160/160
f 168/168/168 161/161/161 162/162/162
f 168/168/168 167/167/167 161/161/161
f 169/169/169 168/168/168 162/162/162
f 170/170/170 158/158/158 163/163/163
f 165/165/165 158/158/158 170/170/170
f 171/171/171 163/163/163 164/164/164
f 171/171/171 164/164/164 167/167/167
f 170/170/170 163/163/163 171/171/171
f 172/172/172 166/166/166 165/165/165
f 173/173/173 166/166/166 172/172/172
f 174/174/174 167/167/167 168/168/168
f 174/174/174 171/171/171 167/167/167
f 175/175/175 168/168/168 169/169/169
f 175/175/175 174/174/174 168/168/168
f 176/176/176 175/175/175 169/169/169
f 177/177/177 165/165/165 170/170/170
f 172/172/172 165/165/165 177/177/177
f 178/178/178 170/170/170 171/171/171
f 178/178/178 171/171/171 174/174/174
f 177/177/177 170/170/170 178/178/178
f 179/179/179 173/173/173 172/172/172
f 180/180/180 173/173/173 179/179/179
f 181/181/181 174/174/174 175/175/175
f 181/181/181 178/178/178 174/174/174
f 182/182/182 175/175/175 176/176/176
f 182/182/182 181/181/181 175/175/175
f 183/183/183 182/182/182 176/176/176
f 184/184/184 172/172/172 177/177/177
f 179/179/179 172/172/172 184/184/184
f 185/185/185 177/177/177 178/178/178
f 185/185/185 178/178/178 181/181/181
f 184/184/184 177/177/177 185/185/185
f 186/186/186 180/180/180 179/179/179
f 187/187/187 180/180/180 186/186/186
f 188/188/188 181/181/181 182/182/182
f 188/188/188 185/185/185 181/181/181
f 189/189/189 182/182/182 183/183/183
f 189/189/189 188/188/188 182/182/182
f 190/190/190 189/189/189 183/183/183
f 191/191/191 179/179/179 184/184/184
f 186/186/186 179/179/179 191/191/191
f 192/192/192 184/184/184 185/185/185
f 192/192/192 185/185/185 188/188/188
f 191/191/191 184/184/184 192/192/192
f 193/193/193 187/187/187 186/186/186
f 194/194/194 187/187/187 193/193/193
f 195/195/195 188/188/188 189/189/189
f 195/195/195 192/192/192 188/188/188
f 196/196/196 189/189/189 190/190/190
f 196/196/196 195/195/195 189/189/189
f 197/197/197 196/196/196 190/190/190
f 198/198/198 186/186/186 191/191/191
f 193/193/193 186/186/186 198/198/198
f 199/199/199 191/191/191 192/192/192
f 199/199/199 192/192/192 195/195/195
f 198/198/198 191/191/191 199/199/199
f 200/200/200 194/194/194 193/193/193
f 201/201/201 194/194/194 200/200/200
f 202/202/202 195/195/195 196/196/196
f 202/202/202 199/199/199 195/195/195
f 203/203/203 196/196/196 197/197/197
f 203/203/203 202/202/202 196/196/196
f 204/204/204 203/203/203 197/197/197
f 205/205/205 193/193/193 198/198/198
f 200/200/200 193/193/193 205/205/205
f 206/206/206 198/198/198 199/199/199
f 206/206/206 199/199/199 202/202/202
f 205/205/205 198/198/198 206/206/206
f 207/207/207 201/201/201 200/200/200
f 208/208/208 201/201/201 207/207/207
f 209/209/209 202/202/202 203/203/203
f 209/209/209 206/206/206 202/202/202
f 210/210/210 203/203/203 204/204/204
f 210/210/210 209/209/209 203/203/203
f 211/211/211 210/210/210 204/204/204
f 212/212/212 200/200/200 205/205/205
f 207/207/207 200/200/200 212/212/212
f 213/213/213 205/205/205 206/206/206
f 213/213/213 206/206/206 209/209/209
f 212/212/212 205/205/205 213/213/213
f 214/214/214 208/208/208 207/207/207
f 215/215/215 208/208/208 214/214/214
f 216/216/216 209/209/209 210/210/210
f 216/216/216 213/213/213 209/209/209
f 217/217/217 210/210/210 211/211/211
f 217/217/217 216/216/216 210/210/210
f 218/218/218 217/217/217 211/211/211
f 219/219/219 207/207/207 212/212/212
f 214/214/214 207/207/207 219/219/219
f 220/220/220 212/212/212 213/213/213
f 220/220/220 213/213/213 216/216/216
f 219/219/219 212/212/212 220/220/220
f 221/221/221 215/215/215 214/214/214
f 222/222/222 215/215/215 221/221/221
f 223/223/223 216/216/216 217/217/217
f 223/223/223 220/220/220 216/216/216
f 224/224/224 217/217/217 218/218/218
f 224/224/224 223/223/223 217/217/217
f 225/225/225 224/224/224 218/218/218
f 226/226/226 214/214/214 219/219/219
f 221/221/221 214/214/214 226/226/226
f 227/227/227 219/219/219 220/220/220
f 227/227/227 220/220/220 223/223/223
f 226/226/226 219/219/219 227/227/227
f 228/228/228 222/222/222 221/221/221
f 229/229/229 222/222/222 228/228/228
f 230/230/230 223/223/223 224/224/224
f 230/230/230 227/227/227 223/223/223
f 231/231/231 224/224/224 225/225/225
f 231/231/231 230/230/230 224/224/224
f 232/232/232 231/231/231 225/225/225
f 233/233/233 221/221/221 226/226/226
f 228/228/228 221/221/221 233/233/233
f 234/234/234 226/226/226 227/227/227
f 234/234/234 227/227/227 230/230/230
f 233/233/233 226/226/226 234/234/234
f 235/235/235 229/229/229 228/228/228
f 236/236/236 229/229/229 235/235/235
f 237/237/237 230/230/230 231/231/231
f 237/237/237 234/234/234 230/230/230
f 238/238/238 231/231/231 232/232/232
f 238/238/238 237/237/237 231/231/231
f 239/239/239 238/238/238 232/232/232
f 240/240/240 228/228/228 233/233/233
f 235/235/235 228/228/228 240/240/240
f 241/241/241 233/233/233 234/234/234
f 241/241/241 234/234/234 237/237/237
f 240/240/240 233/233/233 241/241/241
f 242/242/242 236/236/236 235/235/235
f 243/243/243 236/236/236 242/242/242
f 244/244/244 237/237/237 238/238/238
f 244/244/244 241/241/241 237/237/237
f 245/245/245 238/238/238 239/239/239
f 245/245/245 244/244/244 238/238/238
f 246/246/246 245/245/245 239/239/239
f 247/247/247 235/235/235 240/240/240
f 242/242/242 235/235/235 247/247/247
f 248/248/248 240/240/240 241/241/241
f 248/248/248 241/241/241 244/244/244
f 247/247/247 240/240/240 248/248/248
f 249/249/249 243/243/243 242/242/242
f 250/250/250 243/243/243 249/249/249
f 251/251/251 244/244/244 245/245/245
f 251/251/251 248/248/248 244/244/244
f 252/252/252 245/245/245 246/246/246
f 252/252/252 251/251/251 245/245/245
f 253/253/253 252/252/252 246/246/246
f 254/254/254 242/242/242 247/247/247
f 249/249/249 242/242/242 254/254/254
f 255/255/255 247/247/247 248/248/248
f 255/255/255 248/248/248 251/251/251
f 254/254/254 247/247/247 255/255/255
f 256/256/256 250/250/250 249/249/249
f 257/257/257 250/250/250 256/256/256
f 258/258/258 251/251/251 252/252/252
f 258/258/258 255/255/255 251/251/251
f 259/259/259 252/252/252 253/253/253
f 259/259/259 258/258/258 252/252/252
f 260/260/260 259/259/259 253/253/253
f 261/261/261 249/249/249 254/254/254
f 256/256/256 249/249/249 261/261/261
f 262/262/262 254/254/254 255/255/255
f 262/262/262 255/255/255 258/258/258
f 261/261/261 254/254/254 262/262/262
f 263/263/263 257/257/257 256/256/256
f 264/264/264 257/257/257 263/263/263
f 265/265/265 264/264/264 263/263/263
f 266/266/266 258/258/258 259/259/259
f 266/266/266 262/262/262 258/258/258
f 267/267/267 259/259/259 260/260/260
f 267/267/267 266/266/266 259/259/259
f 268/268/268 267/267/267 260/260/260
f 269/269/269 256/256/256 261/261/261
f 263/263/263 256/256/256 269/269/269
f 265/265/265 263/263/263 270/270/270
f 270/270/270 263/263/263 269/269/269
f 271/271/271 265/265/265 270/270/270
f 272/272/272 261/261/261 262/262/262
f 272/272/272 262/262/262 266/266/266
f 269/269/269 261/261/261 272/272/272
f 273/273/273 266/266/266 267/267/267
f 273/273/273 272/272/272 266/266/266
f 274/274/274 267/267/267 268/268/268
f 274/274/274 273/273/273 267/267/267
f 275/275/275 274/274/274 268/268/268
f 276/276/276 269/269/269 272/272/272
f 270/270/270 269/269/269 276/276/276
f 276/276/276 272/272/272 273/273/273
f 271/271/271 270/270/270 277/277/277
f 277/277/277 270/270/270 276/276/276
f 278/278/278 271/271/271 277/277/277
f 279/279/279 276/276/276 273/273/273
f 279/279/279 273/273/273 274/274/274
f 277/277/277 276/276/276 279/279/279
f 280/280/280 274/274/274 275/275/275
f 280/280/280 279/279/279 274/274/274
f 281/281/281 280/280/280 275/275/275
f 278/278/278 277/277/277 282/282/282
f 282/282/282 277/277/277 279/279/279
f 282/282/282 279/279/279 280/280/280
f 283/283/283 278/278/278 282/282/282
f 284/284/284 280/280/280 281/281/281
f 284/284/284 282/282/282 280/280/280
f 283/283/283 282/282/282 284/284/284
f 285/285/285 284/284/284 281/281/281
f 286/286/286 283/283/283 284/284/284
f 286/286/286 284/284/284 285/285/285
f 287/287/287 286/286/286 285/285/285
