g fbx_ef_Square5
v 0.27428347 0.115482815 0
v 0.09566769 0.039624184 0
v 0.073216766 0.073221534 0
v 0.24999635 0.24999867 0
v 0.4694547 0.19134144 0
v 0.0396242 0.09566289 0
v 0.42677593 0.4267758 0
v 0.115483075 0.2742809 0
v 5.5544277E-08 0.103548795 0
v 0.19134195 0.46945462 0
v 1.54432E-07 0.29167938 0
v -0.0396242 0.09566289 0
v 2.5331974E-07 0.5018901 0
v -0.115482844 0.2742809 0
v -0.073216766 0.073221534 0
v -0.19134149 0.46945462 0
v -0.24999632 0.24999869 0
v -0.09566769 0.039624184 0
v -0.42677587 0.42677584 0
v -0.27428344 0.11548304 0
v -0.10354403 2.3671547E-08 0
v -0.46945468 0.19134189 0
v -0.29167676 1.0124274E-07 0
v -0.09566769 -0.039624214 0
v -0.5018902 2.1457672E-07 0
v -0.2742834 -0.11548289 0
v -0.073216766 -0.073221564 0
v -0.46945465 -0.19134156 0
v -0.24999632 -0.24999873 0
v -0.0396242 -0.09566292 0
v -0.42677587 -0.4267759 0
v -0.115483 -0.27428097 0
v -1.2343385E-08 -0.103548825 0
v -0.1913418 -0.4694547 0
v -4.3424595E-08 -0.29167944 0
v 0.0396242 -0.09566292 0
v -7.45058E-08 -0.5018902 0
v 0.11548293 -0.27428097 0
v 0.073216766 -0.073221564 0
v 0.19134165 -0.4694547 0
v 0.24999636 -0.24999873 0
v 0.09566769 -0.039624214 0
v 0.42677596 -0.4267759 0
v 0.27428347 -0.11548297 0
v 0.10354403 -1.3358238E-08 0
v 0.46945474 -0.19134173 0
v 0.2916768 -6.679119E-09 0
v 0.09566769 0.039624184 0
v 0.5018902 0 0
v 0.27428347 0.115482815 0
v 0.4694547 0.19134144 0
vt 0.002844721 0.5004699
vt 0.002844721 1.0006557
vt 0.06498912 1.0006557
vt 0.06498912 0.5004699
vt 0.002844721 0.00028419495
vt 0.12713355 1.0006557
vt 0.06498912 0.00028419495
vt 0.12713355 0.5004699
vt 0.18927795 1.0006557
vt 0.12713355 0.00028419495
vt 0.18927795 0.5004699
vt 0.25142235 1.0006557
vt 0.18927795 0.00028419495
vt 0.25142235 0.5004699
vt 0.31356677 1.0006557
vt 0.25142235 0.00028419495
vt 0.31356677 0.5004699
vt 0.37571117 1.0006557
vt 0.31356677 0.00028419495
vt 0.37571117 0.5004699
vt 0.4378556 1.0006557
vt 0.37571117 0.00028419495
vt 0.4378556 0.5004699
vt 0.5 1.0006557
vt 0.4378556 0.00028419495
vt 0.5 0.5004699
vt 0.5621444 1.0006557
vt 0.5 0.00028419495
vt 0.5621444 0.5004699
vt 0.6242888 1.0006557
vt 0.5621444 0.00028419495
vt 0.6242888 0.5004699
vt 0.6864332 1.0006557
vt 0.6242888 0.00028419495
vt 0.6864332 0.5004699
vt 0.74857765 1.0006557
vt 0.6864332 0.00028419495
vt 0.74857765 0.5004699
vt 0.81072205 1.0006557
vt 0.74857765 0.00028419495
vt 0.81072205 0.5004699
vt 0.87286645 1.0006557
vt 0.81072205 0.00028419495
vt 0.87286645 0.5004699
vt 0.9350109 1.0006557
vt 0.87286645 0.00028419495
vt 0.9350109 0.5004699
vt 0.9971553 1.0006557
vt 0.9350109 0.00028419495
vt 0.9971553 0.5004699
vt 0.9971553 0.00028419495
vn -0 0 1
vn -0 0 1
vn -0 0 1
vn -0 0 1
vn -0 0 1
vn -0 0 1
vn -0 0 1
vn -0 0 1
vn -0 0 1
vn -0 0 1
vn -0 0 1
vn -0 0 1
vn -0 0 1
vn -0 0 1
vn -0 0 1
vn -0 0 1
vn -0 0 1
vn -0 0 1
vn -0 0 1
vn -0 0 1
vn -0 0 1
vn -0 0 1
vn -0 0 1
vn -0 0 1
vn -0 0 1
vn -0 0 1
vn -0 0 1
vn -0 0 1
vn -0 0 1
vn -0 0 1
vn -0 0 1
vn -0 0 1
vn -0 0 1
vn -0 0 1
vn -0 0 1
vn -0 0 1
vn -0 0 1
vn -0 0 1
vn -0 0 1
vn -0 0 1
vn -0 0 1
vn -0 0 1
vn -0 0 1
vn -0 0 1
vn -0 0 1
vn -0 0 1
vn -0 0 1
vn -0 0 1
vn -0 0 1
vn -0 0 1
vn -0 0 1
g fbx_ef_Square5_0
f 3/3/3 2/2/2 1/1/1
f 4/4/4 3/3/3 1/1/1
f 4/4/4 1/1/1 5/5/5
f 6/6/6 3/3/3 4/4/4
f 7/7/7 4/4/4 5/5/5
f 8/8/8 6/6/6 4/4/4
f 8/8/8 4/4/4 7/7/7
f 9/9/9 6/6/6 8/8/8
f 10/10/10 8/8/8 7/7/7
f 11/11/11 9/9/9 8/8/8
f 11/11/11 8/8/8 10/10/10
f 12/12/12 9/9/9 11/11/11
f 13/13/13 11/11/11 10/10/10
f 14/14/14 12/12/12 11/11/11
f 14/14/14 11/11/11 13/13/13
f 15/15/15 12/12/12 14/14/14
f 16/16/16 14/14/14 13/13/13
f 17/17/17 15/15/15 14/14/14
f 17/17/17 14/14/14 16/16/16
f 18/18/18 15/15/15 17/17/17
f 19/19/19 17/17/17 16/16/16
f 20/20/20 18/18/18 17/17/17
f 20/20/20 17/17/17 19/19/19
f 21/21/21 18/18/18 20/20/20
f 22/22/22 20/20/20 19/19/19
f 23/23/23 21/21/21 20/20/20
f 23/23/23 20/20/20 22/22/22
f 24/24/24 21/21/21 23/23/23
f 25/25/25 23/23/23 22/22/22
f 26/26/26 24/24/24 23/23/23
f 26/26/26 23/23/23 25/25/25
f 27/27/27 24/24/24 26/26/26
f 28/28/28 26/26/26 25/25/25
f 29/29/29 27/27/27 26/26/26
f 29/29/29 26/26/26 28/28/28
f 30/30/30 27/27/27 29/29/29
f 31/31/31 29/29/29 28/28/28
f 32/32/32 30/30/30 29/29/29
f 32/32/32 29/29/29 31/31/31
f 33/33/33 30/30/30 32/32/32
f 34/34/34 32/32/32 31/31/31
f 35/35/35 33/33/33 32/32/32
f 35/35/35 32/32/32 34/34/34
f 36/36/36 33/33/33 35/35/35
f 37/37/37 35/35/35 34/34/34
f 38/38/38 36/36/36 35/35/35
f 38/38/38 35/35/35 37/37/37
f 39/39/39 36/36/36 38/38/38
f 40/40/40 38/38/38 37/37/37
f 41/41/41 39/39/39 38/38/38
f 41/41/41 38/38/38 40/40/40
f 42/42/42 39/39/39 41/41/41
f 43/43/43 41/41/41 40/40/40
f 44/44/44 42/42/42 41/41/41
f 44/44/44 41/41/41 43/43/43
f 45/45/45 42/42/42 44/44/44
f 46/46/46 44/44/44 43/43/43
f 47/47/47 45/45/45 44/44/44
f 47/47/47 44/44/44 46/46/46
f 48/48/48 45/45/45 47/47/47
f 49/49/49 47/47/47 46/46/46
f 50/50/50 48/48/48 47/47/47
f 50/50/50 47/47/47 49/49/49
f 51/51/51 50/50/50 49/49/49
