g fbx_ef_Ring16
v 0.4015822 0.2917666 6.8381176E-08
v 0.47208852 0.15339085 6.8381176E-08
v 0.41626307 0.13525209 4.5587452E-08
v 0.35409436 0.2572647 4.5587452E-08
v 0.22952572 0.07457751 2.2793726E-08
v 0.29176667 0.4015823 6.8381176E-08
v 0.19524631 0.14185481 2.2793726E-08
v 0.25726467 0.3540945 4.5587452E-08
v 0.15339081 0.47208846 6.8381176E-08
v 0.14185475 0.19524649 2.2793726E-08
v 0.13525203 0.41626304 4.5587452E-08
v -3.3898921E-09 0.49638304 6.8381176E-08
v 0.07457742 0.2295258 2.2793726E-08
v -1.5728515E-08 0.43768486 4.5587452E-08
v -3.335364E-08 0.2413377 2.2793726E-08
v -0.1533908 0.47208846 6.8381176E-08
v -0.13525203 0.41626304 4.5587452E-08
v -0.07457744 0.2295258 2.2793726E-08
v -0.14185472 0.19524634 2.2793726E-08
v -0.25726464 0.3540945 4.5587452E-08
v -0.29176655 0.4015823 6.8381176E-08
v -0.40158227 0.2917665 6.8381176E-08
v -0.35409445 0.2572646 4.5587452E-08
v -0.19524641 0.14185478 2.2793726E-08
v -0.4720884 0.1533908 6.8381176E-08
v -0.41626295 0.13525206 4.5587452E-08
v -0.22952569 0.07457748 2.2793726E-08
v -0.496383 1.0169655E-08 6.8381176E-08
v -0.43768474 3.3062108E-08 4.5587452E-08
v -0.24133763 6.7767985E-08 2.2793726E-08
v -0.4720884 -0.15339075 6.8381176E-08
v -0.41626295 -0.13525198 4.5587452E-08
v -0.22952569 -0.07457735 2.2793726E-08
v -0.40158227 -0.29176646 6.8381176E-08
v -0.35409445 -0.25726455 4.5587452E-08
v -0.19524628 -0.14185467 2.2793726E-08
v -0.29176646 -0.40158215 6.8381176E-08
v -0.25726458 -0.35409433 4.5587452E-08
v -0.14185472 -0.19524623 2.2793726E-08
v -0.1533908 -0.47208834 6.8381176E-08
v -0.13525203 -0.41626284 4.5587452E-08
v -0.07457744 -0.22952552 2.2793726E-08
v -2.0238577E-08 -0.4963829 6.8381176E-08
v -3.072338E-08 -0.43768466 4.5587452E-08
v -4.195874E-08 -0.24133746 2.2793726E-08
v 0.15339074 -0.47208834 6.8381176E-08
v 0.13525195 -0.41626284 4.5587452E-08
v 0.074577354 -0.22952552 2.2793726E-08
v 0.2917664 -0.40158215 6.8381176E-08
v 0.2572645 -0.35409433 4.5587452E-08
v 0.14185463 -0.19524623 2.2793726E-08
v 0.4015822 -0.29176646 6.8381176E-08
v 0.35409436 -0.25726455 4.5587452E-08
v 0.19524617 -0.14185463 2.2793726E-08
v 0.47208828 -0.1533907 6.8381176E-08
v 0.41626284 -0.13525195 4.5587452E-08
v 0.22952558 -0.07457735 2.2793726E-08
v 0.49638295 2.1402146E-08 6.8381176E-08
v 0.43768468 4.2954753E-08 4.5587452E-08
v 0.47208852 0.15339085 6.8381176E-08
v 0.24133751 7.319461E-08 2.2793726E-08
v 0.41626307 0.13525209 4.5587452E-08
v 0.22952572 0.07457751 2.2793726E-08
vt 0.050000012 0.3
vt 0 0.3
vt 0 0.39999998
vt 0.050000012 0.39999998
vt 0 0.7
vt 0.100000024 0.3
vt 0.050000012 0.7
vt 0.100000024 0.39999998
vt 0.15000004 0.3
vt 0.100000024 0.7
vt 0.15000004 0.39999998
vt 0.20000005 0.3
vt 0.15000004 0.7
vt 0.20000005 0.39999998
vt 0.20000005 0.7
vt 0.25 0.3
vt 0.25 0.39999998
vt 0.25 0.7
vt 0.3 0.7
vt 0.3 0.39999998
vt 0.3 0.3
vt 0.35000002 0.3
vt 0.35000002 0.39999998
vt 0.35000002 0.7
vt 0.39999998 0.3
vt 0.39999998 0.39999998
vt 0.39999998 0.7
vt 0.45 0.3
vt 0.45 0.39999998
vt 0.45 0.7
vt 0.5 0.3
vt 0.5 0.39999998
vt 0.5 0.7
vt 0.55 0.3
vt 0.55 0.39999998
vt 0.55 0.7
vt 0.6 0.3
vt 0.6 0.39999998
vt 0.6 0.7
vt 0.65000004 0.3
vt 0.65000004 0.39999998
vt 0.65000004 0.7
vt 0.70000005 0.3
vt 0.70000005 0.39999998
vt 0.70000005 0.7
vt 0.75000006 0.3
vt 0.75 0.39999998
vt 0.75 0.7
vt 0.79999995 0.3
vt 0.79999995 0.39999998
vt 0.79999995 0.7
vt 0.84999996 0.3
vt 0.84999996 0.39999998
vt 0.84999996 0.7
vt 0.9 0.3
vt 0.9 0.39999998
vt 0.9 0.7
vt 0.95 0.3
vt 0.9499999 0.39999998
vt 1 0.3
vt 0.9499999 0.7
vt 1 0.39999998
vt 1 0.7
vn -0 0 1
vn -0 0 1
vn -0 0 1
vn -0 0 1
vn -0 0 1
vn -0 0 1
vn -0 0 1
vn -0 0 1
vn -0 0 1
vn -0 0 1
vn -0 0 1
vn -0 0 1
vn -0 0 1
vn -0 0 1
vn -0 0 1
vn -0 0 1
vn -0 0 1
vn -0 0 1
vn -0 0 1
vn -0 0 1
vn -0 0 1
vn -0 0 1
vn -0 0 1
vn -0 0 1
vn -0 0 1
vn -0 0 1
vn -0 0 1
vn -0 0 1
vn -0 0 1
vn -0 0 1
vn -0 0 1
vn -0 0 1
vn -0 0 1
vn -0 0 1
vn -0 0 1
vn -0 0 1
vn -0 0 1
vn -0 0 1
vn -0 0 1
vn -0 0 1
vn -0 0 1
vn -0 0 1
vn -0 0 1
vn -0 0 1
vn -0 0 1
vn -0 0 1
vn -0 0 1
vn -0 0 1
vn -0 0 1
vn -0 0 1
vn -0 0 1
vn -0 0 1
vn -0 0 1
vn -0 0 1
vn -0 0 1
vn -0 0 1
vn -0 0 1
vn -0 0 1
vn -0 0 1
vn -0 0 1
vn -0 0 1
vn -0 0 1
vn -0 0 1
g fbx_ef_Ring16_0
f 3/3/3 2/2/2 1/1/1
f 3/3/3 1/1/1 4/4/4
f 5/5/5 3/3/3 4/4/4
f 4/4/4 1/1/1 6/6/6
f 5/5/5 4/4/4 7/7/7
f 4/4/4 6/6/6 8/8/8
f 7/7/7 4/4/4 8/8/8
f 8/8/8 6/6/6 9/9/9
f 7/7/7 8/8/8 10/10/10
f 8/8/8 9/9/9 11/11/11
f 10/10/10 8/8/8 11/11/11
f 11/11/11 9/9/9 12/12/12
f 10/10/10 11/11/11 13/13/13
f 11/11/11 12/12/12 14/14/14
f 13/13/13 11/11/11 14/14/14
f 13/13/13 14/14/14 15/15/15
f 14/14/14 12/12/12 16/16/16
f 15/15/15 14/14/14 17/17/17
f 14/14/14 16/16/16 17/17/17
f 15/15/15 17/17/17 18/18/18
f 19/19/19 18/18/18 17/17/17
f 20/20/20 17/17/17 16/16/16
f 19/19/19 17/17/17 20/20/20
f 20/20/20 16/16/16 21/21/21
f 20/20/20 21/21/21 22/22/22
f 19/19/19 20/20/20 23/23/23
f 20/20/20 22/22/22 23/23/23
f 19/19/19 23/23/23 24/24/24
f 23/23/23 22/22/22 25/25/25
f 24/24/24 23/23/23 26/26/26
f 23/23/23 25/25/25 26/26/26
f 24/24/24 26/26/26 27/27/27
f 26/26/26 25/25/25 28/28/28
f 27/27/27 26/26/26 29/29/29
f 26/26/26 28/28/28 29/29/29
f 27/27/27 29/29/29 30/30/30
f 29/29/29 28/28/28 31/31/31
f 30/30/30 29/29/29 32/32/32
f 29/29/29 31/31/31 32/32/32
f 30/30/30 32/32/32 33/33/33
f 32/32/32 31/31/31 34/34/34
f 33/33/33 32/32/32 35/35/35
f 32/32/32 34/34/34 35/35/35
f 33/33/33 35/35/35 36/36/36
f 35/35/35 34/34/34 37/37/37
f 36/36/36 35/35/35 38/38/38
f 35/35/35 37/37/37 38/38/38
f 36/36/36 38/38/38 39/39/39
f 38/38/38 37/37/37 40/40/40
f 39/39/39 38/38/38 41/41/41
f 38/38/38 40/40/40 41/41/41
f 39/39/39 41/41/41 42/42/42
f 41/41/41 40/40/40 43/43/43
f 42/42/42 41/41/41 44/44/44
f 41/41/41 43/43/43 44/44/44
f 42/42/42 44/44/44 45/45/45
f 44/44/44 43/43/43 46/46/46
f 45/45/45 44/44/44 47/47/47
f 44/44/44 46/46/46 47/47/47
f 45/45/45 47/47/47 48/48/48
f 47/47/47 46/46/46 49/49/49
f 48/48/48 47/47/47 50/50/50
f 47/47/47 49/49/49 50/50/50
f 48/48/48 50/50/50 51/51/51
f 50/50/50 49/49/49 52/52/52
f 51/51/51 50/50/50 53/53/53
f 50/50/50 52/52/52 53/53/53
f 51/51/51 53/53/53 54/54/54
f 53/53/53 52/52/52 55/55/55
f 54/54/54 53/53/53 56/56/56
f 53/53/53 55/55/55 56/56/56
f 54/54/54 56/56/56 57/57/57
f 56/56/56 55/55/55 58/58/58
f 57/57/57 56/56/56 59/59/59
f 56/56/56 58/58/58 59/59/59
f 59/59/59 58/58/58 60/60/60
f 57/57/57 59/59/59 61/61/61
f 59/59/59 60/60/60 62/62/62
f 61/61/61 59/59/59 62/62/62
f 61/61/61 62/62/62 63/63/63
