g fbx_ef_Ring15
v 0.3849991 0.27971834 4.4465327E-08
v 0.45259383 0.14705664 4.4465327E-08
v 0.17912081 0.058199976 2.2232664E-08
v 0.15236935 0.110702895 2.2232664E-08
v 0.27971828 0.38499925 4.4465327E-08
v 0.11070278 0.15236953 2.2232664E-08
v 0.1470566 0.45259374 4.4465327E-08
v 0.058199883 0.17912094 2.2232664E-08
v -1.3746073E-08 0.47588524 4.4465327E-08
v -3.7858246E-08 0.18833889 2.2232664E-08
v -0.1470566 0.45259374 4.4465327E-08
v -0.05819992 0.17912094 2.2232664E-08
v -0.11070282 0.15236938 2.2232664E-08
v -0.27971828 0.38499925 4.4465327E-08
v -0.3849992 0.27971822 4.4465327E-08
v -0.15236947 0.11070288 2.2232664E-08
v -0.45259365 0.14705662 4.4465327E-08
v -0.17912088 0.058199964 2.2232664E-08
v -0.47588512 2.4738503E-08 4.4465327E-08
v -0.18833882 7.6544254E-08 2.2232664E-08
v -0.45259365 -0.14705655 4.4465327E-08
v -0.17912088 -0.058199808 2.2232664E-08
v -0.3849992 -0.27971816 4.4465327E-08
v -0.15236932 -0.11070272 2.2232664E-08
v -0.2797182 -0.38499907 4.4465327E-08
v -0.11070281 -0.15236929 2.2232664E-08
v -0.1470566 -0.45259354 4.4465327E-08
v -0.058199916 -0.1791207 2.2232664E-08
v -3.0049666E-08 -0.47588506 4.4465327E-08
v -4.4573625E-08 -0.18833865 2.2232664E-08
v 0.14705652 -0.45259354 4.4465327E-08
v 0.05819983 -0.1791207 2.2232664E-08
v 0.2797181 -0.38499907 4.4465327E-08
v 0.110702716 -0.15236929 2.2232664E-08
v 0.3849991 -0.27971816 4.4465327E-08
v 0.15236923 -0.11070271 2.2232664E-08
v 0.45259354 -0.14705652 4.4465327E-08
v 0.17912076 -0.058199808 2.2232664E-08
v 0.47588506 3.549456E-08 4.4465327E-08
v 0.1883387 8.077918E-08 2.2232664E-08
v 0.45259383 0.14705664 4.4465327E-08
v 0.17912081 0.058199976 2.2232664E-08
v 0.46225056 0.1501943 6.6697986E-08
v 0.45114145 0.14658475 5.558166E-08
v 0.43303064 0.22064012 6.6697986E-08
v 0.42262375 0.21533756 5.558166E-08
v 0.3800996 0.12350197 4.4465327E-08
v 0.35607278 0.18142825 4.4465327E-08
v 0.39321366 0.28568643 6.6697986E-08
v 0.32333222 0.23491481 4.4465327E-08
v 0.3837637 0.27882066 5.558166E-08
v 0.343655 0.34365496 6.6697986E-08
v 0.33539605 0.33539608 5.558166E-08
v 0.28258097 0.28258103 4.4465327E-08
v 0.28568652 0.39321372 6.6697986E-08
v 0.23491475 0.32333234 4.4465327E-08
v 0.2788207 0.3837638 5.558166E-08
v 0.22064015 0.43303064 6.6697986E-08
v 0.21533757 0.42262375 5.558166E-08
v 0.18142815 0.3560727 4.4465327E-08
v 0.15019432 0.4622505 6.6697986E-08
v 0.123501904 0.38009948 4.4465327E-08
v 0.14658475 0.4511414 5.558166E-08
v 0.07602743 0.48001817 6.6697986E-08
v 0.07420028 0.46848208 5.558166E-08
v 0.06251595 0.39471027 4.4465327E-08
v 2.9617842E-08 0.4860389 6.6697986E-08
v 1.6185846E-08 0.39966035 4.4465327E-08
v 2.4534422E-08 0.4743581 5.558166E-08
v -0.07602736 0.48001817 6.6697986E-08
v -0.07420022 0.46848208 5.558166E-08
v -0.06251592 0.39471027 4.4465327E-08
v -0.15019423 0.4622505 6.6697986E-08
v -0.12350187 0.38009948 4.4465327E-08
v -0.14658467 0.4511414 5.558166E-08
v -0.22064003 0.43303064 6.6697986E-08
v -0.21533747 0.42262375 5.558166E-08
v -0.18142815 0.3560727 4.4465327E-08
v -0.2349147 0.32333234 4.4465327E-08
v -0.2788206 0.3837638 5.558166E-08
v -0.28568637 0.39321372 6.6697986E-08
v -0.3436549 0.3436549 6.6697986E-08
v -0.335396 0.335396 5.558166E-08
v -0.28258094 0.282581 4.4465327E-08
v -0.39321366 0.28568634 6.6697986E-08
v -0.3233322 0.2349147 4.4465327E-08
v -0.3837637 0.27882057 5.558166E-08
v -0.43303058 0.22064002 6.6697986E-08
v -0.4226237 0.21533749 5.558166E-08
v -0.35607263 0.18142825 4.4465327E-08
v -0.46225047 0.15019424 6.6697986E-08
v -0.3800994 0.12350196 4.4465327E-08
v -0.45114133 0.1465847 5.558166E-08
v -0.48001808 0.0760274 6.6697986E-08
v -0.46848196 0.074200265 5.558166E-08
v -0.39471027 0.06251591 4.4465327E-08
v -0.48603883 1.18766454E-08 6.6697986E-08
v -0.39966023 3.3279477E-08 4.4465327E-08
v -0.47435802 2.0025208E-08 5.558166E-08
v -0.48001808 -0.07602736 6.6697986E-08
v -0.46848196 -0.07420022 5.558166E-08
v -0.39471027 -0.062515914 4.4465327E-08
v -0.46225047 -0.15019423 6.6697986E-08
v -0.3800994 -0.12350185 4.4465327E-08
v -0.45114133 -0.14658466 5.558166E-08
v -0.43303058 -0.22064 6.6697986E-08
v -0.4226237 -0.21533744 5.558166E-08
v -0.35607263 -0.18142805 4.4465327E-08
v -0.39321363 -0.2856863 6.6697986E-08
v -0.3233322 -0.2349146 4.4465327E-08
v -0.38376367 -0.27882054 5.558166E-08
v -0.34365487 -0.34365484 6.6697986E-08
v -0.33539596 -0.33539593 5.558166E-08
v -0.28258094 -0.28258088 4.4465327E-08
v -0.28568628 -0.39321357 6.6697986E-08
v -0.23491468 -0.32333216 4.4465327E-08
v -0.2788205 -0.3837636 5.558166E-08
v -0.22063997 -0.4330305 6.6697986E-08
v -0.21533743 -0.4226236 5.558166E-08
v -0.18142815 -0.3560726 4.4465327E-08
v -0.15019421 -0.46225038 6.6697986E-08
v -0.12350187 -0.38009924 4.4465327E-08
v -0.14658466 -0.45114124 5.558166E-08
v -0.07602737 -0.48001802 6.6697986E-08
v -0.074200235 -0.4684819 5.558166E-08
v -0.06251593 -0.39471015 4.4465327E-08
v 7.8592794E-09 -0.48603874 6.6697986E-08
v -1.5311485E-09 -0.3996601 4.4465327E-08
v 3.043322E-09 -0.47435793 5.558166E-08
v 0.076027386 -0.48001802 6.6697986E-08
v 0.074200235 -0.4684819 5.558166E-08
v 0.06251589 -0.39471015 4.4465327E-08
v 0.15019421 -0.46225038 6.6697986E-08
v 0.12350188 -0.38009924 4.4465327E-08
v 0.14658464 -0.45114124 5.558166E-08
v 0.22063997 -0.4330305 6.6697986E-08
v 0.21533743 -0.4226236 5.558166E-08
v 0.18142815 -0.3560726 4.4465327E-08
v 0.28568628 -0.39321357 6.6697986E-08
v 0.23491468 -0.32333216 4.4465327E-08
v 0.2788205 -0.3837636 5.558166E-08
v 0.34365487 -0.34365484 6.6697986E-08
v 0.33539596 -0.33539593 5.558166E-08
v 0.28258097 -0.28258088 4.4465327E-08
v 0.39321363 -0.2856863 6.6697986E-08
v 0.32333222 -0.2349146 4.4465327E-08
v 0.38376364 -0.27882054 5.558166E-08
v 0.43303052 -0.22063997 6.6697986E-08
v 0.42262363 -0.21533743 5.558166E-08
v 0.35607263 -0.18142805 4.4465327E-08
v 0.46225038 -0.15019417 6.6697986E-08
v 0.38009933 -0.12350181 4.4465327E-08
v 0.45114127 -0.14658462 5.558166E-08
v 0.48001805 -0.07602734 6.6697986E-08
v 0.46848193 -0.07420019 5.558166E-08
v 0.39471018 -0.06251586 4.4465327E-08
v 0.48603883 3.315259E-08 6.6697986E-08
v 0.39966023 4.6489983E-08 4.4465327E-08
v 0.47435802 3.8326366E-08 5.558166E-08
v 0.48001817 0.07602743 6.6697986E-08
v 0.46848205 0.074200295 5.558166E-08
v 0.39471018 0.06251594 4.4465327E-08
v 0.46225056 0.1501943 6.6697986E-08
v 0.3800996 0.12350197 4.4465327E-08
v 0.45114145 0.14658475 5.558166E-08
vt 0.9499999 0.40000004
vt 1 0.40000004
vt 1 0.10000008
vt 0.95 0.10000008
vt 0.9 0.40000004
vt 0.9 0.10000008
vt 0.8499999 0.40000004
vt 0.84999996 0.10000008
vt 0.79999995 0.40000004
vt 0.79999995 0.100000024
vt 0.75 0.40000004
vt 0.75 0.100000024
vt 0.7 0.100000024
vt 0.6999999 0.40000004
vt 0.65 0.40000004
vt 0.65 0.100000024
vt 0.6 0.40000004
vt 0.6 0.100000024
vt 0.54999995 0.40000004
vt 0.55 0.100000024
vt 0.49999997 0.40000004
vt 0.5 0.100000024
vt 0.44999996 0.40000004
vt 0.45 0.100000024
vt 0.39999995 0.40000004
vt 0.39999998 0.100000024
vt 0.34999993 0.40000004
vt 0.34999996 0.100000024
vt 0.29999992 0.39999998
vt 0.29999995 0.100000024
vt 0.24999997 0.39999998
vt 0.25 0.100000024
vt 0.20000002 0.39999998
vt 0.20000005 0.100000024
vt 0.15 0.39999998
vt 0.15000004 0.099999964
vt 0.099999994 0.39999998
vt 0.100000024 0.099999964
vt 0.05000004 0.39999998
vt 0.05000007 0.099999964
vt -5.9604645E-08 0.39999998
vt 0 0.099999964
vt 1 0.7999972
vt 1 0.76264036
vt 0.97500455 0.7999972
vt 0.9750046 0.76264036
vt 1 0.59999907
vt 0.9750046 0.59999907
vt 0.9500067 0.7999972
vt 0.9500067 0.59999907
vt 0.9500067 0.76264036
vt 0.925009 0.7999972
vt 0.9250091 0.76264036
vt 0.9250091 0.59999907
vt 0.9000112 0.7999972
vt 0.90001124 0.59999907
vt 0.90001124 0.76264036
vt 0.87501585 0.7999972
vt 0.87501585 0.76264036
vt 0.87501585 0.59999907
vt 0.8499793 0.7999972
vt 0.8499793 0.59999907
vt 0.8499793 0.76264036
vt 0.82498145 0.7999996
vt 0.82498145 0.76264167
vt 0.82498145 0.59999907
vt 0.79998374 0.7999996
vt 0.79998374 0.59999907
vt 0.79998374 0.76264167
vt 0.7749859 0.7999996
vt 0.77498597 0.76264167
vt 0.77498597 0.59999907
vt 0.74999046 0.7999993
vt 0.74999046 0.59999907
vt 0.74999046 0.7626416
vt 0.72499275 0.7999993
vt 0.72499275 0.7626416
vt 0.72499275 0.59999907
vt 0.6999562 0.59999907
vt 0.6999562 0.7626416
vt 0.6999562 0.7999993
vt 0.67499936 0.7999993
vt 0.67499936 0.7626416
vt 0.67499936 0.59999907
vt 0.6500015 0.7999993
vt 0.6500015 0.59999907
vt 0.6500015 0.7626416
vt 0.6250039 0.7999993
vt 0.6250039 0.7626416
vt 0.62500393 0.59999907
vt 0.6000083 0.7999993
vt 0.60000837 0.59999907
vt 0.6000083 0.7626416
vt 0.57501054 0.7999993
vt 0.57501054 0.7626416
vt 0.57501054 0.59999907
vt 0.55001277 0.7999993
vt 0.55001277 0.59999907
vt 0.55001277 0.7626416
vt 0.5250174 0.7999993
vt 0.5250174 0.7626416
vt 0.5250174 0.59999907
vt 0.50001943 0.7999993
vt 0.50001943 0.59999907
vt 0.50001943 0.7626416
vt 0.47502393 0.7999993
vt 0.47502396 0.7626416
vt 0.47502396 0.59999907
vt 0.4499873 0.7999993
vt 0.44998732 0.59999907
vt 0.4499873 0.7626416
vt 0.4249875 0.7999993
vt 0.4249875 0.7626416
vt 0.42498752 0.59999907
vt 0.40003318 0.7999993
vt 0.4000332 0.59999907
vt 0.40003318 0.7626416
vt 0.37503302 0.7999993
vt 0.37503302 0.7626416
vt 0.37503305 0.59999907
vt 0.3500374 0.7999993
vt 0.35003743 0.59999907
vt 0.3500374 0.7626416
vt 0.32504183 0.7999993
vt 0.32504183 0.7626416
vt 0.32504186 0.59999907
vt 0.3000418 0.7999993
vt 0.30004182 0.59999907
vt 0.3000418 0.7626416
vt 0.2750051 0.7999993
vt 0.2750051 0.7626416
vt 0.27500513 0.59999907
vt 0.25001 0.7999993
vt 0.25001004 0.59999907
vt 0.25001 0.7626416
vt 0.22500986 0.79999924
vt 0.22500989 0.76264155
vt 0.22500989 0.59999907
vt 0.20001441 0.79999924
vt 0.20001444 0.59999907
vt 0.20001444 0.76264155
vt 0.17497766 0.79999924
vt 0.17497769 0.76264155
vt 0.17497769 0.59999907
vt 0.14998221 0.8000009
vt 0.14998224 0.59999907
vt 0.14998224 0.76264226
vt 0.12498236 0.8000009
vt 0.12498239 0.76264226
vt 0.12498239 0.59999907
vt 0.09998679 0.8000009
vt 0.09998682 0.59999907
vt 0.09998682 0.76264226
vt 0.074991345 0.8000009
vt 0.074991375 0.76264226
vt 0.074991375 0.59999907
vt 0.04999125 0.8000009
vt 0.04999128 0.59999907
vt 0.04999128 0.76264226
vt 0.025036693 0.8000009
vt 0.025036722 0.76264226
vt 0.025036722 0.59999907
vt 0 0.8000009
vt 2.9802322E-08 0.59999907
vt 2.9802322E-08 0.76264226
vn -0 0 1
vn -0 0 1
vn -0 0 1
vn -0 0 1
vn -0 0 1
vn -0 0 1
vn -0 0 1
vn -0 0 1
vn -0 0 1
vn -0 0 1
vn -0 0 1
vn -0 0 1
vn -0 0 1
vn -0 0 1
vn -0 0 1
vn -0 0 1
vn -0 0 1
vn -0 0 1
vn -0 0 1
vn -0 0 1
vn -0 0 1
vn -0 0 1
vn -0 0 1
vn -0 0 1
vn -0 0 1
vn -0 0 1
vn -0 0 1
vn -0 0 1
vn -0 0 1
vn -0 0 1
vn -0 0 1
vn -0 0 1
vn -0 0 1
vn -0 0 1
vn -0 0 1
vn -0 0 1
vn -0 0 1
vn -0 0 1
vn -0 0 1
vn -0 0 1
vn -0 0 1
vn -0 0 1
vn -0 0 1
vn -0 0 1
vn -0 0 1
vn -0 0 1
vn -0 0 1
vn -0 0 1
vn -0 0 1
vn -0 0 1
vn -0 0 1
vn -0 0 1
vn -0 0 1
vn -0 0 1
vn -0 0 1
vn -0 0 1
vn -0 0 1
vn -0 0 1
vn -0 0 1
vn -0 0 1
vn -0 0 1
vn -0 0 1
vn -0 0 1
vn -0 0 1
vn -0 0 1
vn -0 0 1
vn -0 0 1
vn -0 0 1
vn -0 0 1
vn -0 0 1
vn -0 0 1
vn -0 0 1
vn -0 0 1
vn -0 0 1
vn -0 0 1
vn -0 0 1
vn -0 0 1
vn -0 0 1
vn -0 0 1
vn -0 0 1
vn -0 0 1
vn -0 0 1
vn -0 0 1
vn -0 0 1
vn -0 0 1
vn -0 0 1
vn -0 0 1
vn -0 0 1
vn -0 0 1
vn -0 0 1
vn -0 0 1
vn -0 0 1
vn -0 0 1
vn -0 0 1
vn -0 0 1
vn -0 0 1
vn -0 0 1
vn -0 0 1
vn -0 0 1
vn -0 0 1
vn -0 0 1
vn -0 0 1
vn -0 0 1
vn -0 0 1
vn -0 0 1
vn -0 0 1
vn -0 0 1
vn -0 0 1
vn -0 0 1
vn -0 0 1
vn -0 0 1
vn -0 0 1
vn -0 0 1
vn -0 0 1
vn -0 0 1
vn -0 0 1
vn -0 0 1
vn -0 0 1
vn -0 0 1
vn -0 0 1
vn -0 0 1
vn -0 0 1
vn -0 0 1
vn -0 0 1
vn -0 0 1
vn -0 0 1
vn -0 0 1
vn -0 0 1
vn -0 0 1
vn -0 0 1
vn -0 0 1
vn -0 0 1
vn -0 0 1
vn -0 0 1
vn -0 0 1
vn -0 0 1
vn -0 0 1
vn -0 0 1
vn -0 0 1
vn -0 0 1
vn -0 0 1
vn -0 0 1
vn -0 0 1
vn -0 0 1
vn -0 0 1
vn -0 0 1
vn -0 0 1
vn -0 0 1
vn -0 0 1
vn -0 0 1
vn -0 0 1
vn -0 0 1
vn -0 0 1
vn -0 0 1
vn -0 0 1
vn -0 0 1
vn -0 0 1
vn -0 0 1
vn -0 0 1
vn -0 0 1
vn -0 0 1
vn -0 0 1
vn -0 0 1
vn -0 0 1
vn -0 0 1
g fbx_ef_Ring15_0
f 3/3/3 2/2/2 1/1/1
f 3/3/3 1/1/1 4/4/4
f 4/4/4 1/1/1 5/5/5
f 4/4/4 5/5/5 6/6/6
f 6/6/6 5/5/5 7/7/7
f 6/6/6 7/7/7 8/8/8
f 8/8/8 7/7/7 9/9/9
f 8/8/8 9/9/9 10/10/10
f 10/10/10 9/9/9 11/11/11
f 10/10/10 11/11/11 12/12/12
f 13/13/13 12/12/12 11/11/11
f 13/13/13 11/11/11 14/14/14
f 13/13/13 14/14/14 15/15/15
f 13/13/13 15/15/15 16/16/16
f 16/16/16 15/15/15 17/17/17
f 16/16/16 17/17/17 18/18/18
f 18/18/18 17/17/17 19/19/19
f 18/18/18 19/19/19 20/20/20
f 20/20/20 19/19/19 21/21/21
f 20/20/20 21/21/21 22/22/22
f 22/22/22 21/21/21 23/23/23
f 22/22/22 23/23/23 24/24/24
f 24/24/24 23/23/23 25/25/25
f 24/24/24 25/25/25 26/26/26
f 26/26/26 25/25/25 27/27/27
f 26/26/26 27/27/27 28/28/28
f 28/28/28 27/27/27 29/29/29
f 28/28/28 29/29/29 30/30/30
f 30/30/30 29/29/29 31/31/31
f 30/30/30 31/31/31 32/32/32
f 32/32/32 31/31/31 33/33/33
f 32/32/32 33/33/33 34/34/34
f 34/34/34 33/33/33 35/35/35
f 34/34/34 35/35/35 36/36/36
f 36/36/36 35/35/35 37/37/37
f 36/36/36 37/37/37 38/38/38
f 38/38/38 37/37/37 39/39/39
f 38/38/38 39/39/39 40/40/40
f 40/40/40 39/39/39 41/41/41
f 40/40/40 41/41/41 42/42/42
f 45/45/45 44/44/44 43/43/43
f 45/45/45 46/46/46 44/44/44
f 46/46/46 47/47/47 44/44/44
f 46/46/46 48/48/48 47/47/47
f 46/46/46 45/45/45 49/49/49
f 46/46/46 50/50/50 48/48/48
f 46/46/46 49/49/49 51/51/51
f 46/46/46 51/51/51 50/50/50
f 52/52/52 51/51/51 49/49/49
f 53/53/53 50/50/50 51/51/51
f 52/52/52 53/53/53 51/51/51
f 53/53/53 54/54/54 50/50/50
f 53/53/53 52/52/52 55/55/55
f 53/53/53 56/56/56 54/54/54
f 53/53/53 55/55/55 57/57/57
f 53/53/53 57/57/57 56/56/56
f 58/58/58 57/57/57 55/55/55
f 59/59/59 56/56/56 57/57/57
f 58/58/58 59/59/59 57/57/57
f 59/59/59 60/60/60 56/56/56
f 59/59/59 58/58/58 61/61/61
f 59/59/59 62/62/62 60/60/60
f 59/59/59 61/61/61 63/63/63
f 59/59/59 63/63/63 62/62/62
f 64/64/64 63/63/63 61/61/61
f 65/65/65 62/62/62 63/63/63
f 64/64/64 65/65/65 63/63/63
f 65/65/65 66/66/66 62/62/62
f 65/65/65 64/64/64 67/67/67
f 65/65/65 68/68/68 66/66/66
f 65/65/65 67/67/67 69/69/69
f 65/65/65 69/69/69 68/68/68
f 70/70/70 69/69/69 67/67/67
f 71/71/71 68/68/68 69/69/69
f 70/70/70 71/71/71 69/69/69
f 71/71/71 72/72/72 68/68/68
f 71/71/71 70/70/70 73/73/73
f 71/71/71 74/74/74 72/72/72
f 71/71/71 73/73/73 75/75/75
f 71/71/71 75/75/75 74/74/74
f 75/75/75 73/73/73 76/76/76
f 74/74/74 75/75/75 77/77/77
f 75/75/75 76/76/76 77/77/77
f 74/74/74 77/77/77 78/78/78
f 77/77/77 79/79/79 78/78/78
f 76/76/76 80/80/80 77/77/77
f 77/77/77 80/80/80 79/79/79
f 76/76/76 81/81/81 80/80/80
f 82/82/82 80/80/80 81/81/81
f 83/83/83 79/79/79 80/80/80
f 82/82/82 83/83/83 80/80/80
f 83/83/83 84/84/84 79/79/79
f 83/83/83 82/82/82 85/85/85
f 83/83/83 86/86/86 84/84/84
f 83/83/83 85/85/85 87/87/87
f 83/83/83 87/87/87 86/86/86
f 88/88/88 87/87/87 85/85/85
f 89/89/89 86/86/86 87/87/87
f 88/88/88 89/89/89 87/87/87
f 89/89/89 90/90/90 86/86/86
f 89/89/89 88/88/88 91/91/91
f 89/89/89 92/92/92 90/90/90
f 89/89/89 91/91/91 93/93/93
f 89/89/89 93/93/93 92/92/92
f 94/94/94 93/93/93 91/91/91
f 95/95/95 92/92/92 93/93/93
f 94/94/94 95/95/95 93/93/93
f 95/95/95 96/96/96 92/92/92
f 95/95/95 94/94/94 97/97/97
f 95/95/95 98/98/98 96/96/96
f 95/95/95 97/97/97 99/99/99
f 95/95/95 99/99/99 98/98/98
f 100/100/100 99/99/99 97/97/97
f 101/101/101 98/98/98 99/99/99
f 100/100/100 101/101/101 99/99/99
f 101/101/101 102/102/102 98/98/98
f 101/101/101 100/100/100 103/103/103
f 101/101/101 104/104/104 102/102/102
f 101/101/101 103/103/103 105/105/105
f 101/101/101 105/105/105 104/104/104
f 106/106/106 105/105/105 103/103/103
f 107/107/107 104/104/104 105/105/105
f 106/106/106 107/107/107 105/105/105
f 107/107/107 108/108/108 104/104/104
f 107/107/107 106/106/106 109/109/109
f 107/107/107 110/110/110 108/108/108
f 107/107/107 109/109/109 111/111/111
f 107/107/107 111/111/111 110/110/110
f 112/112/112 111/111/111 109/109/109
f 113/113/113 110/110/110 111/111/111
f 112/112/112 113/113/113 111/111/111
f 113/113/113 114/114/114 110/110/110
f 113/113/113 112/112/112 115/115/115
f 113/113/113 116/116/116 114/114/114
f 113/113/113 115/115/115 117/117/117
f 113/113/113 117/117/117 116/116/116
f 118/118/118 117/117/117 115/115/115
f 119/119/119 116/116/116 117/117/117
f 118/118/118 119/119/119 117/117/117
f 119/119/119 120/120/120 116/116/116
f 119/119/119 118/118/118 121/121/121
f 119/119/119 122/122/122 120/120/120
f 119/119/119 121/121/121 123/123/123
f 119/119/119 123/123/123 122/122/122
f 124/124/124 123/123/123 121/121/121
f 125/125/125 122/122/122 123/123/123
f 124/124/124 125/125/125 123/123/123
f 125/125/125 126/126/126 122/122/122
f 125/125/125 124/124/124 127/127/127
f 125/125/125 128/128/128 126/126/126
f 125/125/125 127/127/127 129/129/129
f 125/125/125 129/129/129 128/128/128
f 130/130/130 129/129/129 127/127/127
f 131/131/131 128/128/128 129/129/129
f 130/130/130 131/131/131 129/129/129
f 131/131/131 132/132/132 128/128/128
f 131/131/131 130/130/130 133/133/133
f 131/131/131 134/134/134 132/132/132
f 131/131/131 133/133/133 135/135/135
f 131/131/131 135/135/135 134/134/134
f 136/136/136 135/135/135 133/133/133
f 137/137/137 134/134/134 135/135/135
f 136/136/136 137/137/137 135/135/135
f 137/137/137 138/138/138 134/134/134
f 137/137/137 136/136/136 139/139/139
f 137/137/137 140/140/140 138/138/138
f 137/137/137 139/139/139 141/141/141
f 137/137/137 141/141/141 140/140/140
f 142/142/142 141/141/141 139/139/139
f 143/143/143 140/140/140 141/141/141
f 142/142/142 143/143/143 141/141/141
f 143/143/143 144/144/144 140/140/140
f 143/143/143 142/142/142 145/145/145
f 143/143/143 146/146/146 144/144/144
f 143/143/143 145/145/145 147/147/147
f 143/143/143 147/147/147 146/146/146
f 148/148/148 147/147/147 145/145/145
f 149/149/149 146/146/146 147/147/147
f 148/148/148 149/149/149 147/147/147
f 149/149/149 150/150/150 146/146/146
f 149/149/149 148/148/148 151/151/151
f 149/149/149 152/152/152 150/150/150
f 149/149/149 151/151/151 153/153/153
f 149/149/149 153/153/153 152/152/152
f 154/154/154 153/153/153 151/151/151
f 155/155/155 152/152/152 153/153/153
f 154/154/154 155/155/155 153/153/153
f 155/155/155 156/156/156 152/152/152
f 155/155/155 154/154/154 157/157/157
f 155/155/155 158/158/158 156/156/156
f 155/155/155 157/157/157 159/159/159
f 155/155/155 159/159/159 158/158/158
f 160/160/160 159/159/159 157/157/157
f 161/161/161 158/158/158 159/159/159
f 160/160/160 161/161/161 159/159/159
f 161/161/161 162/162/162 158/158/158
f 161/161/161 160/160/160 163/163/163
f 161/161/161 164/164/164 162/162/162
f 161/161/161 163/163/163 165/165/165
f 161/161/161 165/165/165 164/164/164
